<svg xmlns="http://www.w3.org/2000/svg" width="206.464" height="207.84" viewBox="0 0 206.464 207.84">
    <g id="Group_385" transform="translate(-797.598 -157.958)">
        <g id="Group_383" transform="translate(798.06 159.796)">
            <path id="Path_1283"
                  d="M1001.959,291.214c-.035-.155-.07-.315-.105-.47-.125-.545-.255-1.085-.39-1.625-.04-.16-.08-.325-.125-.49-.135-.54-.275-1.08-.42-1.615-.04-.145-.08-.285-.12-.425-.155-.56-.31-1.125-.475-1.68-.015-.055-.03-.11-.05-.165q-.862-2.917-1.885-5.76c-.005-.01-.005-.015-.01-.02-.185-.52-.38-1.035-.575-1.55-.065-.17-.13-.34-.19-.505-.185-.47-.37-.94-.56-1.405-.085-.21-.165-.42-.255-.625-.18-.45-.37-.9-.56-1.34-.095-.22-.19-.445-.285-.665-.19-.435-.385-.87-.58-1.3-.1-.22-.2-.44-.3-.655-.2-.44-.4-.875-.615-1.31-.09-.195-.185-.385-.28-.575-.22-.46-.445-.92-.675-1.375-.025-.045-.045-.09-.07-.135q-.756-1.5-1.565-2.965A962.261,962.261,0,0,0,800.087,295.88c-.032.182-.069.362-.1.544-.085.495-.17.995-.25,1.495-.055.36-.105.725-.16,1.085-.055.395-.11.785-.165,1.18s-.1.815-.155,1.225c-.04.32-.075.645-.115.97q-.285,2.579-.45,5.19c0,.13-.015.255-.02.385-.035.6-.065,1.19-.09,1.79q-.008.2-.015.4c-.02.625-.04,1.25-.055,1.875-.01.655-.025,1.305-.025,1.96,0,.775.015,1.55.03,2.32,0,.161.008.323.013.485l203.775-23.978C1002.2,292.276,1002.078,291.747,1001.959,291.214Z"
                  transform="translate(-798.487 -210.984)" fill="#8dbfe0"/>
            <path id="Path_1284"
                  d="M991.482,239.986c-.02-.04-.045-.075-.065-.11-.535-.9-1.08-1.775-1.64-2.65v0c-.385-.6-.775-1.185-1.165-1.775-.015-.02-.03-.045-.045-.065-.385-.575-.78-1.15-1.175-1.715a1.039,1.039,0,0,1-.065-.095q-.593-.84-1.2-1.675c-.025-.03-.05-.065-.075-.095-.4-.555-.82-1.11-1.235-1.655-.02-.025-.04-.05-.06-.08-.43-.555-.86-1.105-1.3-1.65a.116.116,0,0,0-.02-.025,103.749,103.749,0,0,0-7.119-7.994c-29.806-1.294-60.1,3.343-89.135,10.767-27.377,7-54.044,16.39-80.773,25.6-.189.506-.379,1.012-.56,1.519a.234.234,0,0,1-.01.035c-.255.72-.5,1.445-.74,2.17a.882.882,0,0,0-.035.105q-.345,1.057-.675,2.13c-.02.06-.035.125-.055.19-.21.69-.41,1.38-.605,2.075l-.075.285c-.185.67-.365,1.34-.535,2.015-.035.125-.06.245-.09.365-.165.66-.325,1.315-.48,1.98-.02.09-.035.18-.055.27-.349,1.541-.658,3.1-.935,4.666a962.261,962.261,0,0,1,191.781-31.326Q992.443,241.6,991.482,239.986Z"
                  transform="translate(-799.966 -189.675)" fill="#b8daf2"/>
            <path id="Path_1285"
                  d="M1004.141,348.919c.218-2.57.352-5.163.378-7.783v-.005c.005-.35.01-.694.01-1.04,0-.815,0-1.63-.025-2.44-.01-.445-.03-.9-.05-1.34-.01-.355-.02-.715-.035-1.07-.03-.61-.07-1.22-.105-1.825-.015-.19-.02-.375-.035-.56-.05-.71-.11-1.415-.17-2.12-.01-.08-.015-.165-.02-.245q-.113-1.163-.24-2.31a.1.1,0,0,1-.005-.035q-.517-4.454-1.405-8.785l-.075-.36c-.006-.028-.012-.055-.018-.082L798.571,342.9c0,.075,0,.15.006.225.02.6.04,1.19.07,1.78.015.385.035.765.06,1.15.025.46.055.92.085,1.38.03.43.065.855.1,1.28q.03.338.06.675.348,3.9.988,7.71c30.232-5.07,61.41-5.678,92.178-6.217Z"
                  transform="translate(-798.527 -237.09)" fill="#d8d1ce"/>
            <path id="Path_1286"
                  d="M961.891,173.858c-.109-.057-.218-.113-.328-.174-.854-.46-1.725-.91-2.595-1.345-.08-.04-.16-.085-.245-.125-.385-.195-.78-.38-1.17-.57-.225-.11-.45-.215-.675-.325-.375-.175-.75-.35-1.125-.52-.245-.115-.5-.225-.745-.34-.6-.265-1.2-.53-1.805-.785-.315-.135-.63-.27-.95-.4s-.67-.275-1-.41c-.315-.125-.625-.25-.935-.37-.33-.13-.66-.255-.995-.38s-.69-.26-1.035-.385c-.3-.11-.6-.22-.905-.33-.6-.215-1.205-.42-1.815-.625-.265-.09-.53-.175-.8-.26-.41-.13-.815-.265-1.225-.39-.285-.09-.57-.175-.86-.265-.421-.125-.85-.25-1.275-.37-.25-.075-.505-.15-.76-.22-.65-.18-1.3-.36-1.96-.525-.19-.05-.38-.1-.57-.145-.5-.125-1.015-.25-1.525-.37-.25-.06-.5-.115-.75-.175q-.727-.165-1.455-.315c-.225-.05-.445-.1-.67-.145-.695-.14-1.39-.275-2.09-.4-.1-.02-.2-.035-.3-.055-.61-.11-1.225-.215-1.84-.315l-.68-.105c-.52-.08-1.04-.155-1.56-.23l-.65-.09c-.725-.1-1.445-.185-2.175-.265a103.673,103.673,0,0,0-11.485-.635c-.825,0-1.65.01-2.47.03-.265.01-.53.02-.795.025-.56.02-1.115.04-1.675.065-.305.015-.61.03-.915.05-.52.03-1.04.06-1.56.1-.31.02-.615.045-.925.065-.53.045-1.06.1-1.585.145-.285.025-.57.05-.855.08-.63.065-1.26.14-1.89.215-.17.025-.345.04-.515.06-.8.105-1.59.215-2.38.335l-.665.106c-.57.095-1.14.185-1.71.285-.29.05-.58.1-.87.16q-.75.135-1.5.285c-.305.065-.605.125-.91.19-.49.1-.98.21-1.47.32-.3.065-.585.13-.88.2-.535.125-1.065.255-1.6.39-.24.06-.475.115-.715.175q-1.133.292-2.26.615c-.155.04-.305.09-.455.13-.605.175-1.21.355-1.81.54l-.81.255c-.48.155-.96.31-1.435.47q-.442.142-.885.3c-.455.155-.91.315-1.36.48-.295.105-.585.21-.875.315-.47.175-.94.355-1.4.535-.265.1-.53.2-.79.3-.605.24-1.2.485-1.8.735l-.36.15q-1.058.45-2.1.92c-.25.11-.5.225-.74.34-.46.21-.915.42-1.37.64-.285.135-.565.27-.845.41-.42.2-.835.41-1.25.62-.29.145-.575.29-.86.44q-.622.323-1.245.66c-.27.14-.54.285-.81.43-.465.255-.93.52-1.39.78-.21.12-.42.235-.63.355-.65.375-1.3.76-1.945,1.15-.205.125-.41.255-.62.385-.445.275-.9.55-1.335.835-.265.165-.52.335-.78.5-.39.255-.775.505-1.16.765-.27.18-.535.36-.8.545-.375.255-.75.515-1.12.775-.26.185-.52.365-.78.555-.395.28-.785.565-1.175.855-.23.17-.46.335-.685.505-.6.45-1.19.9-1.78,1.365q-1.343,1.057-2.65,2.16c-.185.155-.37.31-.55.465q-2.632,2.242-5.1,4.65c-.135.135-.27.265-.4.4-.185.185-.375.37-.55.555q-2.25,2.235-4.35,4.61c-.07.085-.145.165-.22.25q-2.43,2.767-4.665,5.7c-.025.03-.05.06-.07.09q-2.055,2.707-3.93,5.555c-.045.07-.1.14-.14.215q-2.37,3.61-4.431,7.427c11.592-5.084,23.04-10.816,34.593-15.7C890.283,185.722,925.833,178.507,961.891,173.858Z"
                  transform="translate(-809.927 -161.494)" fill="#83c7ff"/>
            <path id="Path_1287"
                  d="M980.8,203.637a103.6,103.6,0,0,0-11.052-9.741l-.185-.14q-1.777-1.35-3.615-2.615c-.615-.425-1.24-.845-1.865-1.26-.1-.065-.195-.125-.29-.19-.44-.285-.88-.575-1.325-.855-.005-.005-.015-.01-.02-.015-.98-.615-1.965-1.22-2.965-1.8a.063.063,0,0,1-.02-.015c-.43-.25-.855-.495-1.286-.735l-.45-.255q-.615-.345-1.245-.69l-.077-.041c-36.059,4.649-71.609,11.864-104.987,25.962-11.553,4.879-23,10.612-34.593,15.7-.122.225-.248.448-.369.673a.276.276,0,0,1-.035.065,102.148,102.148,0,0,0-5.285,11.665c-.084.221-.163.444-.245.666,26.729-9.213,53.4-18.6,80.773-25.6C920.7,206.98,951,202.343,980.8,203.637Z"
                  transform="translate(-804.445 -172.916)" fill="#fff3e9"/>
            <path id="Path_1288"
                  d="M987.8,468.442c.486-.531.962-1.071,1.437-1.611-23.32-3.33-46.487-10.061-69.434-15.763-32.654-8.115-67.771-14.033-99.806-5.475a103.422,103.422,0,0,0,5.617,9.694h0c.52.8,1.055,1.585,1.6,2.37h.005v0c.264.38.536.753.806,1.129,36.084-4.873,73.385,5.272,108.86,15.376,11.03,3.141,22.1,6.3,33.055,9.777A103.669,103.669,0,0,0,987.8,468.442Z"
                  transform="translate(-808.814 -295.906)" fill="#77a6c6"/>
            <path id="Path_1289"
                  d="M835.437,473.693q2.454,3.425,5.169,6.646c.025.025.045.05.07.075q3.128,3.682,6.585,7.065c.065.065.13.125.195.19q2.613,2.539,5.4,4.89a39.889,39.889,0,0,1,14.693-2.189c9.7.325,19.044,3.484,28.227,6.61l48.909,16.653c.265-.067.53-.134.793-.2l1.005-.27,1.19-.33c.3-.09.6-.175.9-.265.425-.125.845-.255,1.265-.385.245-.075.49-.155.735-.23.47-.155.94-.305,1.41-.46.1-.035.195-.07.3-.1q3.772-1.283,7.41-2.835c.065-.03.13-.055.195-.085.565-.24,1.13-.49,1.69-.745l.265-.12c.555-.25,1.1-.51,1.655-.77.09-.04.175-.085.26-.125.56-.27,1.115-.54,1.67-.82l.18-.09c.58-.295,1.155-.59,1.73-.895h.005a102.859,102.859,0,0,0,10.015-6.059c-10.954-3.476-22.025-6.636-33.055-9.777C908.822,478.965,871.521,468.821,835.437,473.693Z"
                  transform="translate(-816.231 -310.809)" fill="#8bb4d1"/>
            <path id="Path_1290"
                  d="M883.64,506.918a39.889,39.889,0,0,0-14.693,2.189c.43.363.859.725,1.3,1.08.04.03.075.06.11.09q.93.757,1.875,1.49l.195.15c.605.465,1.215.93,1.83,1.38.085.065.175.13.26.19.6.44,1.2.87,1.8,1.295.106.075.21.145.31.215.6.415,1.19.82,1.795,1.22.115.08.235.155.35.23q.892.585,1.79,1.155c.13.079.255.16.385.24q.893.555,1.795,1.1c.135.08.27.16.41.24.6.35,1.2.7,1.81,1.04.14.08.28.16.42.235.61.34,1.22.67,1.84.995.14.075.28.15.425.225.62.325,1.245.645,1.87.955l.42.21c.635.31,1.275.615,1.915.915.135.065.275.13.41.19.655.305,1.31.6,1.97.885.13.055.255.11.38.165q1.02.435,2.045.855l.335.135c.71.285,1.425.56,2.14.83.09.035.18.07.27.1q1.125.419,2.265.815c.06.02.11.04.17.06.81.28,1.63.55,2.45.805.005,0,.005,0,.01,0,.465.145.93.285,1.395.425.24.075.48.145.72.215.45.13.9.26,1.355.385.25.07.505.14.755.205q2.228.6,4.485,1.1l.965.21c.4.085.805.165,1.21.245l1.085.21c.375.07.75.14,1.125.205.685.12,1.365.235,2.055.34.305.05.61.09.915.135.465.07.935.135,1.405.195.325.045.65.085.98.125.48.06.965.115,1.445.165.29.03.58.065.87.09.755.075,1.505.145,2.26.2l.455.03c.64.045,1.285.085,1.93.12.26.015.52.025.785.04.565.025,1.13.045,1.7.065.245,0,.49.015.735.02.8.02,1.6.03,2.4.03a103.672,103.672,0,0,0,11.485-.635c.81-.09,1.62-.19,2.42-.295a.334.334,0,0,1,.065-.01c.785-.11,1.56-.22,2.34-.345.74-.12,1.48-.245,2.215-.38.285-.05.565-.11.85-.16.46-.09.915-.175,1.37-.27.335-.065.67-.14,1-.21.4-.09.8-.175,1.2-.265.36-.08.715-.165,1.075-.25l1.1-.27.337-.086-48.909-16.653C902.683,510.4,893.335,507.243,883.64,506.918Z"
                  transform="translate(-832.322 -327.356)" fill="#83c7ff"/>
            <path id="Path_1291"
                  d="M913.17,433.393c22.947,5.7,46.114,12.434,69.434,15.763q3-3.41,5.693-7.079a.267.267,0,0,0,.03-.04,102.5,102.5,0,0,0,14.81-28.908c-22.485.915-45.325,3.528-67.665,2.335-25.516-1.362-50.514-7.748-75.96-10.074-17.812-1.628-36.445-1.031-53.322,4.32a102.39,102.39,0,0,0,4.566,12.7c.015.035.03.065.04.1q1.205,2.752,2.568,5.416C845.4,419.361,880.516,425.279,913.17,433.393Z"
                  transform="translate(-802.186 -278.232)" fill="#acbfcc"/>
            <path id="Path_1292"
                  d="M857.119,391.965c25.446,2.326,50.444,8.712,75.96,10.074,22.34,1.192,45.18-1.421,67.665-2.335.473-1.452.926-2.913,1.335-4.392a102.7,102.7,0,0,0,3.327-18.677l-112.022,1.96c-30.768.539-61.946,1.147-92.178,6.217a102.266,102.266,0,0,0,2.591,11.474C820.674,390.934,839.306,390.337,857.119,391.965Z"
                  transform="translate(-799.792 -264.805)" fill="#86b7d1"/>
        </g>
        <g id="Group_384" transform="translate(797.598 157.958)">
            <path id="Path_1293"
                  d="M1018.738,162.715c32.446,19.525,54.516,58.046,54.516,102.366s-22.07,82.84-54.516,102.366a103.009,103.009,0,0,0,0-204.732Z"
                  transform="translate(-903.79 -160.242)" opacity="0.18"
                  style="mix-blend-mode: multiply;isolation: isolate"/>
            <path id="Path_1294"
                  d="M967.488,264.495c0-44.32-22.07-82.841-54.516-102.366a103,103,0,1,0,0,204.732C945.418,347.335,967.488,308.815,967.488,264.495Z"
                  transform="translate(-798.025 -159.656)" opacity="0"/>
            <ellipse id="Ellipse_61" cx="56.166" cy="41.416" rx="56.166" ry="41.416"
                     transform="translate(0 75.036) rotate(-41.911)" fill="#fff" opacity="0.15"/>
            <ellipse id="Ellipse_62" cx="32.023" cy="23.613" rx="32.023" ry="23.613"
                     transform="translate(28.962 61.781) rotate(-41.911)" fill="#fff" opacity="0.2"/>
            <ellipse id="Ellipse_63" cx="17.686" cy="13.041" rx="17.686" ry="13.041"
                     transform="translate(49.508 53.543) rotate(-41.911)" fill="#fff" opacity="0.26"/>
        </g>
    </g>
</svg>
