<svg xmlns="http://www.w3.org/2000/svg" width="206.079" height="207.452" viewBox="0 0 206.079 207.452">
    <g id="Group_3813" transform="translate(-436.96 -1471.407)">
        <g id="Group_359" transform="translate(-360.638 32.749)">
            <g id="Group_357" transform="translate(798.059 1440.493)">
                <path id="Path_1068"
                      d="M957.736,1442.828a103.451,103.451,0,0,0-11.464-.634,102.318,102.318,0,0,0-54.313,15.51l121.507,9.494A102.363,102.363,0,0,0,957.736,1442.828Z"
                      transform="translate(-843.463 -1442.194)" fill="#0b82f9"/>
                <path id="Path_1069"
                      d="M996.975,1524.58a1065.163,1065.163,0,0,0-166.9-7.305,102.9,102.9,0,0,0-11.627,18.53l188.426,8.1A102.472,102.472,0,0,0,996.975,1524.58Z"
                      transform="translate(-808.094 -1478.011)" fill="#0781e5"/>
                <path id="Path_1070"
                      d="M929.115,1810.47a103.481,103.481,0,0,0,11.464-.633,102.228,102.228,0,0,0,47.666-18.065A829.855,829.855,0,0,1,856.3,1780.239,102.488,102.488,0,0,0,929.115,1810.47Z"
                      transform="translate(-826.306 -1604.852)" fill="#0b80e0"/>
                <path id="Path_1071"
                      d="M1007.759,1503.148a103.364,103.364,0,0,0-18.879-21.565l-121.507-9.494a103.36,103.36,0,0,0-26.51,23.753A1065.148,1065.148,0,0,1,1007.759,1503.148Z"
                      transform="translate(-818.877 -1456.579)" fill="#1e96f9"/>
                <path id="Path_1072"
                      d="M995.587,1765.161a673.77,673.77,0,0,1-159.571-8.77,103.434,103.434,0,0,0,10.525,12.373A829.869,829.869,0,0,0,978.484,1780.3,103.383,103.383,0,0,0,995.587,1765.161Z"
                      transform="translate(-816.545 -1593.377)" fill="#2295f4"/>
                <path id="Path_1073"
                      d="M986.571,1749.891a103.08,103.08,0,0,0,13.083-18.039,1003.472,1003.472,0,0,1-182.375-7.2A102.747,102.747,0,0,0,827,1741.121,673.763,673.763,0,0,0,986.571,1749.891Z"
                      transform="translate(-807.529 -1578.107)" fill="#0b7ddb"/>
                <path id="Path_1074"
                      d="M1003.892,1608.563q.472-4.917.478-9.96a102.539,102.539,0,0,0-6.834-36.919l-188.425-8.1a102.179,102.179,0,0,0-10.073,37.329A884.824,884.824,0,0,0,1003.892,1608.563Z"
                      transform="translate(-798.752 -1495.793)" fill="#0b82f9"/>
                <path id="Path_1075"
                      d="M990.612,1684.158a102.144,102.144,0,0,0,13.015-40.976,884.817,884.817,0,0,1-204.855-17.646q-.281,3.806-.285,7.686a102.4,102.4,0,0,0,9.75,43.74A1003.473,1003.473,0,0,0,990.612,1684.158Z"
                      transform="translate(-798.487 -1530.413)" fill="#1388e8"/>
                <path id="Path_1076"
                      d="M870.077,1669.7c-3.52.076-7.707.617-9.3,3.76-1.3,2.568-.083,5.834,2.051,7.764s4.978,2.834,7.727,3.684c23.506,7.267,48.049,14.5,72.35,10.657,3.8-.6,8.356-2.318,8.735-6.143.32-3.231-2.65-5.757-5.417-7.454-10.836-6.643-21.651-8.635-33.914-10.11A300,300,0,0,0,870.077,1669.7Z"
                      transform="translate(-828.204 -1551.632)" fill="#0781e5"/>
                <path id="Path_1077"
                      d="M890.944,1690.241a21.187,21.187,0,0,0,5.791,2.825c12.218,4.387,25.1,7.167,38.084,7.176,2.617,0,5.737-.412,6.9-2.755a70.685,70.685,0,0,1-24.471-1.369,211.6,211.6,0,0,1-23.6-7.012,10.633,10.633,0,0,1-3.609-1.765,3.618,3.618,0,0,1-1.325-3.588c-.44,1.508-1.375,1.085-.555,3.052A8.626,8.626,0,0,0,890.944,1690.241Z"
                      transform="translate(-841.48 -1558.426)" fill="#389fe5"/>
                <path id="Path_1078"
                      d="M898.618,1683.68a11.826,11.826,0,0,0,4.168,2.155c14.329,5.081,29.432,9.069,44.582,7.8,1.716-.144,3.664-.5,4.56-1.971.933-1.532.2-3.636-1.164-4.8a11.411,11.411,0,0,0-4.917-2.046c-7.366-1.768-14.761-3.431-22.222-4.742-7.2-1.265-15-2.82-22.337-2.687C897.594,1677.447,895.582,1680.9,898.618,1683.68Z"
                      transform="translate(-845.956 -1555.355)" fill="#097dcc"/>
            </g>
            <g id="Group_358" transform="translate(797.598 1438.658)">
                <path id="Path_1079"
                      d="M1018.738,1443.416c32.385,19.489,54.414,57.937,54.414,102.175s-22.029,82.687-54.414,102.176a102.817,102.817,0,0,0,0-204.351Z"
                      transform="translate(-904.004 -1440.948)" opacity="0.08"
                      style="mix-blend-mode: multiply;isolation: isolate"/>
                <path id="Path_1080"
                      d="M967.174,1545c0-44.238-22.029-82.686-54.414-102.175a102.809,102.809,0,1,0,0,204.35C945.145,1627.69,967.174,1589.241,967.174,1545Z"
                      transform="translate(-798.026 -1440.36)" opacity="0"/>
                <ellipse id="Ellipse_52" cx="56.062" cy="41.338" rx="56.062" ry="41.338"
                         transform="translate(0 74.896) rotate(-41.911)" fill="#fff" opacity="0.15"/>
                <ellipse id="Ellipse_53" cx="31.963" cy="23.569" rx="31.963" ry="23.569"
                         transform="translate(28.908 61.665) rotate(-41.911)" fill="#fff" opacity="0.2"/>
                <ellipse id="Ellipse_54" cx="17.653" cy="13.017" rx="17.653" ry="13.017"
                         transform="translate(49.415 53.443) rotate(-41.911)" fill="#fff" opacity="0.26"/>
            </g>
        </g>
    </g>
</svg>
