<svg xmlns="http://www.w3.org/2000/svg" width="218.397" height="219.852"
     viewBox="0 0 218.397 219.852">
    <g id="Group_3804" transform="translate(-598.158 -229.451)">
        <g id="Group_341" transform="translate(-199.44 -568.883)">
            <g id="Group_339" transform="translate(798.087 800.277)">
                <g id="Group_338">
                    <path id="Path_998"
                          d="M949.464,1185.733a96.28,96.28,0,0,0-12.517,1.74,109.673,109.673,0,0,0,44.972,4.364q2.569-.285,5.1-.688C974.72,1187.517,962.182,1184.91,949.464,1185.733Z"
                          transform="translate(-860.816 -974.601)" fill="#fae1a9"/>
                    <g id="Group_337">
                        <path id="Path_999"
                              d="M884.381,906.294c18.607.4,37.171-1.624,55.672-3.648l68.485-7.492q-1.649-2.967-3.477-5.816c-21.193,4.121-43.965,2.2-65.756.106-23.1-2.222-46.232-4.446-69.436-4.906-15.284-.3-30.565.162-45.838.9a108.679,108.679,0,0,0-12.669,23.87,92.387,92.387,0,0,1,26.311-4.7C853.243,903.915,868.8,905.956,884.381,906.294Z"
                              transform="translate(-804.282 -839.042)" fill="#e6c986"/>
                        <path id="Path_1000"
                              d="M874.342,936.816c22.031-1.894,43.422-9.121,65.516-10.051,25.464-1.071,50.88,6.239,76.11,9.987a108.2,108.2,0,0,0-11.814-32.83l-68.485,7.492c-18.5,2.024-37.066,4.051-55.672,3.648-15.583-.338-31.138-2.379-46.709-1.693a92.387,92.387,0,0,0-26.311,4.7,108.184,108.184,0,0,0-5.354,19.286C825.261,934.674,850.284,938.884,874.342,936.816Z"
                              transform="translate(-799.899 -847.809)" fill="#fbf2c6"/>
                        <path id="Path_1001"
                              d="M938.562,822c23.425.845,46.917,2.893,70.328,3.131a108.41,108.41,0,0,0-55.136-22.59,109.659,109.659,0,0,0-12.149-.672,108.487,108.487,0,0,0-67.225,23.207C895.409,821.566,917.2,821.229,938.562,822Z"
                              transform="translate(-832.651 -801.869)" fill="#f7ebbc"/>
                        <path id="Path_1002"
                              d="M880.24,863.568c23.2.46,46.334,2.683,69.436,4.906,21.792,2.1,44.563,4.014,65.756-.106a109.532,109.532,0,0,0-24.539-27.036c-23.411-.238-46.9-2.286-70.328-3.131-21.359-.77-43.153-.433-64.183,3.077A109.6,109.6,0,0,0,834.4,864.463C849.675,863.73,864.956,863.265,880.24,863.568Z"
                              transform="translate(-814.655 -818.07)" fill="#f1b55c"/>
                        <path id="Path_1003"
                              d="M858.481,980.262c14.923.414,29.633-3.093,44.394-5.323,37.573-5.677,75.667-3.083,113.529,1.538,0-.366.013-.731.013-1.1a109.518,109.518,0,0,0-1.839-20.011c-25.23-3.748-50.647-11.058-76.11-9.987-22.094.93-43.484,8.157-65.516,10.051-24.058,2.068-49.081-2.142-72.719.542a109.473,109.473,0,0,0-1.7,17.333C818.224,972.068,838.375,979.7,858.481,980.262Z"
                              transform="translate(-798.509 -866.424)" fill="#d69254"/>
                        <path id="Path_1004"
                              d="M952.051,1084.976c-10.212-1.4-19.884-5.313-29.452-9.144-22.326-8.939-46.529-17.764-69.893-12.067-7.113,1.734-13.9,4.785-21.148,5.856a53.665,53.665,0,0,1-18.708-.933,108.73,108.73,0,0,0,11.564,21.365c12.894-4.322,27.129-5.623,40.825-6.727,13.864-1.117,27.972-2.22,41.558.762,15.755,3.457,29.983,12.239,45.8,15.415,13.607,2.733,27.862,1.214,41.683,1.956a109.3,109.3,0,0,0,14.085-19.225l-29.061,2.45C970.229,1085.45,961.07,1086.213,952.051,1084.976Z"
                              transform="translate(-804.953 -918.952)" fill="#e6ae67"/>
                        <path id="Path_1005"
                              d="M902.048,1153.287c-8.223-1.217-16.242-3.941-24.55-4.2a47.15,47.15,0,0,0-9.8.758,108.774,108.774,0,0,0,38.077,21.193,96.317,96.317,0,0,1,12.517-1.74c12.718-.823,25.256,1.784,37.556,5.416a108.176,108.176,0,0,0,33.631-11.233c-7.4-2.243-14.437-6.045-21.918-8.205C946.483,1149.184,923.749,1156.5,902.048,1153.287Z"
                              transform="translate(-829.642 -958.162)" fill="#e1b67b"/>
                        <path id="Path_1006"
                              d="M962.061,1116.049c-15.814-3.176-30.042-11.957-45.8-15.415-13.586-2.982-27.694-1.879-41.558-.762-13.7,1.1-27.931,2.405-40.825,6.727a109.561,109.561,0,0,0,18.593,20.577,47.158,47.158,0,0,1,9.8-.758c8.308.262,16.327,2.987,24.55,4.2,21.7,3.211,44.435-4.1,65.511,1.984,7.481,2.16,14.517,5.962,21.918,8.205a109.345,109.345,0,0,0,29.489-22.806C989.923,1117.263,975.668,1118.782,962.061,1116.049Z"
                              transform="translate(-814.42 -935.497)" fill="#fbebbc"/>
                        <path id="Path_1007"
                              d="M975.445,1026.62c-10.422-1.689-21.062-.309-31.552.876a843.962,843.962,0,0,1-142.089,3.986,108.12,108.12,0,0,0,6.073,20.943,53.665,53.665,0,0,0,18.708.932c7.243-1.072,14.035-4.122,21.148-5.856,23.364-5.7,47.568,3.128,69.893,12.067,9.568,3.831,19.24,7.743,29.452,9.144,9.018,1.237,18.178.474,27.249-.291l29.061-2.45a108.287,108.287,0,0,0,10.459-24.876c-1.674-.666-3.33-1.365-4.965-2.082C997.964,1034.222,987.216,1028.528,975.445,1026.62Z"
                              transform="translate(-799.98 -902.689)" fill="#eda157"/>
                        <path id="Path_1008"
                              d="M902.853,996.572c-14.761,2.23-29.471,5.738-44.394,5.324-20.106-.558-40.257-8.194-59.946-6.957-.013.689-.026,1.38-.026,2.072a109.83,109.83,0,0,0,1.011,14.847c.229,1.678.508,3.34.813,4.993a843.969,843.969,0,0,0,142.089-3.986c10.49-1.185,21.131-2.566,31.552-.876,11.77,1.908,22.519,7.6,33.437,12.394,1.635.717,3.291,1.416,4.964,2.082a108.978,108.978,0,0,0,4.028-28.355C978.52,993.488,940.426,990.895,902.853,996.572Z"
                              transform="translate(-798.487 -888.057)" fill="#dfb774"/>
                        <path id="Path_1009"
                              d="M1038.272,1044.749c7.025-1.852,14.147-4.27,21.373-3.521,9.658,1,17.762,7.431,25.261,13.6,1.992,1.638,4.19,3.785,3.77,6.33-.475,2.875-3.878,4.086-6.736,4.659-26.881,5.391-55.782,3.566-80.251-8.8-2.694-1.361-6.912-5.709-2.54-8.129,2.159-1.2,6.482.491,8.9.428A132.98,132.98,0,0,0,1038.272,1044.749Z"
                              transform="translate(-887.967 -909.556)" fill="#e6ae67"/>
                        <path id="Path_1010"
                              d="M1082.108,1070.02a13.69,13.69,0,0,0,6.2-1.115c1.871-.994,3.278-3.2,2.645-5.225a5.926,5.926,0,0,0-2.38-2.831c-4.778-3.459-10.884-4.619-16.783-4.6s-11.734,1.115-17.6,1.738a110.13,110.13,0,0,1-16.011.529c-1.838-.073-3.816-.156-5.355.849a3.34,3.34,0,0,0-1.461,3.266c.411,1.514,2.043,1.614,3.4,2.1a79.622,79.622,0,0,0,10.98,3.048,127.983,127.983,0,0,0,23.025,2.291C1073.21,1070.165,1077.661,1070.115,1082.108,1070.02Z"
                              transform="translate(-903.286 -916.381)" fill="#e6c986"/>
                        <path id="Path_1011"
                              d="M1050.869,1067.336a106.126,106.126,0,0,0,35.021,3.539c2.031-.135,4.5-.669,5.082-2.62.591-1.985-1.311-3.845-3.206-4.679a18.992,18.992,0,0,0-9.383-1.164c-3.172.291-6.287,1.021-9.441,1.471a53.81,53.81,0,0,1-14.793.051c-1.4-.19-5.176-1.212-6.1.311C1047.017,1065.936,1049.721,1067.02,1050.869,1067.336Z"
                              transform="translate(-910.726 -919.101)" fill="#dfb774"/>
                    </g>
                </g>
                <path id="Path_1012"
                      d="M1088.418,1067.205l9.5-.7a6.568,6.568,0,0,1,2.9.22,2.247,2.247,0,0,1,1.531,2.246,2.22,2.22,0,0,1-1.376,1.588,6.559,6.559,0,0,1-2.144.4,39.374,39.374,0,0,1-9.794-.172,3.363,3.363,0,0,1-2.281-1.487C1085.833,1067.935,1087.182,1067.3,1088.418,1067.205Z"
                      transform="translate(-928.118 -920.97)" fill="#eda157"/>
            </g>
            <g id="Group_340" transform="translate(797.598 798.333)">
                <path id="Path_1013"
                      d="M1018.738,803.091c34.321,20.654,57.667,61.4,57.667,108.282s-23.346,87.629-57.667,108.282a108.963,108.963,0,0,0,0-216.564Z"
                      transform="translate(-897.147 -800.475)" opacity="0.1"
                      style="mix-blend-mode: multiply;isolation: isolate"/>
                <path id="Path_1014"
                      d="M977.256,910.823c0-46.881-23.346-87.628-57.667-108.282a108.954,108.954,0,1,0,0,216.564C953.91,998.452,977.256,957.705,977.256,910.823Z"
                      transform="translate(-797.998 -799.925)" opacity="0"/>
                <ellipse id="Ellipse_43" cx="59.413" cy="43.809" rx="59.413" ry="43.809"
                         transform="translate(0 79.372) rotate(-41.911)" fill="#fff" opacity="0.25"/>
                <ellipse id="Ellipse_44" cx="33.874" cy="24.977" rx="33.874" ry="24.977"
                         transform="translate(30.636 65.351) rotate(-41.911)" fill="#fff" opacity="0.3"/>
                <ellipse id="Ellipse_45" cx="18.708" cy="13.795" rx="18.708" ry="13.795"
                         transform="translate(52.369 56.638) rotate(-41.911)" fill="#fff" opacity="0.4"/>
            </g>
        </g>
    </g>
</svg>
