<svg xmlns="http://www.w3.org/2000/svg" width="194.604" height="195.901"
     viewBox="0 0 194.604 195.901">
    <g id="Group_3805" transform="translate(-168.006 -524.015)">
        <g id="Group_382" transform="translate(-1248.699 373.058)">
            <g id="Group_380" transform="translate(1417.141 152.69)">
                <path id="Path_1269"
                      d="M1611.762,251.578c0,.325,0,.65-.01.98v0a96.746,96.746,0,0,1-18.71,56.328.245.245,0,0,1-.029.038,97.57,97.57,0,0,1-32.994,28.513h0c-.542.287-1.084.565-1.63.843l-.169.085c-.523.264-1.047.519-1.574.773-.08.038-.16.08-.245.118-.518.245-1.037.49-1.56.726l-.25.113c-.528.24-1.06.476-1.593.7-.061.028-.123.052-.184.08q-3.428,1.463-6.984,2.672c-.094.028-.184.061-.278.094-.443.146-.886.288-1.329.434-.231.071-.462.146-.693.217-.4.122-.792.245-1.192.363-.283.085-.565.165-.848.25l-1.122.311-.947.254c-.354.095-.707.184-1.065.273l-1.032.255c-.339.08-.674.16-1.013.236-.377.085-.754.165-1.131.25-.311.066-.627.136-.942.2-.429.09-.858.17-1.291.255-.269.047-.533.1-.8.151-.692.127-1.39.245-2.088.358-.735.118-1.466.221-2.206.325a.318.318,0,0,0-.061.009c-.754.1-1.517.193-2.281.278a97.716,97.716,0,0,1-10.826.6c-.754,0-1.5-.009-2.257-.028-.231,0-.462-.014-.693-.019-.537-.019-1.07-.038-1.6-.061-.25-.014-.495-.024-.74-.038-.608-.033-1.216-.071-1.819-.113l-.429-.028c-.712-.056-1.419-.122-2.13-.193-.273-.024-.547-.057-.82-.085-.453-.048-.91-.1-1.362-.156-.311-.038-.617-.075-.924-.118-.443-.057-.886-.118-1.324-.184-.288-.043-.575-.08-.863-.127-.65-.1-1.291-.207-1.937-.32-.354-.061-.707-.127-1.061-.194l-1.022-.2c-.382-.075-.759-.15-1.141-.231l-.909-.2q-2.128-.473-4.228-1.037c-.236-.061-.476-.127-.711-.194-.429-.118-.853-.24-1.277-.363-.226-.066-.453-.132-.679-.2-.438-.132-.876-.264-1.315-.4,0,0,0,0-.009,0-.773-.241-1.546-.495-2.31-.759-.056-.019-.1-.038-.16-.056q-1.074-.375-2.135-.768c-.085-.028-.17-.061-.255-.095-.674-.254-1.348-.513-2.017-.782l-.316-.127c-.646-.264-1.286-.533-1.927-.806-.118-.052-.236-.1-.358-.156-.622-.273-1.24-.546-1.857-.834-.127-.056-.259-.118-.386-.179q-.905-.424-1.805-.862l-.4-.2c-.589-.292-1.178-.594-1.763-.9-.137-.071-.269-.142-.4-.212-.584-.306-1.159-.617-1.734-.938-.132-.071-.263-.146-.4-.221-.57-.32-1.14-.651-1.706-.98-.132-.075-.259-.151-.386-.226q-.848-.509-1.692-1.032c-.122-.075-.24-.151-.363-.226q-.848-.537-1.687-1.089c-.108-.071-.221-.142-.33-.217-.57-.377-1.131-.758-1.692-1.15-.094-.066-.193-.132-.292-.2-.57-.4-1.136-.805-1.7-1.22-.08-.056-.165-.118-.245-.179-.58-.424-1.155-.863-1.725-1.3l-.184-.142q-.891-.693-1.767-1.4c-.033-.028-.066-.057-.1-.085q-3.28-2.672-6.31-5.627c-.061-.061-.122-.118-.184-.179q-3.259-3.181-6.207-6.659c-.024-.024-.043-.048-.066-.071q-2.983-3.528-5.632-7.328v0h0c-.509-.74-1.013-1.48-1.5-2.234h0a97.33,97.33,0,0,1-7.715-14.242c-.009-.028-.023-.057-.037-.09a96.5,96.5,0,0,1-7.677-30.049q-.029-.318-.057-.636c-.033-.4-.066-.8-.094-1.206-.028-.434-.057-.867-.08-1.3-.023-.363-.042-.721-.056-1.084-.028-.556-.047-1.117-.066-1.678,0-.221-.014-.448-.019-.669-.014-.726-.028-1.456-.028-2.187,0-.617.014-1.23.023-1.848.014-.589.033-1.178.052-1.767,0-.127.009-.255.014-.382.024-.566.052-1.126.085-1.687,0-.122.014-.241.019-.363q.156-2.46.424-4.892c.038-.307.071-.613.109-.915.047-.386.094-.768.146-1.154s.1-.74.155-1.112c.052-.34.1-.683.151-1.023.075-.471.155-.943.236-1.409q.424-2.474.975-4.911c.019-.085.033-.17.052-.255.146-.627.3-1.244.452-1.866.028-.113.052-.226.085-.344.16-.636.33-1.268.5-1.9l.071-.268c.184-.655.372-1.305.57-1.956.019-.061.033-.122.052-.179q.311-1.01.636-2.007a.841.841,0,0,1,.033-.1c.221-.683.457-1.367.7-2.045a.31.31,0,0,0,.01-.033q.367-1.033.758-2.06a96.37,96.37,0,0,1,4.982-11,.244.244,0,0,0,.033-.061q2.092-3.923,4.524-7.635c.042-.071.089-.137.132-.2q1.768-2.679,3.7-5.236a1.024,1.024,0,0,1,.066-.085q2.107-2.771,4.4-5.377c.071-.08.142-.155.207-.236q1.98-2.241,4.1-4.345c.165-.174.344-.349.518-.523.127-.127.255-.25.382-.377q2.333-2.269,4.812-4.383c.17-.146.344-.292.518-.438q1.229-1.039,2.5-2.036c.556-.438,1.112-.863,1.677-1.287.212-.16.429-.316.646-.476.367-.273.735-.542,1.108-.806.245-.179.49-.349.735-.523.349-.245.7-.49,1.056-.73.254-.174.5-.344.759-.513.363-.245.726-.481,1.093-.721.245-.155.485-.316.735-.471.414-.268.839-.528,1.258-.787.2-.122.392-.245.584-.363.608-.367,1.22-.73,1.833-1.084.2-.113.4-.221.594-.335.434-.245.872-.495,1.31-.735.254-.137.509-.273.763-.405q.587-.318,1.174-.622c.268-.141.537-.278.81-.414.391-.2.782-.391,1.178-.585.264-.132.528-.259.8-.387.429-.207.857-.405,1.291-.6.231-.108.462-.217.7-.32q.983-.445,1.979-.867l.339-.142c.566-.236,1.127-.466,1.7-.693.245-.1.495-.193.745-.287.438-.17.881-.34,1.324-.5.273-.1.547-.2.825-.3.424-.155.853-.306,1.281-.452q.417-.148.834-.283c.448-.151.9-.3,1.352-.443l.764-.24c.565-.174,1.136-.344,1.706-.509.142-.038.283-.085.429-.122.707-.2,1.419-.4,2.13-.58.226-.057.448-.108.674-.165.5-.127,1-.25,1.5-.367.278-.066.552-.127.829-.189.462-.1.924-.207,1.385-.3.288-.061.57-.118.858-.179q.707-.142,1.414-.268c.273-.052.547-.1.82-.151.537-.095,1.075-.179,1.612-.268l.627-.1c.745-.113,1.489-.217,2.243-.316.16-.019.325-.033.485-.057.594-.071,1.188-.141,1.781-.2.269-.028.538-.052.806-.075.495-.047.995-.094,1.494-.137.292-.019.58-.043.872-.061.49-.038.98-.066,1.47-.094.288-.019.575-.033.862-.048.528-.024,1.052-.042,1.579-.061.25,0,.5-.014.749-.024.773-.019,1.551-.028,2.328-.028a97.728,97.728,0,0,1,10.826.6c.688.075,1.366.16,2.05.25l.613.085c.49.071.98.142,1.47.217l.641.1c.58.094,1.159.193,1.734.3.1.019.193.033.288.052.659.122,1.314.249,1.969.382.212.042.42.089.632.137q.686.141,1.372.3c.236.056.471.108.707.165.48.113.961.231,1.437.349.179.047.358.09.537.137.617.156,1.235.325,1.848.495.24.066.481.137.716.207.4.113.806.231,1.2.349.273.085.542.165.81.25.387.118.768.245,1.155.367.254.08.5.16.754.245.575.194,1.145.387,1.711.589.288.1.57.207.853.311.325.118.65.24.976.363s.626.236.938.359c.292.113.584.231.881.348.316.127.631.255.948.387s.6.25.9.377c.57.24,1.136.49,1.7.74.236.108.471.212.7.32.354.16.707.325,1.06.49.212.1.424.2.636.307.367.179.74.353,1.1.537.08.038.155.08.231.118.82.41,1.64.834,2.446,1.267.127.071.254.137.382.2q.594.325,1.173.65l.424.241c.405.226.806.457,1.211.693a.063.063,0,0,0,.019.014c.943.551,1.871,1.121,2.8,1.7,0,0,.014.009.019.014.419.264.834.537,1.249.806.09.061.184.118.273.179.589.391,1.178.787,1.758,1.188q1.732,1.194,3.408,2.465l.174.132a97.794,97.794,0,0,1,17.126,16.716.1.1,0,0,1,.019.024c.41.514.815,1.032,1.221,1.556.019.028.038.052.056.075.391.513.782,1.037,1.164,1.56.023.028.047.061.071.089q.572.785,1.131,1.579a1.047,1.047,0,0,0,.061.089c.372.533.745,1.075,1.108,1.617.014.019.028.043.042.061.367.556.736,1.112,1.1,1.673v0c.528.825,1.042,1.655,1.546,2.5.019.033.042.066.061.1q1.717,2.871,3.233,5.867c.024.043.043.085.066.127.217.429.429.862.636,1.3.089.179.179.358.264.542.2.41.387.82.58,1.235.094.2.189.41.283.617.184.41.367.82.546,1.23.09.208.179.42.269.627.179.419.358.839.528,1.263.085.193.16.391.241.589.179.439.353.881.528,1.324.057.156.118.316.179.476.184.485.367.971.542,1.461,0,0,0,.009.009.019q.969,2.679,1.777,5.429c.019.052.033.1.047.156.155.523.3,1.056.448,1.583.038.132.075.264.113.4.137.5.269,1.013.4,1.522.043.155.08.311.118.462.127.509.25,1.018.367,1.532.033.146.066.3.1.443.118.528.236,1.051.344,1.583l.071.339q.834,4.086,1.324,8.28a.1.1,0,0,0,0,.033q.12,1.081.226,2.177c0,.075.009.155.019.231.057.664.113,1.329.16,2,.014.174.019.349.033.528.033.57.071,1.145.1,1.72.014.335.024.674.033,1.009.019.419.038.843.047,1.263C1611.758,250.042,1611.762,250.81,1611.762,251.578Z"
                      transform="translate(-1417.594 -154.494)" fill="#3185ff"/>
                <path id="Path_1270"
                      d="M1605.1,296.349c-2.239,11.584-9.732,21.712-19.143,28.833-17.023,12.876-39.211,16.3-60.456,18.389q11.792-12.64,23.573-25.279c2.673-2.871,5.406-5.83,6.834-9.478,2.206-5.618.99-11.942-.452-17.8-4.934-20.025-13.446-40.964-31.147-51.539-12.107-7.229-27.527-8.931-37.627-18.771-7.267-7.079-10.576-17.461-11.014-27.593-.146-3.389-.212-6.819-.071-10.18.165-.174.344-.349.518-.523.127-.127.255-.25.382-.377q2.333-2.269,4.812-4.383c.17-.146.344-.292.518-.438q1.229-1.039,2.5-2.036c.556-.438,1.112-.863,1.677-1.287.212-.16.429-.316.646-.476.367-.273.735-.542,1.108-.806.245-.179.49-.349.735-.523.349-.245.7-.49,1.056-.73.254-.174.5-.344.759-.513.363-.245.726-.481,1.093-.721.245-.155.485-.316.735-.471.414-.268.839-.528,1.258-.787.2-.122.392-.245.584-.363.608-.367,1.22-.73,1.833-1.084.2-.113.4-.221.594-.335.434-.245.872-.495,1.31-.735.254-.137.509-.273.763-.405q.587-.318,1.174-.622c.268-.141.537-.278.81-.414.391-.2.782-.391,1.178-.585.264-.132.528-.259.8-.387.429-.207.857-.405,1.291-.6.231-.108.462-.217.7-.32q.983-.445,1.979-.867l.339-.142c.566-.236,1.127-.466,1.7-.693.245-.1.495-.193.745-.287.438-.17.881-.34,1.324-.5.273-.1.547-.2.825-.3.424-.155.853-.306,1.281-.452q.417-.148.834-.283c.448-.151.9-.3,1.352-.443l.764-.24c.565-.174,1.136-.344,1.706-.509.142-.038.283-.085.429-.122.707-.2,1.419-.4,2.13-.58.226-.057.448-.108.674-.165.5-.127,1-.25,1.5-.367.278-.066.552-.127.829-.189.462-.1.924-.207,1.385-.3.288-.061.57-.118.858-.179q.707-.142,1.414-.268c.273-.052.547-.1.82-.151.537-.095,1.075-.179,1.612-.268l.627-.1c.745-.113,1.489-.217,2.243-.316.16-.019.325-.033.485-.057.594-.071,1.188-.141,1.781-.2.269-.028.538-.052.806-.075.495-.047.995-.094,1.494-.137.292-.019.58-.043.872-.061.49-.038.98-.066,1.47-.094.288-.019.575-.033.862-.048.528-.024,1.052-.042,1.579-.061.25,0,.5-.014.749-.024.773-.019,1.551-.028,2.328-.028a97.728,97.728,0,0,1,10.826.6c.688.075,1.366.16,2.05.25l.613.085c.49.071.98.142,1.47.217l.641.1c.58.094,1.159.193,1.734.3.1.019.193.033.288.052.659.122,1.314.249,1.969.382.212.042.42.089.632.137q.686.141,1.372.3c.236.056.471.108.707.165.48.113.961.231,1.437.349.179.047.358.09.537.137.617.156,1.235.325,1.848.495.24.066.481.137.716.207.4.113.806.231,1.2.349.273.085.542.165.81.25.387.118.768.245,1.155.367.254.08.5.16.754.245.575.194,1.145.387,1.711.589.288.1.57.207.853.311.325.118.65.24.976.363s.626.236.938.359c.292.113.584.231.881.348.316.127.631.255.948.387s.6.25.9.377c.57.24,1.136.49,1.7.74.236.108.471.212.7.32.354.16.707.325,1.06.49.212.1.424.2.636.307.367.179.74.353,1.1.537.08.038.155.08.231.118.82.41,1.64.834,2.446,1.267.127.071.254.137.382.2q.594.325,1.173.65l.424.241c.405.226.806.457,1.211.693a.063.063,0,0,0,.019.014c.943.551,1.871,1.121,2.8,1.7,0,0,.014.009.019.014.419.264.834.537,1.249.806.09.061.184.118.273.179.589.391,1.178.787,1.758,1.188a39.465,39.465,0,0,1-13.7,20.713c-3.657,2.837-7.823,5.015-11.264,8.111s-6.2,7.479-5.759,12.088c.193,2.036.994,4.044.688,6.061-.759,5.042-7.984,6.5-12.338,3.845s-6.636-7.588-9.346-11.9-6.815-8.6-11.909-8.417c-6.343.221-10.406,7.658-9.487,13.94s5.208,11.466,9.341,16.278c5.175,6.018,10.51,12.131,17.4,16.085,12.937,7.432,29.954,6.456,41.529,15.872C1603.674,271.791,1607.336,284.761,1605.1,296.349Z"
                      transform="translate(-1447.137 -154.494)" fill="#2d9e2d"/>
                <path id="Path_1271"
                      d="M1508.636,186.935l12.915-11.729c3.34-3.033,6.787-6.134,11.006-7.731,4.17-1.579,8.75-1.559,13.21-1.519l23.47.212c5.525.05,11.332.173,16.112,2.945a16.047,16.047,0,0,1,1.8,26.555c-3.005,2.335-6.97,3.741-8.819,7.068-.757,1.36-1.076,2.924-1.792,4.307s-2.042,2.647-3.6,2.555c-1.712-.1-2.86-1.716-3.974-3.02-4.784-5.6-12.9-7.4-20.2-6.408-4.606.623-9.353,2.418-12.052,6.2-3.111,4.359-2.8,10.276-1.6,15.5s3.164,10.382,2.937,15.732a20.376,20.376,0,0,1-11.867-15.454c-.323-2.2-.336-4.611-1.7-6.369-1.118-1.437-2.911-2.126-4.517-2.984a19.98,19.98,0,0,1-9.833-12.583c-1.337-5.315-7.918-5.621-4.88-10.182C1503.779,191.234,1510.393,186.2,1508.636,186.935Z"
                      transform="translate(-1461.898 -160.335)" fill="#43b543"/>
                <path id="Path_1272"
                      d="M1640.142,390.193a33.93,33.93,0,0,1-11.343,40.052c-2.435,1.791-5.4,3.721-5.584,6.737a41.367,41.367,0,0,0,34.147-13.23,81.431,81.431,0,0,0,7.829-10.86c1.907-2.977,3.886-6.2,3.75-9.737-.1-2.636-1.393-5.162-1.217-7.794.213-3.186,2.55-6.041,2.316-9.226-.21-2.858-2.5-5.191-5.064-6.467s-5.444-1.747-8.192-2.56c-6.232-1.844-11.771-5.448-17.21-9.005-1.622-1.06-9.772-7.876-11.389-7.293s.484,6.68.853,7.862C1631.462,376.447,1637.107,382.691,1640.142,390.193Z"
                      transform="translate(-1522.474 -259.71)" fill="#43b543"/>
                <path id="Path_1273"
                      d="M1671.933,417.445c.561,2.283,1.762,4.354,2.53,6.577a18.343,18.343,0,0,1-2.9,17.044c-.767.97-1.683,2.242-1.055,3.307a1.947,1.947,0,0,0,2.266.663,5.5,5.5,0,0,0,2.052-1.478,39.762,39.762,0,0,0,8.373-11.064c1.96-4.216,2.661-9.188,1.042-13.546C1682.048,413.033,1669.214,406.371,1671.933,417.445Z"
                      transform="translate(-1546.491 -285.576)" fill="#5bc45b"/>
                <path id="Path_1274"
                      d="M1552.338,204.14c4.81-1.557,9.992-1.2,15.048-1.262s10.41-.667,14.419-3.747c3.036-2.332,5.015-6.692,3.173-10.048-1.367-2.49-4.389-3.633-7.226-3.786s-5.656.48-8.5.581c-4.849.173-9.69-1.2-14.518-.708-8.152.832-14.864,6.825-19.748,13.406-1.456,1.962-2.857,4.154-2.9,6.6-.055,2.919,1.816,5.479,3.6,7.79,1.146,1.483,3.393,4.419,5.68,3.738,1.754-.522,1.453-2.136,1.872-3.66A13.394,13.394,0,0,1,1552.338,204.14Z"
                      transform="translate(-1475.993 -170.087)" fill="#5bc45b"/>
                <path id="Path_1275"
                      d="M1432.059,327.789c3.729,18.87,14.408,35.969,28.38,49.19,5.3,5.016,11.177,9.581,17.947,12.3s14.544,3.465,21.367.879c9.919-3.759,16.171-13.762,19.324-23.89,3.323-10.672,3.973-22.3.917-33.054s-9.972-20.533-19.6-26.212c-7.453-4.4-16.1-6.206-24.2-9.248s-16.221-7.889-19.695-15.815c-.988-2.254-1.559-4.676-2.6-6.907s-2.677-4.347-5-5.16c-5.541-1.94-6.291,4.206-8.287,7.58a69.81,69.81,0,0,0-7.068,15.783A72.747,72.747,0,0,0,1432.059,327.789Z"
                      transform="translate(-1424.256 -213.157)" fill="#509df9"/>
                <path id="Path_1276"
                      d="M1461.621,360.719c1.934,9.028,7.985,16.532,13.85,23.662,4.313,5.243,8.741,10.587,14.537,14.123s13.321,4.988,19.416,2c7.581-3.722,10.748-13.085,10.546-21.527a42.1,42.1,0,0,0-17.1-32.551c-9.436-6.838-22.208-10.181-27.888-20.356-1.557-2.79-4.036-9.894-8.581-8.553-3.367.994-2.464,6.145-2.547,8.841C1463.5,337.772,1459.174,349.3,1461.621,360.719Z"
                      transform="translate(-1439.67 -237.559)" fill="#69b4ff"/>
                <path id="Path_1277"
                      d="M1492.639,395.864c.944,4.863,3.739,9.15,6.7,13.124,2.329,3.129,4.885,6.232,8.3,8.111s7.9,2.292,11.107.074c4.418-3.057,4.7-9.557,3.251-14.732a33.9,33.9,0,0,0-15.5-20,12.954,12.954,0,0,0-5.308-1.93C1494.072,379.928,1491.6,390.518,1492.639,395.864Z"
                      transform="translate(-1455.756 -269.768)" fill="#83c7ff"/>
                <path id="Path_1278"
                      d="M1674.277,240.292c-2.783,5.126-3.484,11.451-7.475,15.7-2.419,2.576-6.082,4.52-6.593,8.017-.464,3.177,2,6.008,4.531,7.982,6.145,4.792,13.606,7.5,20.658,10.817s14.086,7.584,18.037,14.3c5.305,9.02,3.941,20.285,2.831,30.691-.217,2.028-.257,4.448,1.378,5.668,1.619,1.208,3.952.492,5.659-.588,6.667-4.221,9.308-12.54,10.906-20.268a168.7,168.7,0,0,0,3.463-37.44c-.231-11.832-1.746-23.768-6.034-34.8-2.188-5.626-15.7-31.894-23.73-24.789-1.992,1.762-3.282,4.691-5.222,6.645a83.347,83.347,0,0,1-6.465,5.612C1681.771,231.486,1677.073,235.144,1674.277,240.292Z"
                      transform="translate(-1541.314 -185.038)" fill="#509df9"/>
                <path id="Path_1279"
                      d="M1703.706,258.748c-4.741,3.977-7.927,9.525-10.2,15.279-.839,2.12-1.577,4.434-1.025,6.646.979,3.924,5.356,5.738,9.041,7.4a55.777,55.777,0,0,1,19.829,15.109c2.045,2.46,4.5,5.384,7.676,5.03,3.9-.434,5.37-5.284,5.677-9.193a91.736,91.736,0,0,0-4.1-35.1c-1.65-5.14-4.287-10.755-10.22-10.809A25.8,25.8,0,0,0,1703.706,258.748Z"
                      transform="translate(-1557.704 -204.794)" fill="#69b4ff"/>
                <path id="Path_1280"
                      d="M1725.464,282.893a7.182,7.182,0,0,0-3.779,6.13,9.517,9.517,0,0,0,3.571,7.047,28.18,28.18,0,0,0,7.042,4.054,6.2,6.2,0,0,0,3.153.8c2.151-.238,3.406-2.589,3.754-4.724C1740.387,288.956,1733.823,278.532,1725.464,282.893Z"
                      transform="translate(-1572.699 -219.459)" fill="#83c7ff"/>
            </g>
            <g id="Group_381" transform="translate(1416.705 150.958)">
                <path id="Path_1281"
                      d="M1637.846,155.715c30.581,18.4,51.384,54.711,51.384,96.486s-20.8,78.082-51.384,96.485a97.092,97.092,0,0,0,0-192.971Z"
                      transform="translate(-1529.501 -153.384)" opacity="0.18"
                      style="mix-blend-mode: multiply;isolation: isolate"/>
                <path id="Path_1282"
                      d="M1576.887,251.578c0-41.774-20.8-78.082-51.384-96.486a97.084,97.084,0,1,0,0,192.971C1556.085,329.66,1576.887,293.352,1576.887,251.578Z"
                      transform="translate(-1417.159 -152.761)" opacity="0"/>
                <ellipse id="Ellipse_58" cx="52.94" cy="39.036" rx="52.94" ry="39.036"
                         transform="translate(0 70.725) rotate(-41.911)" fill="#fff" opacity="0.15"/>
                <ellipse id="Ellipse_59" cx="30.183" cy="22.256" rx="30.183" ry="22.256"
                         transform="matrix(0.744, -0.668, 0.668, 0.744, 27.298, 58.232)" fill="#fff" opacity="0.2"/>
                <ellipse id="Ellipse_60" cx="16.67" cy="12.292" rx="16.67" ry="12.292"
                         transform="translate(46.664 50.467) rotate(-41.911)" fill="#fff" opacity="0.26"/>
            </g>
        </g>
    </g>
</svg>
