<svg xmlns="http://www.w3.org/2000/svg" width="221.553" height="223.03" viewBox="0 0 221.553 223.03">
    <g id="Group_3814" transform="translate(-824.637 -547.161)">
        <g id="Group_3809" transform="translate(310.447 -22.854)">
            <g id="Group_3808">
                <g id="Group_333" transform="translate(514.686 571.988)">
                    <path id="Path_988"
                          d="M405.572,892.1a109.779,109.779,0,0,0-11.985-33.3q-1.673-3.01-3.527-5.9a111.115,111.115,0,0,0-24.895-27.426,109.974,109.974,0,0,0-55.932-22.916,111.255,111.255,0,0,0-12.324-.682A110.363,110.363,0,0,0,186.406,910.3c-.013.7-.026,1.4-.026,2.1a111.423,111.423,0,0,0,1.026,15.062c.232,1.7.515,3.388.824,5.065a109.574,109.574,0,0,0,17.893,42.92,110.647,110.647,0,0,0,103.111,46.8q2.606-.289,5.175-.7a109.735,109.735,0,0,0,34.116-11.4,110.389,110.389,0,0,0,58.9-96.639c0-.372.013-.742.013-1.115A111.108,111.108,0,0,0,405.572,892.1Z"
                          transform="translate(-186.38 -801.869)" fill="#db5931"/>
                    <path id="Path_989"
                          d="M355.639,851.639c-7.2,1.322-14.176,6.959-14.473,14.276-.253,6.2,4.239,11.687,9.413,15.122s11.167,5.459,16.428,8.758,10,8.471,10.233,14.676c.417,11.069-13.211,19.34-11.8,30.327,1.123,8.767,11.193,13.315,19.988,14.19,15.633,1.553,31.136-3.15,46.143-7.8,6.5-2.014,13.418-4.3,17.612-9.665,4.131-5.28,4.718-12.853,2.232-19.079s-7.729-11.113-13.77-14.019c-5.824-2.8-12.88-4.281-16.484-9.646-1.721-2.562-2.373-5.667-3.326-8.6-3.839-11.833-13.506-21.411-25.036-25.864-5.621-2.171-10.273-2.186-16.091-1.876C369.624,852.814,362.729,850.338,355.639,851.639Z"
                          transform="translate(-254.824 -823.709)" fill="#bc4524"/>
                    <path id="Path_990"
                          d="M401.229,891.287c2.6,1.973,5.581,3.389,8.16,5.384,5.189,4.014,8.508,11.224,6.02,17.293-2.116,5.16-8.037,9.145-7.232,14.664.513,3.518,3.854,6.08,7.33,6.83s7.081.071,10.571-.607c3.9-.759,8.5-2.113,9.642-5.924.928-3.1-.964-6.253-1.807-9.38-1.179-4.378-.274-9.012-.357-13.544a31.234,31.234,0,0,0-9-21.223c-5.054-5.073-13.989-9.893-21.432-9.423C393.818,875.945,395.508,886.938,401.229,891.287Z"
                          transform="translate(-279.316 -834.352)" fill="#a8351b"/>
                    <path id="Path_991"
                          d="M323.152,1006.3c2.517,3.544,6.581,5.585,10.416,7.632s7.8,4.434,9.785,8.3c1.579,3.07,1.689,6.658,1.765,10.11.093,4.144-.44,9.292-4.295,10.815-4.591,1.815-8.82-3.259-13.539-4.71-4.039-1.242-8.4.3-12.135,2.271s-7.333,4.443-11.484,5.235c-5.867,1.121-11.8-1.286-17.124-3.989-5.667-2.875-11.363-6.373-14.613-11.834s-3.194-13.361,1.69-17.428c4.229-3.522,10.471-3.192,15.367-5.7,3.93-2.018,6.7-5.711,9.107-9.416s4.656-7.621,8.011-10.5,8.172-4.535,12.267-2.875C328.161,988.181,318.4,999.607,323.152,1006.3Z"
                          transform="translate(-223.22 -882.212)" fill="#bc4524"/>
                    <path id="Path_992"
                          d="M314.167,1104.384c3.518-2.689,6.58-6.277,10.832-7.515,6.99-2.034,13.881,2.976,20.974,4.614s14.5-.164,21.365-2.573,13.594-5.457,20.8-6.415,15.241.569,20.076,6c2.515,2.826,3.89,7.334,1.585,10.333-1.926,2.505-5.662,3.01-7.657,5.461-1.726,2.121-1.711,5.115-2.518,7.728-1.516,4.9-6.046,8.411-10.927,10s-10.124,1.537-15.252,1.363-10.331-.452-15.331.7c-6.687,1.547-13.2,5.64-19.908,4.182-2.99-.65-5.639-2.365-8.55-3.306-4.39-1.42-9.124-1.022-13.735-1.176a56.52,56.52,0,0,1-24.951-6.774c-3.808-2.065-8.265-5.225-8.718-9.932-.363-3.78,1.644-7.305,5.5-7.6,4.019-.306,7.957,1.093,12.073.621A29.173,29.173,0,0,0,314.167,1104.384Z"
                          transform="translate(-228.759 -930.27)" fill="#bc4524"/>
                    <path id="Path_993"
                          d="M353.854,1136.129c5.442,1.209,10.827,2.935,16.4,3.126,6.435.22,12.766-1.621,19.2-1.95,4.341-.222,8.869.217,12.874-1.47s7.125-6.6,5.016-10.4c-1.342-2.418-4.324-3.507-7.09-3.492s-5.437.917-8.13,1.549c-9.264,2.171-18.928,1.146-28.44.885-7.9-.216-22.863-.571-28.65,6.2-3.294,3.855.644,5.481,3.975,5.086A41.9,41.9,0,0,1,353.854,1136.129Z"
                          transform="translate(-251.565 -943.409)" fill="#a8351b"/>
                </g>
            </g>
        </g>
        <path id="Path_994"
              d="M334.6,805.1a79.712,79.712,0,0,1,49.024,8.814c1.555.847,3.213,1.908,3.689,3.614.667,2.391-1.482,4.815-3.886,5.432s-4.926-.036-7.346-.588a90.373,90.373,0,0,0-16.482-2.193,41.863,41.863,0,0,0-12.156.975c-3.25.839-6.34,2.28-9.646,2.863-5.945,1.051-12.005-.745-18.042-.76-4.919-.012-9.842,1.16-14.722.542-2.511-.318-5.395-1.6-5.711-4.109a4.556,4.556,0,0,1,1.746-3.862c1.8-1.538,4.284-2.141,6.447-2.984,2.928-1.14,5.875-2.232,8.854-3.23A104.045,104.045,0,0,1,334.6,805.1Z"
              transform="translate(588.821 -253.815)" fill="#f99b8f"/>
        <path id="Path_995"
              d="M353.66,807.864a68.962,68.962,0,0,1,24.789,4.041,6.818,6.818,0,0,1,2.85,1.538,2.451,2.451,0,0,1,.441,2.985c-.71.995-2.154,1.006-3.375.941a95.847,95.847,0,0,0-19.8,1c-4.15.644-8.33,1.565-12.507,1.136-3.855-.395-7.651-1.932-11.489-1.405a14.859,14.859,0,0,1-2.671.315c-2.218-.1-3.22-2.22-1.426-3.581a31.693,31.693,0,0,1,7.02-3.576A47.794,47.794,0,0,1,353.66,807.864Z"
              transform="translate(575.443 -255.369)" fill="#fcb6b1"/>
        <path id="Path_996"
              d="M406.631,803.091c34.816,20.952,58.5,62.288,58.5,109.847s-23.684,88.9-58.5,109.848a110.537,110.537,0,0,0,0-219.695Z"
              transform="translate(541.355 -253.276)" opacity="0.07"
              style="mix-blend-mode: multiply;isolation: isolate"/>
        <path id="Path_997"
              d="M367.733,912.4c0-47.559-23.684-88.895-58.5-109.847a110.529,110.529,0,1,0,0,219.694C344.049,1001.293,367.733,959.957,367.733,912.4Z"
              transform="translate(638.753 -252.736)" opacity="0"/>
        <ellipse id="Ellipse_40" cx="60.271" cy="44.442" rx="60.271" ry="44.442"
                 transform="translate(824.637 627.681) rotate(-41.911)" fill="#fff" opacity="0.15"/>
        <ellipse id="Ellipse_41" cx="34.363" cy="25.338" rx="34.363" ry="25.338"
                 transform="translate(855.715 613.457) rotate(-41.911)" fill="#fff" opacity="0.2"/>
        <ellipse id="Ellipse_42" cx="18.979" cy="13.994" rx="18.979" ry="13.994"
                 transform="matrix(0.744, -0.668, 0.668, 0.744, 877.763, 604.618)" fill="#fff" opacity="0.26"/>
    </g>
</svg>
