<svg xmlns="http://www.w3.org/2000/svg" width="329.725" height="194.963"
     viewBox="0 0 329.725 194.963">
    <g id="Group_3811" transform="translate(-398.134 -1047.197)">
        <g id="Group_351" transform="translate(-875.404 245.378)">
            <g id="Group_349" transform="translate(1273.539 801.818)">
                <g id="Group_344" transform="translate(63.447)">
                    <g id="Group_342" transform="translate(3.852 0.004)">
                        <path id="Path_1015"
                              d="M1493.359,823.927a86.106,86.106,0,0,1-10.964,2.753,98.1,98.1,0,0,1,35.832-18.694q2.225-.625,4.46-1.139C1513.7,813.981,1504.181,820.346,1493.359,823.927Z"
                              transform="translate(-1446.974 -804.377)" fill="#edc3a4"/>
                        <path id="Path_1016"
                              d="M1524.726,1056.549c15.3-6.571,31.37-11.114,47.391-15.637l59.3-16.744q-.373,3.014-.934,5.989c-18.957,3.687-37.2,12.911-54.566,21.955-18.414,9.587-36.849,19.184-55.938,27.344-12.573,5.375-25.4,10.112-38.312,14.623a97.191,97.191,0,0,1-18.508-15.549,82.628,82.628,0,0,0,23.4-4.919C1499.7,1068.959,1511.917,1062.052,1524.726,1056.549Z"
                              transform="translate(-1437.201 -914.816)" fill="#d3b49f"/>
                        <path id="Path_1017"
                              d="M1501.476,1008.181c18.906-5.815,39.067-6.992,57.7-13.627,21.475-7.647,40.1-22.23,59.769-33.8a96.785,96.785,0,0,1,1.208,31.186l-59.3,16.744c-16.021,4.524-32.1,9.066-47.391,15.637-12.809,5.5-25.024,12.41-38.167,17.062a82.624,82.624,0,0,1-23.4,4.919,96.727,96.727,0,0,1-10.905-14.2C1461.492,1026.41,1480.833,1014.531,1501.476,1008.181Z"
                              transform="translate(-1425.933 -882.593)" fill="#edc3a4"/>
                        <path id="Path_1018"
                              d="M1650,1154.917a98.1,98.1,0,0,1-9.85,4.629,97.078,97.078,0,0,1-41.306,7l75.636-30.417A96.75,96.75,0,0,1,1650,1154.917Z"
                              transform="translate(-1506.152 -971.715)" fill="#edc3a4"/>
                        <path id="Path_1019"
                              d="M1607.918,1124.828c19.143-8.554,37.937-18.126,57.272-26.172a97.53,97.53,0,0,1-13.671,18.431l-75.636,30.417a97.463,97.463,0,0,1-22.222-3.713C1572.277,1139.653,1590.464,1132.627,1607.918,1124.828Z"
                              transform="translate(-1483.191 -952.67)" fill="#f4b990"/>
                        <path id="Path_1020"
                              d="M1586.775,1097.364c22.476-10.33,46.1-17.842,69.827-24.918a98.05,98.05,0,0,1-6.184,12.89c-19.335,8.045-38.129,17.618-57.272,26.172-17.455,7.8-35.641,14.825-54.257,18.963a97.872,97.872,0,0,1-14.3-5.389C1546.258,1118.768,1566.141,1106.848,1586.775,1097.364Z"
                              transform="translate(-1468.419 -939.351)" fill="#d1beb2"/>
                        <path id="Path_1021"
                              d="M1539.107,1085.643c19.089-8.16,37.524-17.757,55.938-27.344,17.369-9.043,35.61-18.267,54.566-21.955a97.85,97.85,0,0,1-5.1,17.756c-23.724,7.076-47.351,14.588-69.827,24.918-20.634,9.483-40.517,21.4-62.182,27.718a98.135,98.135,0,0,1-11.7-6.47C1513.706,1095.755,1526.534,1091.018,1539.107,1085.643Z"
                              transform="translate(-1456.325 -921.004)" fill="#cea080"/>
                        <path id="Path_1022"
                              d="M1473.693,973.718c12.236-5.346,25.611-7.368,38.6-10.467,33.061-7.887,63.783-22.808,93.632-39.332.126.3.256.6.379.906a98.02,98.02,0,0,1,5.183,17.212c-19.666,11.566-38.294,26.148-59.769,33.8-18.634,6.636-38.795,7.813-57.7,13.627-20.644,6.35-39.984,18.229-60.486,23.927a97.942,97.942,0,0,1-7.218-13.8C1443.055,994.008,1457.206,980.92,1473.693,973.718Z"
                              transform="translate(-1418.474 -863.872)" fill="#ceaa91"/>
                        <path id="Path_1023"
                              d="M1483.12,864.95c11.906-8.148,20.761-20.2,32.811-28.135,10.368-6.828,22.7-10.346,33.911-15.6a97.763,97.763,0,0,1,18.125,11.222l-24.921,7.71c-7.779,2.407-15.63,4.844-22.695,8.893-8,4.584-14.708,11.071-21.359,17.456-15.518,14.9-32.631,30.328-53.916,33.436-6.48.946-13.135.693-19.5,2.233a47.982,47.982,0,0,0-15.2,7.044,97.261,97.261,0,0,1,2.427-21.594c12.142-.738,24.383-4.431,36.111-8.107C1460.785,875.792,1472.853,871.977,1483.12,864.95Z"
                              transform="translate(-1410.375 -811.682)" fill="#ba8d6e"/>
                        <path id="Path_1024"
                              d="M1459.968,840.094c-6.411,3.766-12.147,8.713-18.95,11.716a42.158,42.158,0,0,1-8.383,2.658,97.284,97.284,0,0,1,24.472-30.339,86.084,86.084,0,0,0,10.964-2.753c10.823-3.581,20.346-9.946,29.328-17.081a96.773,96.773,0,0,1,31.655-1.958c-5.385,4.342-9.945,9.853-15.425,14.152C1498.193,828.6,1476.888,830.157,1459.968,840.094Z"
                              transform="translate(-1421.688 -801.826)" fill="#cca68b"/>
                        <path id="Path_1025"
                              d="M1466.207,853.036c-8.831,3.877-18.412,5.646-27.7,8.233a75.765,75.765,0,0,0-17.2,6.757,97.987,97.987,0,0,1,5.576-13.031,42.161,42.161,0,0,0,8.383-2.658c6.8-3,12.539-7.95,18.949-11.716,16.92-9.938,38.225-11.493,53.662-23.606,5.48-4.3,10.04-9.81,15.425-14.152a97.607,97.607,0,0,1,16.29,3.1,305.538,305.538,0,0,0-43.5,27.217C1486.495,840.371,1477.185,848.217,1466.207,853.036Z"
                              transform="translate(-1415.926 -802.354)" fill="#c6afa1"/>
                        <path id="Path_1026"
                              d="M1552.351,815.091c-11.212,5.249-23.543,8.767-33.911,15.6-12.05,7.935-20.905,19.987-32.812,28.135-10.267,7.027-22.336,10.842-34.208,14.563-11.728,3.676-23.969,7.369-36.111,8.107a98.059,98.059,0,0,1,2.945-10.266,75.759,75.759,0,0,1,17.2-6.757c9.291-2.587,18.872-4.356,27.7-8.233,10.978-4.819,20.288-12.665,29.879-19.859a305.532,305.532,0,0,1,43.5-27.217A98.028,98.028,0,0,1,1552.351,815.091Z"
                              transform="translate(-1412.883 -805.553)" fill="#ddb294"/>
                        <path id="Path_1027"
                              d="M1506.368,900.331c23.884-12.748,47.225-26.68,71.582-38.411a96.878,96.878,0,0,1,7.234,8.328c-1.165,1.113-2.3,2.248-3.419,3.391-7.448,7.634-14.453,15.959-23.575,21.487-8.076,4.894-17.363,7.316-26.46,9.85A754.843,754.843,0,0,0,1412.563,949.3a97.252,97.252,0,0,1-1.785-13.4C1444.5,930.84,1476.226,916.419,1506.368,900.331Z"
                              transform="translate(-1410.58 -832.365)" fill="#ceaa93"/>
                        <path id="Path_1028"
                              d="M1425.576,913.765c6.366-1.54,13.021-1.287,19.5-2.233,21.285-3.108,38.4-18.539,53.916-33.436,6.651-6.385,13.36-12.872,21.359-17.456,7.065-4.049,14.916-6.487,22.695-8.894l24.921-7.71a96.859,96.859,0,0,1,9.778,8.8c-24.357,11.731-47.7,25.663-71.582,38.411-30.142,16.088-61.865,30.509-95.59,35.57-.126-2-.2-4.007-.2-6A47.983,47.983,0,0,1,1425.576,913.765Z"
                              transform="translate(-1410.375 -823.277)" fill="#d3c0b4"/>
                        <path id="Path_1029"
                              d="M1533.576,913.582c9.1-2.534,18.384-4.956,26.46-9.85,9.121-5.528,16.126-13.853,23.575-21.487,1.115-1.143,2.254-2.278,3.419-3.391a97.463,97.463,0,0,1,12.845,22.164c-29.849,16.524-60.571,31.445-93.632,39.332-12.989,3.1-26.363,5.121-38.6,10.467-16.487,7.2-30.638,20.29-47.38,25.864-.243-.568-.484-1.136-.717-1.711a98.266,98.266,0,0,1-4.138-12.651c-.373-1.468-.7-2.94-1-4.413A754.843,754.843,0,0,1,1533.576,913.582Z"
                              transform="translate(-1412.424 -840.971)" fill="#edd4c3"/>
                    </g>
                    <g id="Group_343">
                        <path id="Path_1030"
                              d="M1555.251,805.43c35.385,5.623,68.4,31.587,84.12,70.466s10.014,80.495-11.524,109.128a97.464,97.464,0,0,0-72.6-179.593Z"
                              transform="translate(-1480.147 -801.818)" opacity="0.18"
                              style="mix-blend-mode: multiply;isolation: isolate"/>
                        <path id="Path_1031"
                              d="M1565.74,879.628c-15.715-38.879-48.735-64.843-84.12-70.466a97.456,97.456,0,1,0,72.6,179.594C1575.754,960.123,1581.456,918.506,1565.74,879.628Z"
                              transform="translate(-1406.516 -805.55)" opacity="0"/>
                        <ellipse id="Ellipse_46" cx="53.143" cy="39.186" rx="53.143" ry="39.186"
                                 transform="translate(0 108.024) rotate(-63.921)" fill="#fff" opacity="0.25"/>
                        <ellipse id="Ellipse_47" cx="30.299" cy="22.342" rx="30.299" ry="22.342"
                                 transform="translate(20.705 86.127) rotate(-63.921)" fill="#fff" opacity="0.3"/>
                        <ellipse id="Ellipse_48" cx="16.734" cy="12.339" rx="16.734" ry="12.339"
                                 transform="translate(35.808 71.616) rotate(-63.921)" fill="#fff" opacity="0.4"/>
                    </g>
                </g>
                <g id="Group_348" transform="translate(0 14.789)">
                    <g id="Group_345" transform="translate(226.19)">
                        <path id="Path_1032"
                              d="M1778.949,902.3a98.005,98.005,0,0,1,5.183,17.212q.846,4.159,1.315,8.329c16.471-14.093,24.655-27.285,20.886-36.61s-18.825-13.125-40.465-11.812a97.472,97.472,0,0,1,12.7,21.975C1778.7,901.7,1778.826,902,1778.949,902.3Z"
                              transform="translate(-1749.923 -855.917)" fill="none"/>
                        <path id="Path_1033"
                              d="M1835.721,848.668c-7.621-18.855-48.405-21.468-102.274-9.6q2.119,1.714,4.149,3.549c45.9-8.967,80.036-5.872,86.72,10.664s-15.7,42.473-54.935,67.922q-.182,2.728-.513,5.434C1815.838,897.735,1843.341,867.521,1835.721,848.668Z"
                              transform="translate(-1733.447 -831.889)" fill="#ddb294"/>
                        <path id="Path_1034"
                              d="M1822.861,861.586c6.212,15.366-13.673,39.174-49.049,62.845q-.052,1.38-.143,2.755c39.232-25.449,61.619-51.387,54.935-67.922s-40.816-19.631-86.72-10.664c.68.618,1.356,1.242,2.02,1.881C1785.8,842.917,1816.649,846.218,1822.861,861.586Z"
                              transform="translate(-1737.735 -837.876)" fill="#ba8d6e"/>
                        <path id="Path_1035"
                              d="M1748.949,856.464c35.876-5.546,61.886-1.99,67.385,11.613s-10.727,34.225-40.367,55.162q.012,2.1-.067,4.2c35.376-23.671,55.26-47.479,49.049-62.845s-37.061-18.669-78.957-11.1q1.217,1.17,2.4,2.383C1748.579,856.067,1748.762,856.268,1748.949,856.464Z"
                              transform="translate(-1739.822 -840.884)" fill="#ceaa93"/>
                        <path id="Path_1036"
                              d="M1813.646,874.91c5.015,12.406-8.834,30.915-34.679,49.973.033.957.05,1.913.055,2.867,29.64-20.937,45.864-41.563,40.367-55.162s-31.509-17.159-67.385-11.613q.989,1.034,1.951,2.1C1785.8,858.816,1808.63,862.5,1813.646,874.91Z"
                              transform="translate(-1742.878 -845.396)" fill="#d3c0b4"/>
                        <path id="Path_1037"
                              d="M1815.662,877.917c-5.016-12.41-27.848-16.094-59.691-11.834q.986,1.092,1.941,2.217c27.787-3.03,47.479.74,52.006,11.938s-7.009,27.586-29.086,44.712q.1,1.471.151,2.94C1806.828,908.832,1820.677,890.323,1815.662,877.917Z"
                              transform="translate(-1744.893 -848.403)" fill="#ceaa91"/>
                        <path id="Path_1038"
                              d="M1762.844,874.916c21.64-1.313,36.7,2.486,40.465,11.812s-4.415,22.517-20.886,36.61q.264,2.311.414,4.62c22.077-17.126,33.612-33.517,29.086-44.712s-24.219-14.968-52.006-11.938c.949,1.118,1.882,2.252,2.783,3.42Z"
                              transform="translate(-1746.899 -851.41)" fill="#544032"/>
                    </g>
                    <g id="Group_346" transform="translate(0 71.07)">
                        <path id="Path_1039"
                              d="M1368.419,1059.4c3.769,9.324,18.82,13.124,40.455,11.813q-2.721-3.54-5.135-7.367a97.905,97.905,0,0,1-7.219-13.8c-.242-.568-.484-1.136-.717-1.711a98.326,98.326,0,0,1-4.139-12.651c-.373-1.469-.7-2.94-1-4.413q-.868-4.237-1.349-8.485C1372.838,1036.879,1364.649,1050.075,1368.419,1059.4Z"
                              transform="translate(-1321.295 -999.968)" fill="none"/>
                        <path id="Path_1040"
                              d="M1286.2,1049.757c-6.684-16.535,15.708-42.478,54.946-67.928q.182-2.73.516-5.435c-46.977,28.9-74.486,59.119-66.865,77.973s48.4,21.468,102.269,9.605q-2.12-1.715-4.151-3.549C1327.016,1069.388,1292.887,1066.292,1286.2,1049.757Z"
                              transform="translate(-1273.539 -976.394)" fill="#ddb294"/>
                        <path id="Path_1041"
                              d="M1303.822,1053.052c-6.212-15.368,13.677-39.178,49.058-62.851q.052-1.381.144-2.756c-39.238,25.451-61.63,51.393-54.946,67.928s40.813,19.631,86.714,10.666q-1.022-.926-2.022-1.881C1340.88,1071.72,1310.033,1068.419,1303.822,1053.052Z"
                              transform="translate(-1285.414 -982.01)" fill="#ba8d6e"/>
                        <path id="Path_1042"
                              d="M1309.8,1055.9c6.212,15.367,37.058,18.668,78.949,11.106-1.007-.967-1.991-1.962-2.96-2.974-35.871,5.544-61.876,1.987-67.374-11.614s10.729-34.228,40.373-55.166c0-.166-.009-.332-.009-.5,0-1.238.032-2.472.079-3.7C1323.479,1016.722,1303.591,1040.532,1309.8,1055.9Z"
                              transform="translate(-1291.394 -984.858)" fill="#ceaa93"/>
                        <path id="Path_1043"
                              d="M1392.8,1066.274c-31.834,4.257-54.658.572-59.673-11.837s8.837-30.92,34.69-49.981q-.053-1.433-.061-2.863c-29.644,20.938-45.87,41.565-40.373,55.166s31.5,17.158,67.374,11.614c-.349-.365-.7-.725-1.048-1.1C1393.407,1066.946,1393.107,1066.609,1392.8,1066.274Z"
                              transform="translate(-1300.365 -989.2)" fill="#d3c0b4"/>
                        <path id="Path_1044"
                              d="M1344.854,1055.074c-4.526-11.2,7.013-27.591,29.1-44.72-.007-.1-.015-.2-.022-.3-.056-.882-.1-1.763-.129-2.644-25.852,19.061-39.706,37.573-34.69,49.981s27.839,16.093,59.674,11.837c-.657-.729-1.307-1.466-1.944-2.218C1369.064,1070.04,1349.38,1066.27,1344.854,1055.074Z"
                              transform="translate(-1306.345 -992.158)" fill="#ceaa91"/>
                        <path id="Path_1045"
                              d="M1359.449,1054.629c-3.77-9.327,4.419-22.523,20.9-36.619q-.263-2.311-.415-4.619c-22.084,17.129-33.623,33.523-29.1,44.72s24.21,14.966,51.986,11.94q-1.5-1.765-2.916-3.61C1378.269,1067.753,1363.219,1063.953,1359.449,1054.629Z"
                              transform="translate(-1312.325 -995.195)" fill="#544032"/>
                    </g>
                    <g id="Group_347" transform="translate(87.58 71.928)">
                        <path id="Path_1046"
                              d="M1559.881,1053.575c-29.927,12.1-58.9,20.739-84.278,25.695q2.028,1.838,4.151,3.549a545.633,545.633,0,0,0,158.083-63.9q.333-2.7.513-5.434C1616.655,1027.554,1589.811,1041.477,1559.881,1053.575Z"
                              transform="translate(-1463.804 -996.1)" fill="#ddb294"/>
                        <path id="Path_1047"
                              d="M1557.082,1048.974c-30.58,12.361-60.124,20.971-85.59,25.568q1,.957,2.022,1.881c25.377-4.956,54.351-13.6,84.277-25.695s56.775-26.021,78.469-40.093q.092-1.375.143-2.755C1614.9,1022.271,1587.664,1036.612,1557.082,1048.974Z"
                              transform="translate(-1461.715 -993.253)" fill="#ba8d6e"/>
                        <path id="Path_1048"
                              d="M1552.96,1042c-31.6,12.774-62.027,21.291-87.486,25.226.968,1.013,1.953,2.008,2.96,2.974,25.466-4.6,55.011-13.208,85.59-25.568s57.813-26.7,79.321-41.094q.079-2.1.067-4.2C1612.369,1014.2,1584.567,1029.226,1552.96,1042Z"
                              transform="translate(-1458.657 -988.913)" fill="#ceaa93"/>
                        <path id="Path_1049"
                              d="M1631.39,996.377c-.005-.955-.022-1.91-.055-2.867-20.581,15.176-48.765,30.7-81.106,43.775s-63.39,21.492-88.734,24.881c.3.335.6.673.909,1,.344.371.7.731,1.048,1.1,25.459-3.935,55.885-12.452,87.486-25.226S1610.347,1011.242,1631.39,996.377Z"
                              transform="translate(-1456.635 -985.95)" fill="#d3c0b4"/>
                        <path id="Path_1050"
                              d="M1547.511,1032.493c-33.133,13.393-64.857,21.683-89.969,24.418.637.752,1.287,1.488,1.944,2.218,25.344-3.389,56.4-11.81,88.734-24.881s60.525-28.6,81.106-43.775c-.034-.979-.087-1.959-.151-2.94C1609.217,1003.016,1580.644,1019.1,1547.511,1032.493Z"
                              transform="translate(-1454.626 -982.913)" fill="#ceaa91"/>
                        <path id="Path_1051"
                              d="M1543.434,1025.088c-34.5,13.947-67.367,21.958-91.821,23.44q1.418,1.845,2.916,3.61c25.112-2.735,56.836-11.025,89.969-24.418s61.706-29.478,81.664-44.96q-.151-2.308-.414-4.62C1607.133,994.065,1577.933,1011.142,1543.434,1025.088Z"
                              transform="translate(-1451.613 -978.139)" fill="#544032"/>
                    </g>
                </g>
            </g>
        </g>
    </g>
</svg>
