<svg xmlns="http://www.w3.org/2000/svg" width="312.712" height="192.099" viewBox="0 0 312.712 192.099">
    <g id="Group_3812" transform="translate(-52.288 -1206.321)">
        <g id="Group_3785">
            <g id="Group_356" transform="translate(-6.797 -232.338)">
                <path id="Path_1052"
                      d="M383.6,1589.755c-.166,2.1-2.62,3.105-4.681,3.521a56.612,56.612,0,0,1-18.023.615,94.445,94.445,0,0,1,3.263-13.721q7.487,2.641,14.982,5.273C381.25,1586.187,383.774,1587.527,383.6,1589.755Z"
                      transform="translate(-156.813 -73.525)" fill="#71d3db"/>
                <path id="Path_1053"
                      d="M182.17,1619.58c0-1.017.014-2.024.051-3.032a94.428,94.428,0,0,1,1.151-12.131q.322-2.008.73-3.987c-35.763,6.578-58.774,16.849-58.774,28.392,0,12.2,25.728,22.988,65.053,29.486a94.581,94.581,0,0,1-8.211-38.729Z"
                      transform="translate(-34.417 -84.052)" fill="none"/>
                <g id="Group_354" transform="translate(119.814 1438.658)">
                    <g id="Group_352" transform="translate(0.427 1.699)">
                        <path id="Path_1054"
                              d="M376.78,1537.394a95.137,95.137,0,0,1-84.585,94.613q-3.653.409-7.38.531c-1.072.037-2.153.055-3.235.055a95.308,95.308,0,0,1-81.4-45.807c-.328-.536-.647-1.072-.961-1.613-.495-.85-.98-1.71-1.447-2.579a94.636,94.636,0,0,1-11.4-45.2c0-1.017.014-2.024.051-3.031a94.725,94.725,0,0,1,4.413-25.852c.406-1.289.841-2.56,1.3-3.822a93.509,93.509,0,0,1,4.487-10.315,95.26,95.26,0,0,1,172.492,5.569q1.615,3.764,2.907,7.685a94.448,94.448,0,0,1,3.152,12.335q.735,3.951,1.137,8.022Q376.773,1532.629,376.78,1537.394Z"
                              transform="translate(-186.38 -1442.194)" fill="#4ec8d8"/>
                        <path id="Path_1055"
                              d="M376.7,1715.745a94.339,94.339,0,0,1-5.878,9.09A165.335,165.335,0,0,1,327.6,1726.4a8.219,8.219,0,0,1,6.156,5.453l-49.158,1.234q9.018,1.747,18.032,3.489a174.435,174.435,0,0,1-74.2,1.262,95.17,95.17,0,0,1-15.925-19.714c1-.185,1.992-.375,2.99-.559l-3.951-1.054c-.495-.85-.98-1.71-1.447-2.579,12.034-1.752,24.493,1.539,36.518,4.2,13.587,3.009,28.537,5.056,40.807-1.511q-7.667-2.093-15.339-4.182,20.235-3.293,40.46-6.59-16.859-3.909-33.713-7.824a269.617,269.617,0,0,1,89.765,1.488q-5.7,2.787-11.4,5.583,6.96.721,13.929,1.451a34.492,34.492,0,0,0-14.479,4.506Q366.671,1713.4,376.7,1715.745Z"
                              transform="translate(-198.705 -1573.527)" fill="#71d3db"/>
                        <path id="Path_1056"
                              d="M363.42,1609.155a206.063,206.063,0,0,1-42.466,8.942,25.554,25.554,0,0,1,15.2,4.519c-30.76,6.932-63.692-4.233-94.128,4.012l7.63,3.965q-11.12,1.837-22.243,3.679l9.275,5.31q-23.187-1.712-46.389-3.42a95.318,95.318,0,0,1-3.914-27.114c0-1.017.014-2.024.051-3.031a205.857,205.857,0,0,1,30.783,5.111c4.437,1.091,9.09,2.329,13.5,1.128a25.514,25.514,0,0,0,6.793-3.425l21.393-13.614a84.783,84.783,0,0,1-33.81-13.531,513.3,513.3,0,0,1,91.046.938q-14.9,2.128-29.558,5.666,6.606,3.667,13.217,7.329-14.023,2.017-28.047,4.039a152.4,152.4,0,0,0,53.761,3.8,8.291,8.291,0,0,0,4.663-1.521c1.257-1.091,1.645-3.323.342-4.353-1.345-1.068-3.928-.6-4.39-2.255-.443-1.613,1.835-2.477,3.5-2.565,15.163-.823,30.4-1.641,45.562-1.146q.735,3.951,1.137,8.022a224.8,224.8,0,0,1-23.7,4.825A12.5,12.5,0,0,1,363.42,1609.155Z"
                              transform="translate(-186.38 -1513.848)" fill="#71d3db"/>
                        <path id="Path_1057"
                              d="M378.271,1548.279a176.53,176.53,0,0,1-36.19,1.576q2.377-2.607,4.746-5.213-10.973-.339-21.952-.684a3.1,3.1,0,0,1-2.357-.753c-1.368-1.622,1.465-3.568,3.591-3.508s5.083-.065,5.319-2.177a365.365,365.365,0,0,0-92.2-.06q6.613,2.648,13.227,5.291-27.028,1.3-54.07,2.588a93.509,93.509,0,0,1,4.487-10.315q12.492.367,24.974.744a4,4,0,0,1-2.468-4.654c.661-2.352,3.161-3.781,5.587-4.062s4.857.314,7.274.688a40.392,40.392,0,0,0,19.714-1.867q-5.774-2.662-11.558-5.324,33.558-.562,67.093,1.557-7.188,3.827-14.377,7.658a394.4,394.4,0,0,1,62.943,3.609l-9.469,5.393q11.39.915,22.779,1.826Q376.98,1544.357,378.271,1548.279Z"
                              transform="translate(-192.617 -1482.845)" fill="#71d3db"/>
                        <path id="Path_1058"
                              d="M487.664,1526.045c.263.051.527.1.795.148A1.165,1.165,0,0,1,487.664,1526.045Z"
                              transform="translate(-342.918 -1485.76)" fill="#71d3db"/>
                        <path id="Path_1059"
                              d="M390.622,1498.155a82.206,82.206,0,0,1-27.7-.231,2.274,2.274,0,0,0,1.257-3.193c-.892-1.419-2.773-1.761-4.432-1.974q-19.944-2.523-39.882-5.056,5.511-3.279,11.031-6.567a163.427,163.427,0,0,0-44.046-1.987c1.109,1.239,3,1.322,4.654,1.151s3.406-.5,4.912.2,2.333,3,1.035,4.034a3.616,3.616,0,0,1-2.2.541q-11.161.311-22.33.134c-8.656-.134-17.908.069-26.869-.605a95.438,95.438,0,0,1,12.279-10.149q9.982,1.747,19.964,3.48c-.841-1.969.522-4.316,2.417-5.314s4.131-1,6.271-.975c26.859.282,53.784.573,80.485,3.258a95.8,95.8,0,0,1,8.3,6.585,20.755,20.755,0,0,1-4.183,1.109c-3.914.647-8.383,1.22-10.661,4.464q11.77,1.608,23.532,3.212A94.934,94.934,0,0,1,390.622,1498.155Z"
                              transform="translate(-217.386 -1457.491)" fill="#71d3db"/>
                        <path id="Path_1060"
                              d="M416.8,1805.026c-.263-.051-.527-.1-.795-.148A1.161,1.161,0,0,1,416.8,1805.026Z"
                              transform="translate(-305.689 -1630.625)" fill="#71d3db"/>
                        <path id="Path_1061"
                              d="M397.1,1811.294a94.494,94.494,0,0,1-28.426,7.764q-3.653.409-7.38.531a22.709,22.709,0,0,1,3.221-.762c3.91-.647,8.379-1.22,10.657-4.464l-39.2-5.351c-1.007-.134-2.256-.5-2.385-1.507-.148-1.081,1.128-1.743,2.172-2.048a82.181,82.181,0,0,1,37.419-1.959,2.28,2.28,0,0,0-1.262,3.2c.9,1.414,2.773,1.756,4.436,1.969Q386.726,1809.974,397.1,1811.294Z"
                              transform="translate(-262.859 -1629.245)" fill="#71d3db"/>
                    </g>
                    <g id="Group_353" transform="translate(0)">
                        <path id="Path_1062"
                              d="M406.631,1443.416c29.988,18.046,50.387,53.649,50.387,94.613s-20.4,76.567-50.387,94.613a95.208,95.208,0,0,0,0-189.226Z"
                              transform="translate(-300.389 -1441.13)" opacity="0.08"
                              style="mix-blend-mode: multiply;isolation: isolate"/>
                        <path id="Path_1063"
                              d="M342.582,1537.394c0-40.964-20.4-76.567-50.387-94.613a95.2,95.2,0,1,0,0,189.226C322.183,1613.961,342.582,1578.358,342.582,1537.394Z"
                              transform="translate(-185.953 -1440.495)" opacity="0"/>
                        <ellipse id="Ellipse_49" cx="51.913" cy="38.279" rx="51.913" ry="38.279"
                                 transform="translate(0 69.353) rotate(-41.911)" fill="#fff" opacity="0.15"/>
                        <ellipse id="Ellipse_50" cx="29.597" cy="21.824" rx="29.597" ry="21.824"
                                 transform="translate(26.768 57.102) rotate(-41.911)" fill="#fff" opacity="0.2"/>
                        <ellipse id="Ellipse_51" cx="16.347" cy="12.054" rx="16.347" ry="12.054"
                                 transform="translate(45.758 49.488) rotate(-41.911)" fill="#fff" opacity="0.26"/>
                    </g>
                </g>
                <g id="Group_355" transform="translate(59.085 1515.048)">
                    <path id="Path_1064"
                          d="M573.352,1610.169q.45,4.644.457,9.409a94.826,94.826,0,0,1-8.214,38.73c39.328-6.5,65.057-17.281,65.057-29.487,0-11.544-23.016-21.816-58.786-28.394.117.573.242,1.143.348,1.719Q572.949,1606.1,573.352,1610.169Z"
                          transform="translate(-322.253 -1599.098)" fill="none"/>
                    <path id="Path_1065"
                          d="M634.309,1627.384c0-12.183-24.924-22.988-63.368-29.723.1.441.179.886.269,1.329,35.769,6.578,58.786,16.85,58.786,28.394,0,12.205-25.729,22.988-65.057,29.487q-.3.669-.607,1.332C606.5,1651.581,634.309,1640.251,634.309,1627.384Z"
                          transform="translate(-321.597 -1597.661)" fill="#acedef"/>
                    <path id="Path_1066"
                          d="M63.4,1627.384c0-11.543,23.012-21.814,58.774-28.392.091-.444.182-.888.279-1.331-38.443,6.736-63.367,17.54-63.367,29.723,0,12.867,27.807,24.2,69.98,30.819-.206-.443-.414-.885-.614-1.333C89.126,1650.372,63.4,1639.589,63.4,1627.384Z"
                          transform="translate(-59.085 -1597.661)" fill="#acedef"/>
                    <path id="Path_1067"
                          d="M290.459,1727.369c-32.354,0-62.341-2.392-86.989-6.465.2.447.407.889.613,1.333,24.749,3.886,54.441,6.152,86.376,6.152s61.629-2.266,86.379-6.152q.308-.663.607-1.332C352.8,1724.978,322.811,1727.369,290.459,1727.369Z"
                          transform="translate(-134.103 -1661.694)" fill="#acedef"/>
                </g>
            </g>
        </g>
    </g>
</svg>
