<svg xmlns="http://www.w3.org/2000/svg" width="229.939" height="231.471" viewBox="0 0 229.939 231.471">
    <g id="Group_3810" transform="translate(-812.707 -767.765)">
        <g id="Group_362" transform="translate(-596.998 -670.894)">
            <g id="Group_360" transform="translate(1410.22 1440.705)">
                <path id="Path_1081"
                      d="M1640.018,1556.906c0,.384-.012.769-.012,1.158a114.693,114.693,0,0,1-96.541,112.123q-2.665.426-5.368.724a114.747,114.747,0,0,1-104.616-45.256q-1.228-1.637-2.4-3.319a113.671,113.671,0,0,1-18.565-44.543c-.323-1.737-.618-3.491-.857-5.257a115.756,115.756,0,0,1-1.064-15.631c0-.729.017-1.453.028-2.183a115.126,115.126,0,0,1,1.788-18.248,114.257,114.257,0,0,1,18.977-45.439,114.754,114.754,0,0,1,190.595,4.115q1.921,3,3.664,6.12a113.945,113.945,0,0,1,12.435,34.564A115.234,115.234,0,0,1,1640.018,1556.906Z"
                      transform="translate(-1410.594 -1442.194)" fill="#edb7a9"/>
                <path id="Path_1082"
                      d="M1593.8,1532.962c-18.933,1.67-28.661-13.685-46.776-15.592-42.321-4.455-45.127,33.133-41.207,49,2.021,8.18,17.614,30.042,16.706,38.423-1.693,15.542-14.133,21.339-28.756,26.868-19.574,7.406-42.516,4.962-60.285-6.008q-1.228-1.637-2.4-3.319a113.671,113.671,0,0,1-18.565-44.543c-.323-1.737-.618-3.491-.857-5.257a115.756,115.756,0,0,1-1.064-15.631c0-.729.017-1.453.028-2.183a115.126,115.126,0,0,1,1.788-18.248,114.257,114.257,0,0,1,18.977-45.439,114.658,114.658,0,0,1,173.872-16.377,46.017,46.017,0,0,1,3.208,11.21C1611.106,1503.376,1611.432,1531.406,1593.8,1532.962Z"
                      transform="translate(-1410.594 -1442.194)" fill="#d69078"/>
                <path id="Path_1083"
                      d="M1462.389,1612.971c5.961.587,11.984-.125,17.957.317s12.228,2.277,16.093,6.853c4.276,5.063,4.71,12.241,7.2,18.384,3.993,9.866,13.594,17.97,13.142,28.6-.3,7.1-5.373,13.34-11.58,16.8s-13.426,4.588-20.5,5.253c-9,.846-18.19,1.031-26.944-1.209s-17.1-7.138-22.013-14.722c-4.37-6.746-5.7-14.956-6.933-22.9q-3.157-20.351-6.315-40.7c-.559-3.607-1.1-7.417.249-10.81,4.591-11.556,11.892.008,16.249,3.846A41.962,41.962,0,0,0,1462.389,1612.971Z"
                      transform="translate(-1415.353 -1506.052)" fill="#d8775d"/>
                <path id="Path_1084"
                      d="M1581.468,1455.233c9.252,3.392,17.187,9.548,24.957,15.61,5.823,4.543,11.724,9.166,16.1,15.116,4.494,6.11,6.984,15.16,2.107,20.968-4.2,5-12.075,5.169-18.1,2.649s-10.908-7.11-16.372-10.69a55.653,55.653,0,0,0-49.644-5.3c-8.66,3.332-16.449,8.855-25.41,11.269s-20.2.588-24.681-7.537c-9.754-17.677,14.8-30.252,27.806-34.861C1538.231,1455.367,1560.456,1447.53,1581.468,1455.233Z"
                      transform="translate(-1443.27 -1446.346)" fill="#e2a291"/>
            </g>
            <g id="Group_361" transform="translate(1409.705 1438.658)">
                <path id="Path_1085"
                      d="M1630.846,1443.416c36.134,21.745,60.714,64.645,60.714,114s-24.579,92.26-60.714,114.005a114.721,114.721,0,0,0,0-228.01Z"
                      transform="translate(-1502.828 -1440.662)" opacity="0.08"
                      style="mix-blend-mode: multiply;isolation: isolate"/>
                <path id="Path_1086"
                      d="M1598.811,1556.906c0-49.36-24.579-92.259-60.714-114a114.712,114.712,0,1,0,0,228.01C1574.231,1649.166,1598.811,1606.266,1598.811,1556.906Z"
                      transform="translate(-1410.079 -1440.147)" opacity="0"/>
                <ellipse id="Ellipse_55" cx="62.552" cy="46.124" rx="62.552" ry="46.124"
                         transform="translate(0 83.567) rotate(-41.911)" fill="#fff" opacity="0.25"/>
                <ellipse id="Ellipse_56" cx="35.664" cy="26.297" rx="35.664" ry="26.297"
                         transform="translate(32.255 68.805) rotate(-41.911)" fill="#fff" opacity="0.3"/>
                <ellipse id="Ellipse_57" cx="19.697" cy="14.524" rx="19.697" ry="14.524"
                         transform="translate(55.137 59.631) rotate(-41.911)" fill="#fff" opacity="0.4"/>
            </g>
        </g>
    </g>
</svg>
