<svg xmlns="http://www.w3.org/2000/svg" viewBox="2.5 0 142 203.112">
    <g transform="scale(-1, 1) translate(-147)">
        <g id="Group_302" transform="translate(1843.399 -4924.449)">
            <g id="Group_205" transform="translate(-1764.531 5013.402)">
                <g id="Group_199" transform="translate(1.069 1.069)">
                    <path id="Path_674"
                          d="M-540.252,6392.627c-3.317,4.711-7.953,2.072-10.1-6.693a109.217,109.217,0,0,1-39.2-19.985l7.33-18q1.4-5.726,2.8-11.454l35.6,29.94a3.293,3.293,0,0,0,1.981.907c10.247.949,15.383,5.29,15.527,11.6a19.368,19.368,0,0,1-2.861,9.66,13.017,13.017,0,0,1-5.309,5.233C-536.963,6395.126-539,6395.056-540.252,6392.627Z"
                          transform="translate(589.549 -6336.493)" fill="#fff"/>
                </g>
                <g id="Group_200" transform="translate(1.069 15.28)">
                    <path id="Path_675"
                          d="M-540.252,6601.315c-3.317,4.71-7.953,2.071-10.1-6.694a109.222,109.222,0,0,1-39.2-19.984l6.208-15.246a15.958,15.958,0,0,1,2.967.669c.938.309,2.024,1.128,1.829,2,4.868,9.4,11.3,18.692,20.934,23.074,3.472,1.58,7.75,2.95,8.895,6.593a15.241,15.241,0,0,1,.339,4.286,6.088,6.088,0,0,0,1.228,4.039c.965,1.066,2.88,1.352,3.792.238a6.6,6.6,0,0,0,.757-1.578c.8-1.778,3.306-2.878,4.762-1.582.38.338.642.794,1.031,1.122,1.477,1.246,3.73.066,5.1-1.3a20.54,20.54,0,0,0,5.353-9.365c.013.015.03.03.042.045a19.375,19.375,0,0,1-2.861,9.661,13.026,13.026,0,0,1-5.309,5.233C-536.963,6603.814-539,6603.744-540.252,6601.315Z"
                          transform="translate(589.549 -6559.392)" fill="#d3e4ef"/>
                </g>
                <g id="Group_201" transform="translate(0 0)">
                    <path id="Path_676"
                          d="M-606.227,6350.658a1.071,1.071,0,0,1-.005-.819l7.3-17.929,2.78-11.377a1.068,1.068,0,0,1,.705-.762,1.069,1.069,0,0,1,1.02.2l35.6,29.939c.019.016.037.032.055.049a2.227,2.227,0,0,0,1.336.612c7.708.715,12.984,3.373,15.257,7.687,2.13,4.04,1.52,9.281-1.756,15.161a14.01,14.01,0,0,1-5.749,5.662,5.931,5.931,0,0,1-4.565.763,4.037,4.037,0,0,1-1.775-1.16,4.71,4.71,0,0,1-4.275,1.541c-2.822-.536-5.219-3.85-6.625-9.129a109.765,109.765,0,0,1-38.976-20.011A1.066,1.066,0,0,1-606.227,6350.658Zm11.743-27.944-2.391,9.783a1.03,1.03,0,0,1-.048.149l-7.025,17.252a107.423,107.423,0,0,0,38.184,19.3,1.067,1.067,0,0,1,.757.778c1.359,5.55,3.527,7.848,5.1,8.147,1.317.25,2.405-.85,3.086-1.816a1.067,1.067,0,0,1,.946-.45,1.069,1.069,0,0,1,.876.576,2.509,2.509,0,0,0,1.39,1.373,4.068,4.068,0,0,0,2.933-.622,11.879,11.879,0,0,0,4.869-4.807c2.907-5.217,3.508-9.756,1.732-13.121-1.919-3.643-6.609-5.91-13.562-6.554a4.374,4.374,0,0,1-2.6-1.177Z"
                          transform="translate(606.31 -6319.718)" fill="#371a45"/>
                </g>
                <g id="Group_202" transform="translate(49.027 52.562)">
                    <path id="Path_677"
                          d="M163.443,7149.749a8.263,8.263,0,0,1-.635-4.688,1.069,1.069,0,1,1,2.107.36,6.267,6.267,0,0,0,.615,3.766,1.068,1.068,0,1,1-1.944.886Q163.511,7149.91,163.443,7149.749Z"
                          transform="translate(-162.7 -7144.171)" fill="#371a45"/>
                </g>
                <g id="Group_203" transform="translate(47.818 52.171)">
                    <path id="Path_678"
                          d="M148.834,7139.676c-1.852-.183-3.4-.437-5.094.484.051-2.627,4.367-2.854,5.094-.484Z"
                          transform="translate(-143.74 -7138.035)" fill="#371a45"/>
                </g>
                <g id="Group_204" transform="translate(22.151 21.613)">
                    <path id="Path_679"
                          d="M-258.8,6681.64a.9.9,0,0,1-.069-.326c-.236-10.559,6.931-21.955,14.2-22.58a.891.891,0,0,1,.965.812.891.891,0,0,1-.81.965c-2.857.245-6.065,2.792-8.581,6.81a25.97,25.97,0,0,0-3.995,13.955.89.89,0,0,1-.871.91A.893.893,0,0,1-258.8,6681.64Z"
                          transform="translate(258.87 -6658.73)" fill="#371a45"/>
                </g>
            </g>
            <g id="Group_218" transform="translate(-1828.694 5018.169)">
                <g id="Group_206" transform="translate(2.667 1.068)">
                    <path id="Path_680"
                          d="M-1537.772,6411.242s-28.02,2.352-30.72,9.389c-5.494,14.32-.676,43.637,5.369,49.323,7.356,6.919,37.691,2.066,37.691,2.066Z"
                          transform="translate(1570.899 -6411.242)" fill="#fff"/>
                </g>
                <g id="Group_207" transform="translate(2.668 1.069)">
                    <path id="Path_681"
                          d="M-1525.428,6472.024s-30.335,4.854-37.69-2.066c-2.222-2.09-4.278-7.375-5.719-13.931-2.476-11.28-3.125-26.334.349-35.392,2.7-7.038,30.721-9.388,30.721-9.388l7.865,38.742Z"
                          transform="translate(1570.895 -6411.248)" fill="#fff"/>
                </g>
                <g id="Group_208" transform="translate(2.668 1.069)">
                    <path id="Path_682"
                          d="M-1525.428,6472.024s-30.335,4.854-37.69-2.066c-2.222-2.09-4.278-7.375-5.719-13.931-2.476-11.28-3.125-26.334.349-35.392.631-1.65,2.656-3.04,5.385-4.206,8.912-3.8,25.336-5.183,25.336-5.183l.736,3.625,7.129,35.117Z"
                          transform="translate(1570.895 -6411.248)" fill="#fff"/>
                </g>
                <g id="Group_209" transform="translate(10.459 1.069)">
                    <path id="Path_683"
                          d="M-1422.606,6414.873c-12.758,3.218-21.444,2.5-26.072,1.558,8.912-3.8,25.336-5.183,25.336-5.183Z"
                          transform="translate(1448.678 -6411.248)" fill="#d3e4ef"/>
                </g>
                <g id="Group_210" transform="translate(4.726 39.81)">
                    <path id="Path_684"
                          d="M-1495.2,7040.965s-30.335,4.854-37.69-2.066c-2.222-2.09-4.278-7.375-5.719-13.931l38.935-6.038Z"
                          transform="translate(1538.612 -7018.93)" fill="#d3e4ef"/>
                </g>
                <g id="Group_211" transform="translate(1.585)">
                    <path id="Path_685"
                          d="M-1561.558,6459.05c-7.463,0-14.882-.9-18.188-4.007-3.1-2.916-5.98-11.577-7.339-22.064-1.475-11.391-.854-21.749,1.7-28.418,2.857-7.448,28.692-9.825,31.629-10.071a1.07,1.07,0,0,1,1.138.852l12.34,60.777a1.068,1.068,0,0,1-.169.821,1.07,1.07,0,0,1-.71.446A145.959,145.959,0,0,1-1561.558,6459.05Zm7.037-62.349c-10.637.991-27.125,4.091-28.863,8.623-5.375,14.013-.478,42.913,5.1,48.164,5.483,5.158,26.639,3.29,35.686,1.957Z"
                          transform="translate(1587.871 -6394.485)" fill="#371a45"/>
                </g>
                <g id="Group_212" transform="translate(1.072 34.139)">
                    <path id="Path_686"
                          d="M-1595.063,6932.406c1.527-1.488,12.228-2.431,12.228-2.431a2.613,2.613,0,0,1,2.541,1.941c1.116,4.211,3.186,14.06-.708,17.679-3.233,3-8.2,2.252-11.073-.024-2.242-1.777-3.026-5.4-3.451-9.053C-1595.987,6936.562-1596.255,6933.568-1595.063,6932.406Z"
                          transform="translate(1595.916 -6929.976)" fill="#fff"/>
                </g>
                <g id="Group_213" transform="translate(1.072 34.14)">
                    <path id="Path_687"
                          d="M-1595.529,6940.524a25.628,25.628,0,0,0,1.1,5.376,7.8,7.8,0,0,0,2.354,3.674c2.873,2.277,7.84,3.03,11.073.025,3.054-2.839,2.44-9.516,1.494-14.291a.01.01,0,0,1,0-.007c-.259-1.309-.545-2.476-.784-3.381a2.61,2.61,0,0,0-2.542-1.941s-10.7.94-12.229,2.431C-1596.255,6933.572-1595.989,6936.567-1595.529,6940.524Z"
                          transform="translate(1595.918 -6929.98)" fill="#fff"/>
                </g>
                <g id="Group_214" transform="translate(2.56 39.469)">
                    <path id="Path_688"
                          d="M-1572.583,7024.16a7.8,7.8,0,0,0,2.354,3.674c2.873,2.277,7.84,3.03,11.073.024,3.054-2.839,2.439-9.515,1.494-14.29-.006.2-.1,5.254-1.755,5.007-1.3-.191-2.273-2.71-2.333-2.859,0,.329-.117,10.306-5.538,10.236A8.053,8.053,0,0,1-1572.583,7024.16Z"
                          transform="translate(1572.583 -7013.568)" fill="#d3e4ef"/>
                </g>
                <g id="Group_215" transform="translate(0 33.071)">
                    <path id="Path_689"
                          d="M-1601.989,6936.947a10.672,10.672,0,0,1-6.5-2.228c-2.634-2.087-3.423-6.107-3.849-9.766-.536-4.605-.751-7.509.778-9h0c1.67-1.628,10.281-2.5,12.881-2.73.036,0,.071,0,.107,0a3.683,3.683,0,0,1,3.562,2.737c1.413,5.332,3.161,14.854-1.013,18.733A8.628,8.628,0,0,1-1601.989,6936.947Zm-8.075-19.465c-.887.866-.459,4.541-.147,7.224.353,3.036,1.019,6.727,3.054,8.338,2.591,2.054,6.92,2.645,9.679.08,2.416-2.246,2.567-8.46.4-16.623a1.545,1.545,0,0,0-1.463-1.146C-1603.484,6915.793-1609.281,6916.75-1610.064,6917.482Z"
                          transform="translate(1612.736 -6913.218)" fill="#371a45"/>
                </g>
                <g id="Group_216" transform="translate(7.109 39.267)">
                    <path id="Path_690"
                          d="M-1499.93,7025.487c2.781.2,4.27-3.385,4.672-5.778a23.817,23.817,0,0,0,.3-4.637,17.737,17.737,0,0,0-.569-4.663,17.984,17.984,0,0,1,1.123,4.621,23.593,23.593,0,0,1,.23,4.812c-.13,3.325-2.029,7.935-6.065,7.763a1.073,1.073,0,1,1,.311-2.118Z"
                          transform="translate(1501.232 -7010.409)" fill="#371a45"/>
                </g>
                <g id="Group_217" transform="translate(8.576 7.334)">
                    <path id="Path_691"
                          d="M-1465.513,6511.649a35.611,35.611,0,0,0-9.5-.268c-1.073.1-2.138.268-3.206.457a39.081,39.081,0,0,1,6.31-1.706,38.205,38.205,0,0,1,4.935-.579c.565-.024,1.1-.044,1.712-.025a1.073,1.073,0,0,1,1.041,1.1,1.077,1.077,0,0,1-1.292,1.018Z"
                          transform="translate(1478.22 -6509.52)" fill="#371a45"/>
                </g>
            </g>
            <g id="Group_224" transform="translate(-1763.658 5069.106)">
                <g id="Group_219" transform="translate(0.965 0.964)">
                    <path id="Path_692"
                          d="M-524.942,7260.5c0,.006,0,.012-.006.018a4.268,4.268,0,0,1-4.107,3H-554.8a4.815,4.815,0,0,1-4.706-3.767c-.868-3.9-.336-10.082-1.164-16.073a69.6,69.6,0,0,0-16.808-12.514l31.172-22.586c.682.9,1.348,1.789,2,2.686,6.668,9.156,11.784,18.816,12.359,39.307v.018c0,.037,0,.073,0,.11q.211.069.413.147c.043.015.086.03.128.048C-526.745,7252.68-523.876,7256.892-524.942,7260.5Z"
                          transform="translate(577.476 -7208.581)" fill="#fff"/>
                </g>
                <g id="Group_220" transform="translate(0.965 0.964)">
                    <path id="Path_693"
                          d="M-524.942,7260.5c0,.006,0,.012-.006.018a4.268,4.268,0,0,1-4.107,3H-554.8a4.815,4.815,0,0,1-4.706-3.767c-.868-3.9-.336-10.082-1.164-16.073a69.6,69.6,0,0,0-16.808-12.514l31.172-22.586c.682.9,1.348,1.789,2,2.686l-.034.171a20.547,20.547,0,0,1-4.468,13.39c-1.815,2.262-4.159,4.215-5.153,6.938a16.163,16.163,0,0,0-.547,6.278q.17,3.791.336,7.585c.107,2.368.321,4.987,2.035,6.626,1.788,1.706,4.639,1.728,7,.985s4.48-2.106,6.827-2.894a7.939,7.939,0,0,1,6.36.226c.021.012.043.025.064.04-.021-.009-.043-.015-.064-.021a3.676,3.676,0,0,0-2.051.193,57.675,57.675,0,0,0-11.827,5.424,3.028,3.028,0,0,0-1.4,1.352,2.1,2.1,0,0,0,1.057,2.4,6.094,6.094,0,0,0,2.763.619q7.312.445,14.638.388c1.351-.009,2.864-.1,3.771-1.1A4.443,4.443,0,0,1-524.942,7260.5Z"
                          transform="translate(577.476 -7208.581)" fill="#d3e4ef"/>
                </g>
                <g id="Group_221" transform="translate(0 0)">
                    <path id="Path_694"
                          d="M-543.234,7250.324h-25.742a5.749,5.749,0,0,1-5.648-4.521,44.419,44.419,0,0,1-.629-7.733,80.035,80.035,0,0,0-.507-8.1,69.165,69.165,0,0,0-16.356-12.113.963.963,0,0,1-.5-.784.964.964,0,0,1,.4-.842l31.172-22.586a.966.966,0,0,1,1.336.2c7.8,10.282,13.83,19.929,14.54,42.021,5.094,1.98,8.2,6.7,6.973,10.776A5.261,5.261,0,0,1-543.234,7250.324Zm-46.629-33.425a69.943,69.943,0,0,1,15.711,11.95.964.964,0,0,1,.263.539,79.882,79.882,0,0,1,.567,8.627,43.318,43.318,0,0,0,.583,7.369,3.829,3.829,0,0,0,3.764,3.011h25.742a3.319,3.319,0,0,0,3.184-2.315c.978-3.26-1.882-7.13-6.374-8.625a.964.964,0,0,1-.66-.889c-.58-21.438-6.213-30.982-13.6-40.811Z"
                          transform="translate(592.62 -7193.455)" fill="#371a45"/>
                </g>
                <g id="Group_222" transform="translate(39.166 41.983)">
                    <path id="Path_695"
                          d="M30.081,7854.521a10.967,10.967,0,0,0-6.209.049,12.706,12.706,0,0,0-2.153.943,6.689,6.689,0,0,1,1.627-1.884c2.017-1.651,5.148-2.294,7.478-.889a.977.977,0,0,1-.744,1.78Z"
                          transform="translate(-21.719 -7851.969)" fill="#371a45"/>
                </g>
                <g id="Group_223" transform="translate(16.434 31.117)">
                    <path id="Path_696"
                          d="M-322.647,7688.677A34.378,34.378,0,0,1-334.242,7687a.964.964,0,0,1-.542-1.252.966.966,0,0,1,1.253-.541c6.907,2.734,24.283,1.984,27.054-3.162a.965.965,0,0,1,1.307-.392.963.963,0,0,1,.393,1.306c-2.126,3.95-9.332,5.157-13.438,5.526C-319.681,7688.612-321.175,7688.677-322.647,7688.677Z"
                          transform="translate(334.852 -7681.534)" fill="#371a45"/>
                </g>
            </g>
            <g id="Group_231" transform="translate(-1817.076 5012.895)">
                <g id="Group_225" transform="translate(1.01 1.015)">
                    <path id="Path_697"
                          d="M-1343.377,6403.842a41.532,41.532,0,0,1-14.058,3.543h-.015q-2.975.271-6.292.25a69.073,69.073,0,0,1-9.33,10.8,14.1,14.1,0,0,0-3.606,5.351c-1.837,4.9-3.163,9.5-4.99,13.061a6.324,6.324,0,0,1-5.626,3.449h-21.664a5.65,5.65,0,0,1-5.712-5.531c0-2.79,1.864-5.778,5.394-7.289,6.977-12.093,9.779-26.86,13.141-37.237-2.155-11.351-.963-21.946-.306-32.659l1.051-3.617,6.589-22.632,35.45-3.663,8.251,7.936C-1326.1,6359.575-1319.781,6392.738-1343.377,6403.842Z"
                          transform="translate(1414.672 -6327.667)" fill="#fff"/>
                </g>
                <g id="Group_226" transform="translate(1.01 6.246)">
                    <path id="Path_698"
                          d="M-1328.271,6452.809a8.384,8.384,0,0,1-4.251,5.094,22.228,22.228,0,0,1-6.485,2.063,139.11,139.11,0,0,1-19.907,2.5c-2.9.153-6.011.284-8.325,2.036-2.753,2.087-3.557,6.147-2.332,9.376a12.216,12.216,0,0,0,7.411,6.788,23.83,23.83,0,0,0,10.244.955,45.886,45.886,0,0,0,10.935-2.356,27.546,27.546,0,0,1-2.4,1.4,32.752,32.752,0,0,1-14.058,3.544h-.015a37.179,37.179,0,0,1-5.217-.2,29.187,29.187,0,0,1-6-1.245c-4.1-1.352-7.744-3.828-11.805-5.283s-9.012-1.694-12.3,1.1c-1.9,1.611-2.955,3.983-3.945,6.27q-2.219,5.118-4.437,10.234c-1.018,2.347-4.4,6.26-.522,6.959a8.533,8.533,0,0,1,5.751,4,10.638,10.638,0,0,0-7.133-3.192,7.477,7.477,0,0,0-6.659,3.69,5.786,5.786,0,0,0,1.446,7.194,10.131,10.131,0,0,0,4.725,1.447l12.753,1.685c-1.021.052-2.042.137-3.056.256h-15.109a5.65,5.65,0,0,1-5.712-5.53c0-2.79,1.864-5.778,5.394-7.289,6.977-12.093,9.779-26.86,13.141-37.237-2.155-11.352-.963-21.945-.306-32.659l1.051-3.617a15.154,15.154,0,0,0,6.528-3.8c3.918-4.365,3.178-12,7.989-15.362a13.356,13.356,0,0,1,7.044-1.9c-1.727,1.832-3.74,2.106-4.969,4.683a8.842,8.842,0,0,0-.333,7.13c1.369,3.281,4.551,5.429,6.482,8.415a58.679,58.679,0,0,1,2.9,6.041c3.493,7.036,10.623,11.717,18.135,14.031S-1336.131,6452.583-1328.271,6452.809Z"
                          transform="translate(1414.672 -6409.726)" fill="#d3e4ef"/>
                </g>
                <g id="Group_227" transform="translate(0 0)">
                    <path id="Path_699"
                          d="M-1359.927,6320.7c6.378,5.532,10.284,13.249,13.573,20.89,5.5,13.3,7.925,30.907-2.713,42.365-7.518,7.962-19.015,10.033-29.508,9.792l.837-.431a75.1,75.1,0,0,1-10.153,11.644,12.983,12.983,0,0,0-2.543,3.972c-.249.668-.628,1.665-.869,2.358a105.328,105.328,0,0,1-4.154,10.846,8.308,8.308,0,0,1-.734,1.242,7.447,7.447,0,0,1-6.37,3.028c-.843.018-2.975-.013-3.838,0-3.3.007-11.955-.006-15.35,0-.7-.017-1.931.028-2.649-.031a6.712,6.712,0,0,1-6.07-5.769c-.42-4.006,2.465-7.515,5.963-8.967l-.48.425a90.351,90.351,0,0,0,7.514-18.031c1.99-6.293,3.531-12.7,5.541-19.012l-.032.5c-2.114-10.874-1.033-22-.321-32.91a1.078,1.078,0,0,1,.038-.221l7.64-26.249a1.017,1.017,0,0,1,.871-.727l35.45-3.662a1.015,1.015,0,0,1,1.115.9,1.015,1.015,0,0,1-.906,1.114l-35.45,3.662.871-.726-7.64,26.25c-.171,4.305-.825,11-.864,16.089a78.157,78.157,0,0,0,1.192,16.1,1,1,0,0,1-.032.5c-2.964,9.44-5.1,19.2-8.872,28.4a73.981,73.981,0,0,1-4.355,9.035,1.01,1.01,0,0,1-.477.424c-2.733,1.134-5.05,3.82-4.749,6.866a4.68,4.68,0,0,0,4.5,4c.515.01,1.663.012,2.2.009,4.773,0,13.23,0,17.908,0,.68,0,1.8.025,2.421-.048a5.325,5.325,0,0,0,3.877-2.592,34.9,34.9,0,0,0,1.755-3.935c.872-2.252,1.747-4.887,2.571-7.193.28-.763.6-1.685.9-2.437a15.022,15.022,0,0,1,2.938-4.592c1.189-1.219,2.475-2.355,3.625-3.615a71.23,71.23,0,0,0,6.354-7.815,1.017,1.017,0,0,1,.84-.431c11.667-.048,25.145-3.205,31-14.288,5.692-10.869,3.227-23.975-.979-34.969-2.809-7.607-7.673-14.577-11.39-21.761Z"
                          transform="translate(1430.508 -6311.752)" fill="#371a45"/>
                </g>
                <g id="Group_228" transform="translate(3.171 98.966)">
                    <path id="Path_700"
                          d="M-1380.409,7866.579a14.171,14.171,0,0,1,14.1-1.16,7.793,7.793,0,0,1,3.451,3.259,11.984,11.984,0,0,0-8.211-2.992,14.432,14.432,0,0,0-8.2,2.331.916.916,0,0,1-1.135-1.437Z"
                          transform="translate(1380.763 -7864.074)" fill="#371a45"/>
                </g>
                <g id="Group_229" transform="translate(11.47 85.976)">
                    <path id="Path_701"
                          d="M-1229.184,7670.4a39.1,39.1,0,0,1-14.232-2.737c-2.65-1.105-6.036-3.027-7.114-5.9a1.068,1.068,0,0,1,.626-1.375,1.071,1.071,0,0,1,1.377.626c.631,1.684,2.739,3.345,5.935,4.678,6.81,2.842,16.258,3.405,21.062,1.258a1.07,1.07,0,0,1,1.413.539,1.067,1.067,0,0,1-.539,1.411A21.4,21.4,0,0,1-1229.184,7670.4Z"
                          transform="translate(1250.599 -7660.316)" fill="#371a45"/>
                </g>
                <g id="Group_230" transform="translate(40.326 76.405)">
                    <path id="Path_702"
                          d="M-783.362,7515.7a20.946,20.946,0,0,1-14.618-5.5l.879.422a32.76,32.76,0,0,0,10.977,2.99c.834.066,1.978.145,2.815.158a.964.964,0,0,1-.053,1.928Z"
                          transform="translate(797.98 -7510.199)" fill="#371a45"/>
                </g>
            </g>
            <g id="Group_254" transform="translate(-1805.153 5037.329)">
                <g id="Group_250" transform="translate(28.841 0)">
                    <g id="Group_232" transform="translate(39.533 7.432)">
                        <ellipse id="Ellipse_1" cx="5.953" cy="5.946" rx="5.953" ry="5.946" transform="translate(0)"
                                 fill="#fff"/>
                    </g>
                    <g id="Group_233" transform="translate(39.531 10.609)">
                        <path id="Path_703"
                              d="M-159.145,6863.942a5.949,5.949,0,0,1-5.693,6.195,5.955,5.955,0,0,1-6.2-5.691,5.869,5.869,0,0,1,.464-2.563,5.965,5.965,0,0,0,5.523,3.17,5.951,5.951,0,0,0,5.23-3.626A5.875,5.875,0,0,1-159.145,6863.942Z"
                              transform="translate(171.047 -6861.427)" fill="#d3e4ef"/>
                    </g>
                    <g id="Group_234" transform="translate(38.463 6.363)">
                        <path id="Path_704"
                              d="M-180.776,6808.854a7.028,7.028,0,0,1-7.013-6.717,6.963,6.963,0,0,1,1.844-5.042,6.979,6.979,0,0,1,4.874-2.263,7.025,7.025,0,0,1,7.314,6.71,6.964,6.964,0,0,1-1.844,5.042,6.985,6.985,0,0,1-4.874,2.263C-180.575,6808.852-180.676,6808.854-180.776,6808.854Zm.006-11.892c-.07,0-.139,0-.21,0a4.853,4.853,0,0,0-3.389,1.573,4.843,4.843,0,0,0-1.283,3.507,4.882,4.882,0,0,0,5.086,4.666,4.855,4.855,0,0,0,3.389-1.573,4.842,4.842,0,0,0,1.283-3.506A4.887,4.887,0,0,0-180.77,6796.962Z"
                              transform="translate(187.796 -6794.825)" fill="#371a45"/>
                    </g>
                    <g id="Group_249">
                        <g id="Group_235" transform="translate(1.07 1.07)">
                            <path id="Path_705"
                                  d="M-734.689,6740.946l-30.257,3.752a6.582,6.582,0,0,1-7.324-5.7l-2-16.081a6.58,6.58,0,0,1,4.421-7.021,6.368,6.368,0,0,1,1.285-.293l30.252-3.752a6.577,6.577,0,0,1,7.324,5.7l1.586,12.737.417,3.344A6.578,6.578,0,0,1-734.689,6740.946Z"
                                  transform="translate(774.318 -6711.801)" fill="#fff"/>
                        </g>
                        <g id="Group_236" transform="translate(1.07 5.166)">
                            <path id="Path_706"
                                  d="M-734.689,6801.1l-30.257,3.753a6.583,6.583,0,0,1-7.324-5.7l-2-16.081a6.578,6.578,0,0,1,4.421-7.021c1.86.926,3.042,1.52,3.042,1.52,3.078,12.726,7.559,18.706,23.64,16.977,6.942-.748,11.183-2.346,13.766-4.107l.417,3.345A6.578,6.578,0,0,1-734.689,6801.1Z"
                                  transform="translate(774.318 -6776.055)" fill="#d3e4ef"/>
                        </g>
                        <g id="Group_237">
                            <path id="Path_707"
                                  d="M-781.473,6730.108a7.644,7.644,0,0,1-7.571-6.686l-2-16.083a7.636,7.636,0,0,1,6.635-8.507l30.254-3.752a7.587,7.587,0,0,1,5.628,1.558,7.569,7.569,0,0,1,2.89,5.069l2,16.083a7.636,7.636,0,0,1-6.636,8.507l-30.254,3.753A7.669,7.669,0,0,1-781.473,6730.108Zm28.264-32.951a5.455,5.455,0,0,0-.681.042l-30.254,3.753a5.5,5.5,0,0,0-4.776,6.124l2,16.083a5.5,5.5,0,0,0,6.131,4.77l30.254-3.753a5.5,5.5,0,0,0,4.776-6.124l-2-16.083A5.5,5.5,0,0,0-753.21,6697.157Z"
                                  transform="translate(791.104 -6695.02)" fill="#371a45"/>
                        </g>
                        <g id="Group_238" transform="translate(1.07 4.063)">
                            <path id="Path_708"
                                  d="M-733.491,6784.638a5.852,5.852,0,0,1-1.2.269l-30.257,3.753a6.581,6.581,0,0,1-6.4-3.089,6.443,6.443,0,0,1-.916-2.61l-.891-7.144-.294-2.357-.818-6.58a6.579,6.579,0,0,1,5.706-7.315l6.538-.809a6.575,6.575,0,0,0-4.516,7.046l1.078,8.687.921,7.4a6.586,6.586,0,0,0,7.324,5.7Z"
                                  transform="translate(774.32 -6758.756)" fill="#fff"/>
                        </g>
                        <g id="Group_239" transform="translate(1.938 18.767)">
                            <path id="Path_709"
                                  d="M-720.737,7000.573a5.855,5.855,0,0,1-1.2.27l-30.257,3.752a6.575,6.575,0,0,1-7.319-5.7l-1.185-9.5c.97,1.584,2.593,3.475,4.808,3.42,1.215-.027,2.289-1.037,3.18-2.392l.921,7.4a6.586,6.586,0,0,0,7.324,5.7Z"
                                  transform="translate(760.698 -6989.395)" fill="#d3e4ef"/>
                        </g>
                        <g id="Group_240" transform="translate(0.001 3.001)">
                            <path id="Path_710"
                                  d="M-781.466,6774.181a7.583,7.583,0,0,1-4.676-1.616,7.564,7.564,0,0,1-2.889-5.07l-2-16.083a7.559,7.559,0,0,1,1.559-5.621,7.588,7.588,0,0,1,5.076-2.887l6.536-.81.459,2.078a5.493,5.493,0,0,0-3.778,5.9l2,16.083a5.443,5.443,0,0,0,2.08,3.648,5.444,5.444,0,0,0,4.047,1.123l23.731-2.946.469,2.074a7.144,7.144,0,0,1-1.413.315l-30.251,3.754A7.682,7.682,0,0,1-781.466,6774.181Zm-.294-29.451-2.372.294a5.463,5.463,0,0,0-3.652,2.08,5.439,5.439,0,0,0-1.124,4.044l2,16.084a5.445,5.445,0,0,0,2.08,3.647A5.448,5.448,0,0,0-780.78,6772l2.618-.324q-.127-.092-.252-.188a7.567,7.567,0,0,1-2.889-5.071l-2-16.082A7.605,7.605,0,0,1-781.759,6744.73Z"
                                  transform="translate(791.09 -6742.094)" fill="#371a45"/>
                        </g>
                        <g id="Group_241" transform="translate(13.281 12.503)">
                            <path id="Path_711"
                                  d="M-574.27,6896.432c.071.6-.2,5.5-.2,5.5l-3.395.4c-2.338.276-4.519-1.917-4.872-4.9s1.255-5.624,3.593-5.9l3.395-.4S-574.385,6895.462-574.27,6896.432Z"
                                  transform="translate(582.784 -6891.132)" fill="#22a7f0"/>
                        </g>
                        <g id="Group_242" transform="translate(13.281 12.503)">
                            <path id="Path_712"
                                  d="M-574.27,6896.432c.071.6-.2,5.5-.2,5.5l-3.395.4c-2.338.276-4.519-1.917-4.872-4.9s1.255-5.624,3.593-5.9l3.395-.4S-574.385,6895.462-574.27,6896.432Z"
                                  transform="translate(582.784 -6891.132)" fill="#2585ef"/>
                        </g>
                        <g id="Group_243" transform="translate(12.517 11.852)">
                            <path id="Path_713"
                                  d="M-589.48,6893.56c-2.563,0-4.859-2.4-5.238-5.6a7,7,0,0,1,.893-4.451,4.581,4.581,0,0,1,3.368-2.3l2.37-.28a2,2,0,0,1,2.151,1.4,38.851,38.851,0,0,1,1.2,4.444h0a40.985,40.985,0,0,1-.139,4.585,1.994,1.994,0,0,1-1.764,1.883l-2.358.279A4.139,4.139,0,0,1-589.48,6893.56Zm1.63-11.111a.442.442,0,0,0-.056,0l-2.37.28a3.089,3.089,0,0,0-2.242,1.574,5.469,5.469,0,0,0-.681,3.478c.3,2.559,2.111,4.456,4.024,4.23l2.358-.278a.472.472,0,0,0,.418-.445c.186-3.687.156-4.252.148-4.329a42.4,42.4,0,0,0-1.144-4.179A.474.474,0,0,0-587.849,6882.449Z"
                                  transform="translate(594.771 -6880.923)" fill="#371a45"/>
                        </g>
                        <g id="Group_244" transform="translate(16.082 11.999)">
                            <ellipse id="Ellipse_2" cx="4.262" cy="5.437" rx="4.262" ry="5.437"
                                     transform="translate(0 1.007) rotate(-6.786)" fill="#22a7f0"/>
                        </g>
                        <g id="Group_245" transform="translate(16.675 12.48)" opacity="0.6">
                            <path id="Path_714"
                                  d="M-529.5,6896.7a6.866,6.866,0,0,0,.2,1.038c.084-2.528,1.577-4.608,3.636-4.851s3.993,1.426,4.669,3.864a6.766,6.766,0,0,0-.043-1.052c-.354-2.983-2.535-5.175-4.873-4.9S-529.851,6893.713-529.5,6896.7Z"
                                  transform="translate(529.548 -6890.773)" fill="#fff"/>
                        </g>
                        <g id="Group_246" transform="translate(16.675 15.993)">
                            <path id="Path_715"
                                  d="M-529.5,6948.292c.354,2.982,2.535,5.175,4.873,4.9s3.945-2.917,3.594-5.9a6.9,6.9,0,0,0-.205-1.038,4.311,4.311,0,0,1-3.446,3.49c-2.055.243-3.99-1.426-4.668-3.86A6.656,6.656,0,0,0-529.5,6948.292Z"
                                  transform="translate(529.55 -6945.883)" fill="#2585ef"/>
                        </g>
                        <g id="Group_247" transform="translate(15.912 11.716)">
                            <path id="Path_716"
                                  d="M-536.242,6891.17a4.677,4.677,0,0,1-3.317-1.478,7,7,0,0,1-1.909-4.119,7,7,0,0,1,.893-4.45,4.581,4.581,0,0,1,3.369-2.3c2.754-.326,5.318,2.173,5.721,5.566h0c.4,3.395-1.51,6.421-4.261,6.747A4.44,4.44,0,0,1-536.242,6891.17Zm-.474-10.847a2.779,2.779,0,0,0-.311.019,3.086,3.086,0,0,0-2.242,1.574,5.469,5.469,0,0,0-.681,3.478,5.471,5.471,0,0,0,1.475,3.224,3.091,3.091,0,0,0,2.549,1.008c1.915-.227,3.227-2.493,2.923-5.053C-533.29,6882.152-534.92,6880.323-536.716,6880.323Z"
                                  transform="translate(541.522 -6878.797)" fill="#371a45"/>
                        </g>
                        <g id="Group_248" transform="translate(29.951 0.606)">
                            <path id="Path_717"
                                  d="M-319.22,6736.085a.957.957,0,0,1-.95-.85l-1.1-9.822a6.583,6.583,0,0,1,2.391-5.856,4.677,4.677,0,0,0,1.7-4.162l-1.1-9.812a.956.956,0,0,1,.845-1.056.956.956,0,0,1,1.058.844l1.1,9.812a6.581,6.581,0,0,1-2.392,5.856,4.678,4.678,0,0,0-1.7,4.162l1.1,9.822a.957.957,0,0,1-.845,1.057A1,1,0,0,1-319.22,6736.085Z"
                                  transform="translate(321.312 -6704.521)" fill="#371a45"/>
                        </g>
                    </g>
                </g>
                <g id="Group_251" transform="translate(1.07 13.826)">
                    <path id="Path_718"
                          d="M-1224.11,6911.879a8.572,8.572,0,0,0-2.6,6.006c.134,4.079,2.8,5.555,2.8,5.555s11.547,4.939,29.183-.075c0,0,4.811-7.011-1.314-10.362C-1196.044,6913-1214.755,6916.888-1224.11,6911.879Z"
                          transform="translate(1226.712 -6911.879)" fill="#fff"/>
                </g>
                <g id="Group_252" transform="translate(1.071 14.928)">
                    <path id="Path_719"
                          d="M-1226.689,6934.078c.133,4.074,2.794,5.55,2.794,5.55s11.545,4.942,29.185-.075a11.418,11.418,0,0,0,1.773-4.907c-.076.133-.126.2-.126.2-12.891,3.668-22.528,2.014-26.78.858a6.86,6.86,0,0,1-5.194-6.212c0-.04,0-.081,0-.121a1.182,1.182,0,0,1,0-.2A8.005,8.005,0,0,0-1226.689,6934.078Z"
                          transform="translate(1226.693 -6929.172)" fill="#d3e4ef"/>
                </g>
                <g id="Group_253" transform="translate(0 13.858)">
                    <path id="Path_720"
                          d="M-1225.952,6927.147a41.875,41.875,0,0,1-13.236-1.937,5.418,5.418,0,0,1-2.224-1.421,8.12,8.12,0,0,1-2.072-5.4,7.9,7.9,0,0,1,.067-1.308,5.384,5.384,0,0,1,2.431-3.8,5.658,5.658,0,0,1,4.687-.659h0c7.442,2.224,18.067.862,22.291.174a5.55,5.55,0,0,1,4.169.982,5.365,5.365,0,0,1,2.183,3.524,9.065,9.065,0,0,1-.661,4.731,5.593,5.593,0,0,1-3.852,3.371A56.966,56.966,0,0,1-1225.952,6927.147Zm-11.979-12.629a3.493,3.493,0,0,0-1.9.558,3.206,3.206,0,0,0-1.471,2.294,5.736,5.736,0,0,0-.049.951,6.024,6.024,0,0,0,1.5,4.019,3.281,3.281,0,0,0,1.346.85c2.607.893,12.172,3.539,25.807.142a3.448,3.448,0,0,0,2.378-2.077,7.237,7.237,0,0,0,.541-3.615,3.248,3.248,0,0,0-1.323-2.13,3.437,3.437,0,0,0-2.571-.605c-4.37.713-15.381,2.115-23.249-.235A3.566,3.566,0,0,0-1237.931,6914.519Z"
                          transform="translate(1243.488 -6912.382)" fill="#371a45"/>
                </g>
            </g>
            <g id="Group_271" transform="translate(-1843.399 4924.449)">
                <g id="Group_255" transform="translate(9.474 0.931)">
                    <path id="Path_721"
                          d="M-1593.1,5002.3a49.241,49.241,0,0,1-11.936,22.084,50.881,50.881,0,0,1-3.886,3.731c-.667.579-1.36,1.143-2.068,1.7a50.752,50.752,0,0,1-6.691,4.392,50.442,50.442,0,0,1-6.115,2.852,50.728,50.728,0,0,1-7.677,2.3q-1.422.3-2.85.525a50.715,50.715,0,0,1-47.473-18.286,49.154,49.154,0,0,1,8.5-69.72,50.693,50.693,0,0,1,13.578-7.532c.556-.209,1.12-.4,1.688-.587q2.273-.75,4.587-1.278a51.076,51.076,0,0,1,10.807-1.269,51.225,51.225,0,0,1,10.759,1.016q1.685.339,3.348.793a50.181,50.181,0,0,1,4.916,1.619,49.918,49.918,0,0,1,21.123,15.459A48.9,48.9,0,0,1-1593.1,5002.3Z"
                          transform="translate(1692.717 -4941.066)" fill="#fff"/>
                    <path id="Path_722"
                          d="M-1644.282,5038.61a50.841,50.841,0,0,1-39.705-18.947,48.836,48.836,0,0,1-10.459-36.524,49.389,49.389,0,0,1,18.982-33.389,50.8,50.8,0,0,1,13.615-7.552c.531-.2,1.085-.393,1.693-.589,1.512-.5,3.059-.929,4.6-1.28a51.308,51.308,0,0,1,10.837-1.272,51.325,51.325,0,0,1,10.788,1.018c1.14.23,2.269.5,3.357.8a51,51,0,0,1,4.93,1.623,50.245,50.245,0,0,1,21.18,15.5,48.9,48.9,0,0,1,9.416,42.324,49.547,49.547,0,0,1-11.969,22.145,51.281,51.281,0,0,1-3.9,3.742c-.618.537-1.3,1.093-2.073,1.7a50.937,50.937,0,0,1-6.71,4.4,50.662,50.662,0,0,1-6.132,2.859,50.93,50.93,0,0,1-7.7,2.3c-.946.2-1.908.378-2.858.528A51.41,51.41,0,0,1-1644.282,5038.61Zm.15-99.285q-.293,0-.586,0a51.048,51.048,0,0,0-10.779,1.266c-1.531.35-3.07.778-4.574,1.274-.6.195-1.155.387-1.682.585a50.573,50.573,0,0,0-13.543,7.512,49.12,49.12,0,0,0-18.878,33.206,48.566,48.566,0,0,0,10.4,36.321,50.693,50.693,0,0,0,47.345,18.237c.945-.149,1.9-.326,2.843-.525a50.641,50.641,0,0,0,7.656-2.29,50.516,50.516,0,0,0,6.1-2.844,50.707,50.707,0,0,0,6.673-4.381c.773-.605,1.448-1.16,2.063-1.693a50.866,50.866,0,0,0,3.875-3.721,49.275,49.275,0,0,0,11.9-22.023l.133.032-.133-.032a48.623,48.623,0,0,0-9.364-42.088,49.966,49.966,0,0,0-21.065-15.417,50.646,50.646,0,0,0-4.9-1.615c-1.082-.3-2.206-.562-3.339-.792A51.231,51.231,0,0,0-1644.132,4939.326Z"
                          transform="translate(1694.797 -4939.052)" fill="#371a45"/>
                </g>
                <g id="Group_256" transform="translate(9.617 38.131)">
                    <path id="Path_723"
                          d="M-1681.785,5565.873a50.706,50.706,0,0,0,47.474,18.287q1.429-.223,2.849-.525a50.7,50.7,0,0,0,7.677-2.294,50.709,50.709,0,0,0,6.115-2.852,50.581,50.581,0,0,0,6.694-4.392c.706-.557,1.4-1.12,2.068-1.7a51.258,51.258,0,0,0,3.884-3.734,49.221,49.221,0,0,0,11.937-22.085,49.209,49.209,0,0,0,1.347-13.567,49.223,49.223,0,0,1-11.653,20.973,50.086,50.086,0,0,1-3.884,3.733c-.666.579-1.359,1.141-2.068,1.7a50.906,50.906,0,0,1-6.69,4.393,51.033,51.033,0,0,1-6.115,2.851,50.869,50.869,0,0,1-7.677,2.295q-1.424.3-2.852.525a50.705,50.705,0,0,1-47.474-18.288,48.831,48.831,0,0,1-10.732-28.645A48.892,48.892,0,0,0-1681.785,5565.873Z"
                          transform="translate(1692.559 -5522.548)" fill="#d3e4ef"/>
                </g>
                <g id="Group_257" transform="translate(8.556 0.014)">
                    <path id="Path_724"
                          d="M-1657.768,5026.064a51.758,51.758,0,0,1-40.424-19.292,49.747,49.747,0,0,1-10.653-37.2,50.3,50.3,0,0,1,19.331-34,51.72,51.72,0,0,1,13.861-7.688c.537-.2,1.105-.4,1.728-.6,1.533-.505,3.108-.944,4.676-1.3a52.207,52.207,0,0,1,11.031-1.3,52.357,52.357,0,0,1,10.98,1.036c1.159.234,2.309.507,3.418.811a51.788,51.788,0,0,1,5.02,1.652,51.163,51.163,0,0,1,21.565,15.784,49.805,49.805,0,0,1,9.591,43.111,50.468,50.468,0,0,1-12.191,22.556,51.992,51.992,0,0,1-3.967,3.81c-.628.545-1.318,1.111-2.107,1.729a51.911,51.911,0,0,1-6.835,4.487,51.682,51.682,0,0,1-6.241,2.911,51.9,51.9,0,0,1-7.837,2.344c-.965.2-1.942.385-2.908.537A52.28,52.28,0,0,1-1657.768,5026.064Zm.149-99.284-.575,0a50.186,50.186,0,0,0-10.585,1.243c-1.5.343-3.013.764-4.49,1.25-.6.192-1.133.378-1.646.573a49.643,49.643,0,0,0-13.3,7.378,48.208,48.208,0,0,0-18.529,32.589,47.654,47.654,0,0,0,10.207,35.64,49.773,49.773,0,0,0,46.486,17.9c.927-.146,1.868-.32,2.794-.516a49.8,49.8,0,0,0,7.513-2.248,49.63,49.63,0,0,0,5.988-2.792,49.922,49.922,0,0,0,6.554-4.3c.757-.594,1.42-1.138,2.024-1.661a50.049,50.049,0,0,0,3.807-3.656,48.357,48.357,0,0,0,11.681-21.612,47.713,47.713,0,0,0-9.189-41.3,49.056,49.056,0,0,0-20.678-15.134,49.7,49.7,0,0,0-4.816-1.585c-1.062-.291-2.165-.552-3.278-.777A50.292,50.292,0,0,0-1657.619,4926.78Zm48.949,60.042h0Z"
                          transform="translate(1709.202 -4924.672)" fill="#371a45"/>
                </g>
                <g id="Group_258" transform="translate(8.541)">
                    <path id="Path_725"
                          d="M-1657.98,5025.87a51.773,51.773,0,0,1-40.435-19.3,49.762,49.762,0,0,1-10.656-37.215,50.316,50.316,0,0,1,19.336-34.016,51.764,51.764,0,0,1,13.865-7.69c.537-.2,1.105-.4,1.729-.6,1.534-.505,3.109-.944,4.677-1.3a52.239,52.239,0,0,1,11.034-1.3,52.553,52.553,0,0,1,10.983,1.037c1.16.234,2.31.507,3.419.811a51.685,51.685,0,0,1,5.021,1.653,51.178,51.178,0,0,1,21.571,15.789,49.818,49.818,0,0,1,9.594,43.124,50.48,50.48,0,0,1-12.195,22.563,52.014,52.014,0,0,1-3.968,3.81c-.628.545-1.318,1.112-2.107,1.73a51.955,51.955,0,0,1-6.837,4.488,51.546,51.546,0,0,1-6.243,2.911,51.915,51.915,0,0,1-7.839,2.345c-.965.2-1.943.385-2.909.537A52.309,52.309,0,0,1-1657.98,5025.87Zm.149-99.285c-.192,0-.383,0-.575,0a50.124,50.124,0,0,0-10.582,1.243c-1.5.342-3.012.763-4.489,1.25-.6.192-1.132.379-1.645.573a49.618,49.618,0,0,0-13.3,7.376,48.192,48.192,0,0,0-18.523,32.579,47.64,47.64,0,0,0,10.2,35.63,49.764,49.764,0,0,0,46.473,17.9c.927-.146,1.868-.319,2.793-.516a49.7,49.7,0,0,0,7.511-2.247,49.434,49.434,0,0,0,5.986-2.792,49.764,49.764,0,0,0,6.552-4.3c.756-.593,1.419-1.137,2.023-1.661a49.84,49.84,0,0,0,3.806-3.655,48.34,48.34,0,0,0,11.677-21.605l1.04.251-1.04-.251a47.7,47.7,0,0,0-9.186-41.288,49.038,49.038,0,0,0-20.672-15.129,49.63,49.63,0,0,0-4.815-1.585c-1.061-.291-2.164-.552-3.277-.777A50.26,50.26,0,0,0-1657.831,4926.585Z"
                          transform="translate(1709.428 -4924.449)" fill="#371a45"/>
                </g>
                <g id="Group_259" transform="translate(25.509 9.122)">
                    <path id="Path_726"
                          d="M-1364.294,5132.469c-23.182,27.214-65.812,23.565-77.1-9.748-7.677-22.665,8.955-47.611,31.556-53.522,16.449-4.3,34.405-1.423,48.112,21.869,0,0,4.448,11.237,3.361,19.8a112.182,112.182,0,0,1-3.612,16.707Z"
                          transform="translate(1443.287 -5067.523)" fill="#371a45"/>
                </g>
                <g id="Group_260" transform="translate(25.509 43.314)">
                    <path id="Path_727"
                          d="M-1441.375,5624.853c11.283,33.313,53.913,36.961,77.095,9.75l.47-.994c-29.892,13.874-66.221,3.712-78.267-29.76A36.834,36.834,0,0,0-1441.375,5624.853Z"
                          transform="translate(1443.273 -5603.848)" fill="#220f2d"/>
                </g>
                <g id="Group_261" transform="translate(19.169 2.876)">
                    <path id="Path_728"
                          d="M-1495.559,5065.031a49.206,49.206,0,0,1-21.348-4.74c-11.244-5.415-19.413-14.847-23.625-27.275-3.866-11.413-2.584-24.023,3.612-35.507,6.884-12.761,19.071-22.492,32.6-26.03a50.948,50.948,0,0,1,21.179-1.343l.109.018.1.04a51.187,51.187,0,0,1,21.574,15.79,49.82,49.82,0,0,1,9.594,43.124,50.478,50.478,0,0,1-12.195,22.562,51.95,51.95,0,0,1-3.968,3.811c-.628.545-1.318,1.112-2.107,1.73a51.892,51.892,0,0,1-6.837,4.488l-.152.069A54.832,54.832,0,0,1-1495.559,5065.031Zm5.294-93.327a53.474,53.474,0,0,0-13.514,1.842c-12.965,3.391-24.65,12.728-31.258,24.977-5.911,10.957-7.142,22.963-3.469,33.809,4.023,11.873,11.813,20.876,22.527,26.036,11.419,5.5,25.319,6.015,38.152,1.417a49.871,49.871,0,0,0,6.477-4.259c.756-.593,1.42-1.138,2.023-1.662a49.848,49.848,0,0,0,3.806-3.654,48.343,48.343,0,0,0,11.678-21.605,47.7,47.7,0,0,0-9.186-41.288,49.033,49.033,0,0,0-20.569-15.089A41.71,41.71,0,0,0-1490.265,4971.7Zm37.462,57.151h0Z"
                          transform="translate(1542.721 -4969.567)" fill="#371a45"/>
                </g>
                <g id="Group_262" transform="translate(4.741 48.462)">
                    <path id="Path_729"
                          d="M-1768.537,5704.091c1.986,9.59,9.405,16.464,16.573,15.351s11.368-9.791,9.382-19.382c-.011-.06-.026-.123-.041-.184-2.04-9.495-9.415-16.273-16.532-15.167-5.537.86-9.3,6.234-9.815,13.056A22.9,22.9,0,0,0-1768.537,5704.091Z"
                          transform="translate(1769.03 -5684.591)" fill="#fff"/>
                </g>
                <g id="Group_263" transform="translate(4.741 60.468)">
                    <path id="Path_730"
                          d="M-1768.537,5880.4c1.986,9.59,9.405,16.465,16.573,15.351s11.368-9.791,9.382-19.381c-.011-.06-.026-.124-.041-.184a3.6,3.6,0,0,1-3.339,2.2c-3.029-.122-9.529-5.477-9.529-5.477s-5.849.469-13.479,1.167A22.9,22.9,0,0,0-1768.537,5880.4Z"
                          transform="translate(1769.03 -5872.91)" fill="#d3e4ef"/>
                </g>
                <g id="Group_264" transform="translate(3.595 47.326)">
                    <path id="Path_731"
                          d="M-1770.314,5704.014c-7.19,0-14.224-6.952-16.176-16.374h0c-1.215-5.869-.284-11.579,2.554-15.668a11.532,11.532,0,0,1,7.768-5.069c7.748-1.2,15.761,6.083,17.865,16.244,1.215,5.868.284,11.579-2.554,15.667a11.533,11.533,0,0,1-7.768,5.069A11.055,11.055,0,0,1-1770.314,5704.014Zm-4.131-34.967a8.888,8.888,0,0,0-1.372.106,9.309,9.309,0,0,0-6.246,4.116c-2.448,3.527-3.269,8.727-2.2,13.91,1.862,8.991,8.717,15.479,15.283,14.456a9.309,9.309,0,0,0,6.245-4.117c2.448-3.526,3.269-8.726,2.2-13.91C-1762.266,5675.243-1768.322,5669.046-1774.445,5669.046Z"
                          transform="translate(1787.011 -5666.773)" fill="#371a45"/>
                </g>
                <g id="Group_265" transform="translate(0 51.604)">
                    <ellipse id="Ellipse_3" cx="10.669" cy="14.099" rx="10.669" ry="14.099"
                             transform="translate(0 6.331) rotate(-17.259)" fill="#fff"/>
                    <path id="Path_732"
                          d="M-1779.939,5803.425a9.186,9.186,0,0,1-1.682-.159c-3.427-.638-6.625-3.137-8.774-6.854h0c-3.855-6.67-3.108-15.223,1.664-19.067a8.311,8.311,0,0,1,6.93-1.72c3.427.638,6.625,3.136,8.774,6.854,3.855,6.669,3.108,15.223-1.664,19.067A8.237,8.237,0,0,1-1779.939,5803.425Zm-10.209-7.155c2.107,3.646,5.234,6.094,8.579,6.717a8.037,8.037,0,0,0,6.7-1.661c4.668-3.76,5.384-12.151,1.6-18.7-2.107-3.646-5.234-6.094-8.58-6.716a8.034,8.034,0,0,0-6.7,1.661C-1793.22,5781.326-1793.936,5789.716-1790.148,5796.27Z"
                          transform="translate(1796.083 -5772.815)" fill="#371a45"/>
                </g>
                <g id="Group_266" transform="translate(4.228 63.873)">
                    <path id="Path_733"
                          d="M-1755.849,5934.52a16.578,16.578,0,0,0-1.65-7.8c-.8,6.059-5.553,9.428-11.065,7.607a15.073,15.073,0,0,1-8.4-8.009c-.053.382-.086.779-.1,1.184-.309,6.791,4.191,13.868,10.052,15.807S-1756.159,5941.307-1755.849,5934.52Z"
                          transform="translate(1777.087 -5926.315)" fill="#d3e4ef"/>
                </g>
                <g id="Group_267" transform="translate(2.917 52.598)">
                    <path id="Path_734"
                          d="M-1784.328,5780.041c-5.595,0-11.2-5.818-12.847-13.622h0c-1.046-4.952-.308-9.864,1.975-13.139a8.457,8.457,0,0,1,5.74-3.731c5.959-.879,12.242,5.195,14,13.537,1.046,4.953.308,9.865-1.975,13.139a8.453,8.453,0,0,1-5.74,3.731A7.941,7.941,0,0,1-1784.328,5780.041Zm-3.933-28.443a6.136,6.136,0,0,0-.886.064,6.373,6.373,0,0,0-4.3,2.839c-1.952,2.8-2.564,7.091-1.638,11.478h0c1.44,6.818,6.119,11.929,10.712,11.929a6.131,6.131,0,0,0,.886-.064,6.368,6.368,0,0,0,4.3-2.839c1.952-2.8,2.564-7.09,1.637-11.477C-1778.988,5756.708-1783.668,5751.6-1788.26,5751.6Z"
                          transform="translate(1797.64 -5749.464)" fill="#371a45"/>
                </g>
                <g id="Group_268" transform="translate(50.552 17.756)" opacity="0.5">
                    <path id="Path_735"
                          d="M-1050.423,5210.8s20.766-4.061,35.1,4.569l.045.027a19.694,19.694,0,0,1,7.137,7.481,39.558,39.558,0,0,1,3.807,9.955c2.109,8.441,1.492,12.789,1.492,12.789,3.766-5.651,5.251-11.386,3.565-18.435q-.252-1.042-.6-2.126c-.052-.167-.107-.331-.165-.5,0,0,0-.006,0-.009a48.1,48.1,0,0,0-2.481-5.3c-3.309-6.074-9.165-13.62-18.414-15.528C-1038.235,5200.165-1051.35,5210.091-1050.423,5210.8Z"
                          transform="translate(1050.47 -5202.96)" fill="#fff"/>
                </g>
                <g id="Group_269" transform="translate(35.393 41.946)" opacity="0.5">
                    <ellipse id="Ellipse_4" cx="6.935" cy="6.045" rx="6.935" ry="6.045"
                             transform="translate(0 13.864) rotate(-88.312)" fill="#fff"/>
                </g>
                <g id="Group_270" transform="translate(37.692 59.075)" opacity="0.5">
                    <ellipse id="Ellipse_5" cx="2.865" cy="2.495" rx="2.865" ry="2.495"
                             transform="translate(0 5.686) rotate(-82.933)" fill="#fff"/>
                </g>
            </g>
            <g id="Group_272" transform="translate(-1794.628 5030.544)">
                <path id="Path_736" d="M-1078.4,6588.59" transform="translate(1078.403 -6588.59)" fill="none"
                      stroke="#371a45" stroke-linecap="round" stroke-miterlimit="10" stroke-width="33.534"/>
            </g>
            <g id="Group_279" transform="translate(-1809.902 5018.879)">
                <g id="Group_273" transform="translate(1.069 1.069)">
                    <path id="Path_737"
                          d="M-1273.071,6484.786c5.745-.436,5.853-5.769-.575-12.1a109.214,109.214,0,0,0,2.918-43.9l-19.215-2.927q-5.636-1.729-11.271-3.464,3.737,22.953,7.476,45.908a3.291,3.291,0,0,1-.235,2.167c-4.434,9.286-3.337,15.921,2.009,19.278a19.371,19.371,0,0,0,9.762,2.492,13.019,13.019,0,0,0,7.214-1.878C-1272.61,6488.891-1271.629,6487.109-1273.071,6484.786Z"
                          transform="translate(1301.213 -6422.391)" fill="#fff"/>
                </g>
                <g id="Group_274" transform="translate(10.301 4.982)">
                    <path id="Path_738"
                          d="M-1137.485,6542.244c5.745-.436,5.853-5.769-.574-12.1a109.219,109.219,0,0,0,2.918-43.9l-16.273-2.479a15.944,15.944,0,0,0-.946,2.891c-.215.963-.068,2.315.777,2.593,5.582,9,10.262,19.284,9.091,29.8-.422,3.792-1.437,8.168,1.106,11.017a15.238,15.238,0,0,0,3.508,2.487,6.086,6.086,0,0,1,2.839,3.124c.421,1.375-.314,3.166-1.738,3.379a6.608,6.608,0,0,1-1.743-.158c-1.936-.225-4.166,1.364-3.8,3.279.095.5.353.958.435,1.46.313,1.907-1.854,3.237-3.725,3.712a20.53,20.53,0,0,1-10.785-.2c.006.019.011.041.017.06a19.377,19.377,0,0,0,9.762,2.492,13.019,13.019,0,0,0,7.214-1.879C-1137.024,6546.35-1136.043,6544.567-1137.485,6542.244Z"
                          transform="translate(1156.395 -6483.762)" fill="#d3e4ef"/>
                </g>
                <g id="Group_275" transform="translate(0 0)">
                    <path id="Path_739"
                          d="M-1285.562,6412.448a1.07,1.07,0,0,0-.7-.424l-19.137-2.915-11.2-3.441a1.07,1.07,0,0,0-1.016.216,1.068,1.068,0,0,0-.352.977l7.476,45.909c0,.024.009.048.014.072a2.225,2.225,0,0,1-.159,1.461c-3.335,6.986-3.755,12.878-1.214,17.041,2.378,3.9,7.192,6.06,13.919,6.259a14.007,14.007,0,0,0,7.807-2.037,5.931,5.931,0,0,0,2.994-3.529,4.038,4.038,0,0,0-.087-2.119,4.711,4.711,0,0,0,3.513-2.882c.985-2.7-.632-6.454-4.446-10.366a109.771,109.771,0,0,0,2.783-43.724A1.07,1.07,0,0,0-1285.562,6412.448Zm-30.015-4.23,9.627,2.958a1.027,1.027,0,0,0,.153.035l18.416,2.806a107.424,107.424,0,0,1-2.989,42.678,1.067,1.067,0,0,0,.28,1.049c4.07,4.011,4.933,7.049,4.383,8.555-.46,1.259-1.962,1.63-3.141,1.72a1.068,1.068,0,0,0-.871.582,1.07,1.07,0,0,0,.046,1.048,2.51,2.51,0,0,1,.467,1.9,4.069,4.069,0,0,1-2.037,2.2,11.884,11.884,0,0,1-6.623,1.72c-5.97-.177-10.176-1.986-12.156-5.235-2.145-3.514-1.689-8.7,1.319-15a4.372,4.372,0,0,0,.32-2.833Z"
                          transform="translate(1317.977 -6405.621)" fill="#371a45"/>
                </g>
                <g id="Group_276" transform="translate(25.165 60.412)">
                    <path id="Path_740"
                          d="M-918.1,7356.231a8.256,8.256,0,0,0-3.7-2.947,1.067,1.067,0,0,0-1.382.61,1.071,1.071,0,0,0,.612,1.383,6.264,6.264,0,0,1,2.919,2.457,1.072,1.072,0,0,0,1.487.271,1.068,1.068,0,0,0,.27-1.487C-917.957,7356.42-918.026,7356.325-918.1,7356.231Z"
                          transform="translate(923.25 -7353.211)" fill="#371a45"/>
                </g>
                <g id="Group_277" transform="translate(24.441 59.509)">
                    <path id="Path_741"
                          d="M-934.063,7343.45c.792-1.685,1.369-3.146,3.026-4.126-2.283-1.3-4.688,2.288-3.026,4.126Z"
                          transform="translate(934.616 -7339.046)" fill="#371a45"/>
                </g>
                <g id="Group_278" transform="translate(5.656 28.556)">
                    <path id="Path_742"
                          d="M-1202.176,6857.773a.908.908,0,0,0-.245-.228c-8.947-5.611-22.405-5.294-26.668.631a.891.891,0,0,0,.2,1.244.89.89,0,0,0,1.244-.2c1.675-2.327,5.5-3.778,10.244-3.881a25.977,25.977,0,0,1,14.031,3.719.89.89,0,0,0,1.228-.281A.892.892,0,0,0-1202.176,6857.773Z"
                          transform="translate(1229.256 -6853.528)" fill="#371a45"/>
                </g>
            </g>
        </g>
    </g>
</svg>
