<svg id="svgLogo" viewBox="119.089 238.389 764.818 384.625" xmlns="http://www.w3.org/2000/svg">
    <defs>
        <linearGradient id="linear-gradient" x1="0.5" x2="0.5" y2="1" gradientUnits="objectBoundingBox">
            <stop offset="0" stop-color="#fcde1c"/>
            <stop offset="1" stop-color="#f5bc0d"/>
        </linearGradient>
        <linearGradient id="linear-gradient-2" x1="0.5" x2="0.5" y2="1" gradientUnits="objectBoundingBox">
            <stop offset="0" stop-color="#34d0ff"/>
            <stop offset="1" stop-color="#0089fa"/>
        </linearGradient>
        <linearGradient id="gradient-24" x1="-0.43" y1="0.979" x2="-0.43" y2="-0.007" gradientUnits="objectBoundingBox">
            <stop offset="0" stop-color="#550d22"/>
            <stop offset="1" stop-color="#a54a13"/>
        </linearGradient>
        <linearGradient id="gradient-25" x1="-0.43" y1="0.979" x2="-0.43" y2="-0.006" gradientUnits="objectBoundingBox">
            <stop offset="0" stop-color="#b449b3"/>
            <stop offset="0.142" stop-color="#bb5cbb"/>
            <stop offset="0.43" stop-color="#d08ecf"/>
            <stop offset="0.835" stop-color="#f1ddf1"/>
            <stop offset="0.994" stop-color="#fff"/>
        </linearGradient>
        <linearGradient id="gradient-26" x1="-0.943" y1="0.453" x2="0.074" y2="0.453" gradientUnits="objectBoundingBox">
            <stop offset="0" stop-color="#40a99a"/>
            <stop offset="1" stop-color="#67c594"/>
        </linearGradient>
        <linearGradient id="gradient-27" x1="-8.142" y1="0.926" x2="-8.142" y2="-0.117"
                        gradientUnits="objectBoundingBox">
            <stop offset="0" stop-color="#470015"/>
            <stop offset="1" stop-color="#481624"/>
        </linearGradient>
        <linearGradient id="gradient-28" x1="-21.774" y1="0.629" x2="-21.774" y2="-0.424"
                        gradientUnits="objectBoundingBox">
            <stop offset="0" stop-color="#551c2c"/>
            <stop offset="1" stop-color="#451121"/>
        </linearGradient>
        <linearGradient id="gradient-29" x1="-3.187" y1="-1.726" x2="-2.169" y2="-1.726"
                        gradientUnits="objectBoundingBox">
            <stop offset="0" stop-color="#3b43a9"/>
            <stop offset="0.22" stop-color="#343bac"/>
            <stop offset="0.555" stop-color="#2126b4"/>
            <stop offset="0.962" stop-color="#0303c2"/>
            <stop offset="1" stop-color="#0000c4"/>
        </linearGradient>
        <linearGradient id="gradient-30" x1="-3.187" y1="-1.726" x2="-2.169" y2="-1.726"
                        gradientUnits="objectBoundingBox">
            <stop offset="0" stop-color="#3b43a9"/>
            <stop offset="0.184" stop-color="#3c49b0"/>
            <stop offset="0.466" stop-color="#3f5cc5"/>
            <stop offset="0.808" stop-color="#447be8"/>
            <stop offset="1" stop-color="#4890ff"/>
        </linearGradient>
        <g id="platform">
            <path id="path-214"
                  d="M1717.192-457.166a26.334,26.334,0,0,0,3.236,2.693c2.919,2.022,4.943,2.286,6.473,3.224.684.416,6.536,4.1,14.251,8.909l.014.007a.443.443,0,0,1,.049.029.892.892,0,0,1,.078.044c15.466,9.633,38.286,23.685,42.019,24.974,5.6,1.924,11.739,5.657,39.622,2.378,22.11-2.6,38.028-12.511,46.376-17.331a29.464,29.464,0,0,1,4.968-2.53c5.415-1.681,4.355-4.708,7.013-5.849s44.088-27.514,46.826-28.207,1.4-1.025,10.486-2.024c7.586-.833,15.8-15.016,19.436-20.367l.008-.006.008-.006a11.629,11.629,0,0,1,1.4-1.815.771.771,0,0,1,.178-.144c.411-.247.66-.475.5-.734-.634-.931-6.822-2.2-30.853-5.78h-.015c-.41-.058-.828-.117-1.245-.182-30.7-4.545-78.15-10.945-83.153-12.159s-2.175-3.276-7.425-4.581-46.3-3.879-75.6-6.842c-6.554-.659-14.222-.918-22.175-.9-27.587.041-58.676,3.268-59.266,3.786-.753.669-10.3-.463-10.3-.463s-23.769,2.389-25.228,4.559S1712.437-461.773,1717.192-457.166Z"
                  transform="translate(-0.447 -6.172)" fill-rule="evenodd" fill="url(#gradient-24)"/>
            <path id="path-215"
                  d="M1717.192-457.166a26.337,26.337,0,0,0,3.236,2.693c-3.469-5.836-9.117-16.176-12.191-26.1-4.63-14.966,4.688-14.182,33.717-6.772s61.582,8.707,69.972,8.593,23.979,2.073,11.061,14.737-17.057,10.231-25.175,18.505c-7.83,7.983-6.211,19.878-6.031,20.2-.065-.328.4-10.269,4.794-15.186,6.89-7.717,46.779-37.439,48.759-38.325s13.34-1.776,16.463,4.993,6.514,17.864-9.489,27.49-46.086,23.057-67.237,19.638c-20.168-3.255-41.806-14.527-43.778-15.564,15.466,9.633,38.286,23.685,42.019,24.974,5.6,1.924,11.739,5.657,39.622,2.378,22.11-2.6,38.028-12.511,46.376-17.331l8.959-7.189s3.021-1.191,6.6-8,14.962-30.506,8.548-21.46c-6.984,9.848-11.81,16.153-22.348,14.988-2.8-.31-7.711-18.349-6.23-18.289s-2.187-3.608,8.493-5.365,48.464-6.819,49.507-6.965,5.085.083.717,7.3-20.145,22.73-20.145,22.73a143.909,143.909,0,0,0,14.776-9.886c8.709-6.53,18.266-20.426,23.072-21.975,4.726-1.52,16.414-4.763,16.776-4.86l.008-.006.008-.006,1.4-1.815.673-.879h0l-30.853-5.78h-.015l-189.6-24.667c-27.587.041-58.676,3.268-59.266,3.786-.753.669-10.3-.463-10.3-.463s-23.769,2.389-25.228,4.559S1712.437-461.772,1717.192-457.166Z"
                  transform="translate(-0.447 -6.173)" fill-rule="evenodd" fill="url(#gradient-25)"
                  style="mix-blend-mode: multiply;isolation: isolate"/>
            <path id="path-216"
                  d="M1959.186-495.745c-2.661,3.616-49.907,13.74-103.99,12.538s-73.058-4.218-76.287-5.018,7.554-3.486-6.1-2.214-40.879-3.159-70.569-8.77-54.56-17.161-57.826-19.837,21.344-8.425,64.4-9.341,124.073,6.461,128.175,9.207-42.444.921-63.615-.476-63.23-5.088-63.23-5.088,64.38,9.163,101.271,11.838,31.9-2.016,31.9-2.016S1962.016-499.592,1959.186-495.745Z"
                  transform="translate(0 -3.614)" fill="#c9793f" fill-rule="evenodd"/>
            <path id="path-217"
                  d="M1959.99-501.844c2.411.878-21.48,8.071-29.981,8.227s-26.536-5.25-64.957-5.182-14.133,6.691-12.157,7.786-61.829-.222-64.583-.87-.921-4.494-4.16-4.687-47.521-3.7-87.923-10.2-47.509-16.737-48.878-18.3,19.947-6.3,63.348-8.12c57.011-2.4,117.223,4.351,120.935,5.436s6.244,4.28,7.333,5.3-36.321,4.036-68.094,3.445c0,0,28.256,2.067,51.151,2.593s22.241-2.237,22.241-2.237S1922.172-515.615,1959.99-501.844Z"
                  transform="translate(-1.974 -0.341)" fill-rule="evenodd" fill="url(#gradient-26)"/>
            <path id="path-218"
                  d="M2301.969-375.7s17.178-16.233,17.466-20.36-18.419,1.164-25.673,10-13.462,23.686-13.462,23.686S2301.022-374.79,2301.969-375.7Z"
                  transform="translate(-397.573 -85.471)" fill="#a03a79" fill-rule="evenodd" opacity="0.6"
                  style="mix-blend-mode: multiply;isolation: isolate"/>
            <path id="path-219"
                  d="M2115.844-314s11.933-17.2,13.256-19.236-66.141,21.675-79.167,26.827-13.787,10.716-13.787,10.716S2064.61-287.332,2115.844-314Z"
                  transform="translate(-244.989 -125.544)" fill="#a03a79" fill-rule="evenodd" opacity="0.6"
                  style="mix-blend-mode: multiply;isolation: isolate"/>
            <path id="path-220"
                  d="M1751.169-422.687s-9.687-10.091-14.084-13.073-21.486-29.4-27.943-32.957-29.193-10.365-29.193-10.365a159.27,159.27,0,0,0,30.338,27.257c17.919,12.127,31.058,26.94,32.731,26.984S1751.169-422.687,1751.169-422.687Z"
                  transform="translate(-22.386 -34.476)" fill="#a03a79" fill-rule="evenodd" opacity="0.6"
                  style="mix-blend-mode: multiply;isolation: isolate"/>
            <path id="path-221"
                  d="M1871.726-427.482c25.746,4.705,56.4,35.145,9.948,49.177-12.6,3.808-52.337-23.827-60.74-45.013S1829.734-435.156,1871.726-427.482Z"
                  transform="translate(-109.198 -61.207)" fill="#f9ae8d" fill-rule="evenodd" opacity="0.2"
                  style="mix-blend-mode: soft-light;isolation: isolate"/>
            <path id="path-222"
                  d="M2090.539-400.161c7.2-3.64,18.723,12.514,14.635,22.5s-29.382,19.924-47.153,24.344-19.582-.072-19.582-.072S2078.364-394,2090.539-400.161Z"
                  transform="translate(-246.422 -83.47)" fill="#f9ae8d" fill-rule="evenodd" opacity="0.2"
                  style="mix-blend-mode: soft-light;isolation: isolate"/>
            <path id="path-223"
                  d="M2262.814-405.537c1.8-.6-8.487,17.039-16.516,22.88s-16.252-7.048-15.647-14.591S2262.814-405.537,2262.814-405.537Z"
                  transform="translate(-366.525 -80.428)" fill="#f9ae8d" fill-rule="evenodd" opacity="0.2"
                  style="mix-blend-mode: soft-light;isolation: isolate"/>
            <path id="path-224"
                  d="M2120.029-327.624c7.556-2.864-17.888-10.974-32.385-4.1s-14.985,18.072-14.175,19.539S2092.118-317.047,2120.029-327.624Z"
                  transform="translate(-268.166 -124.883)" fill="#f9ae8d" fill-rule="evenodd" opacity="0.2"
                  style="mix-blend-mode: soft-light;isolation: isolate"/>
            <path id="path-225"
                  d="M2445.061-434.625s-12,2.562-15.883,5.991-1.575,12.823.222,12.654S2442.6-425.264,2445.061-434.625Z"
                  transform="translate(-489.289 -62.259)" fill="#f9ae8d" fill-rule="evenodd" opacity="0.2"
                  style="mix-blend-mode: soft-light;isolation: isolate"/>
            <path id="path-226"
                  d="M1914.31-395.378c1.47,1.144-12.162,6.662-17.926,9s-8.113-8.663-8.3-12.526S1908.022-400.27,1914.31-395.378Z"
                  transform="translate(-152.461 -83.401)" fill="#a03a79" fill-rule="evenodd" opacity="0.2"
                  style="mix-blend-mode: multiply;isolation: isolate"/>
            <path id="path-227"
                  d="M1843.453-432.188c2.268.719-13.223,10.494-16.022,8.357S1820.518-439.455,1843.453-432.188Z"
                  transform="translate(-113.172 -62.451)" fill="#a03a79" fill-rule="evenodd" opacity="0.2"
                  style="mix-blend-mode: multiply;isolation: isolate"/>
            <path id="path-228"
                  d="M2221.463-382.414c-2.175-3.967-4.429-2.827-5.509-2.259s2.38-9.712-1.79-16.563-7.27-7.368-7.27-7.368,9.837-.41,11.285-.484-1.4,2.359-1.742,8.08S2221.463-382.414,2221.463-382.414Z"
                  transform="translate(-351.698 -78.217)" fill="#a03a79" fill-rule="evenodd" opacity="0.8"
                  style="mix-blend-mode: multiply;isolation: isolate"/>
            <path id="path-229"
                  d="M2077.985-378.045s-9.126,8.445-16.847,13.024-10.7,3.551-16.531,8.546-4.225,12.4-4.225,12.4,8.535-12.337,13.572-15.757S2062.232-362.73,2077.985-378.045Z"
                  transform="translate(-247.51 -97.618)" fill="#a03a79" fill-rule="evenodd" opacity="0.8"
                  style="mix-blend-mode: multiply;isolation: isolate"/>
            <g id="group-10" transform="translate(1675.385 -501.679)" opacity="0.5"
               style="mix-blend-mode: soft-light;isolation: isolate">
                <path id="path-230"
                      d="M1793.58-436.076c.464-3.06,4.932,6.508,5.713,9.435S1792.709-430.331,1793.58-436.076Z"
                      transform="translate(-1768.739 440.7)" fill="#f9ab84" fill-rule="evenodd"/>
                <path id="path-231"
                      d="M1743.015-444.4c3.214,2.642,8.809,14.258,10.742,17.883s-23.342-12.695-25.982-17.983S1740.239-446.687,1743.015-444.4Z"
                      transform="translate(-1727.467 447.411)" fill="#f9ab84" fill-rule="evenodd"/>
                <path id="path-232"
                      d="M1847.958-379.178c4.693,7.05-5.132,4.169-6.439-.29S1846.811-380.9,1847.958-379.178Z"
                      transform="translate(-1798.637 406.402)" fill="#f9ab84" fill-rule="evenodd"/>
                <path id="path-233"
                      d="M2201.108-305.965c21.467-2.067,2.989,9.742-10.237,11.159S2191.98-305.087,2201.108-305.965Z"
                      transform="translate(-2013.725 359.166)" fill="#f9ab84" fill-rule="evenodd"/>
                <path id="path-234"
                      d="M2224.482-327.527c2.048.824-4,2.315-5.77,2.913S2220.273-329.221,2224.482-327.527Z"
                      transform="translate(-2034.164 372.703)" fill="#f9ab84" fill-rule="evenodd"/>
                <path id="path-235"
                      d="M2173.78-366.035c5.847.367-5.6,9.674-11.784,8.516S2167.129-366.453,2173.78-366.035Z"
                      transform="translate(-1997.906 396.566)" fill="#f9ab84" fill-rule="evenodd"/>
                <path id="path-236"
                      d="M2329.061-403.215c2.389.155-3.709,5.668-5.406,5.44S2322.751-403.624,2329.061-403.215Z"
                      transform="translate(-2099.568 419.804)" fill="#f9ab84" fill-rule="evenodd"/>
                <path id="path-237"
                      d="M2104.924-382.549c2.594.353-.092,6.409-6.949,9.432S2099.407-383.3,2104.924-382.549Z"
                      transform="translate(-1957.393 406.895)" fill="#f9ab84" fill-rule="evenodd"/>
                <path id="path-238"
                      d="M1982.688-267.209c8.814,7.869-6.546,2.834-11.048-1.384S1979.859-269.735,1982.688-267.209Z"
                      transform="translate(-1879.464 336.963)" fill="#f9ab84" fill-rule="evenodd"/>
                <path id="path-239"
                      d="M2089.485-365.669c1.328,1.372-.2,3.1-1.291,3.382S2088.891-366.283,2089.485-365.669Z"
                      transform="translate(-1952.686 396.365)" fill="#f9ab84" fill-rule="evenodd"/>
            </g>
            <path id="path-240"
                  d="M2443.779-432.864s-12.327,1.945-16.881,6.093-4.273,12.527-1.779,13.108S2435.295-418.173,2443.779-432.864Z"
                  transform="translate(-486.962 -63.359)" fill="#a03a79" fill-rule="evenodd" opacity="0.6"
                  style="mix-blend-mode: multiply;isolation: isolate"/>
            <path id="path-241"
                  d="M2061.75-340.31a141.62,141.62,0,0,1-8.4,11.654c-4.092,4.941-12,9.112-12,9.112s10.493-11.841,14.078-15.216S2061.75-340.31,2061.75-340.31Z"
                  transform="translate(-248.241 -121.201)" fill="#9f5544" fill-rule="evenodd"/>
            <path id="path-242" d="M2257.192-410.05c6.61.07-12.46,6.125-15.281,6.287s-2.828-5.895-2.828-5.895Z"
                  transform="translate(-371.815 -77.617)" fill="#974633" fill-rule="evenodd"/>
            <path id="path-243" d="M2081.152-414.759s-5.616,4.447-24.786,2.307-25.5-5.949-25.5-5.949Z"
                  transform="translate(-241.693 -72.399)" fill="#974633" fill-rule="evenodd"/>
            <path id="path-244"
                  d="M2139.2-260.089c-7.52,3.252-11.649,15.41-17.155,13.35s-11.847-.921-14.005.826,1.148,1.393,1.3,3.243-6.227,6.761-8.493,11.018a53.625,53.625,0,0,0-3.175,6.9s-2.19-6.578-1.021-11.269,5.8-2.6,5.89-5.611-3.183-2.155-4.8-3.61a5.245,5.245,0,0,1-1.354-4.018s15.3-2.145,16.969-2.825,5.937,3.033,8.937.4,2.483-4.143,2.483-4.143Z"
                  transform="translate(-282.586 -171.334)" fill-rule="evenodd" fill="url(#gradient-27)"/>
            <path id="path-246"
                  d="M2051.282-229.984c-2.329-7.471-3.336-7.521-5.434-7.622s-.6,4.154,2.17,8.138S2051.282-229.984,2051.282-229.984Z"
                  transform="translate(-250.437 -185.384)" fill="#3b1122" fill-rule="evenodd"/>
            <path id="path-247"
                  d="M1993.027-241.674c2,2.376-.8,3.256-3.937,5.295s-6.037-3-8.416-5.85S1993.027-241.674,1993.027-241.674Z"
                  transform="translate(-210.161 -181.785)" fill="#3b1122" fill-rule="evenodd"/>
            <path id="path-248"
                  d="M2176.1-444.483c5.749-2.234,40.985-1.68,59.97-.686s21.434.979,30.956.778,23.007-4.367,23.007-4.367-8.1,8.262-29.384,9.277-29.91-5.134-52.244-5.6-33,.878-33,.878Z"
                  transform="translate(-332.02 -53.426)" fill="#fb8ba1" fill-rule="evenodd"
                  style="mix-blend-mode: multiply;isolation: isolate"/>
            <path id="path-249"
                  d="M1783.774-482.678s-47.64-2.652-83.555-8.793-51.833-18.229-51.833-18.229l-.137-2.553c-.97,2.011,24.4,14.262,58.423,18.306s71.284,9.974,78.063,10.782Z"
                  transform="translate(-2.558 -13.745)" fill="#fb8ba1" fill-rule="evenodd"
                  style="mix-blend-mode: multiply;isolation: isolate"/>
            <path id="path-250"
                  d="M2079.016-429.059c1.923,1-49.356.347-53.574-.431a75.2,75.2,0,0,1-8.934-2.379s-1.419,3.839,1.189,4.46,37.974,2.377,53.8,2.418,12.347-1.427,12.347-1.427Z"
                  transform="translate(-232.476 -63.981)" fill="#fb8ba1" fill-rule="evenodd"
                  style="mix-blend-mode: multiply;isolation: isolate"/>
            <path id="path-251"
                  d="M1991.11-510.236c.349,1.633-16,3.485-40.393,2.185s-55.233-.171-56-.206,29.069,3.841,37.058,4.346,46.02-2.325,55.782-1.989,6.814-1.671,6.814-1.671Z"
                  transform="translate(-156.598 -15.006)" fill="#fb8ba1" fill-rule="evenodd"
                  style="mix-blend-mode: multiply;isolation: isolate"/>
            <path id="path-252"
                  d="M1802.249-492.587c16.241-.054-7.55-16.372-62.353-24.565s-71.055.468-72.5,1.239S1691.166-492.216,1802.249-492.587Z"
                  transform="translate(-14.508 -8.497)" fill="#91ff22" fill-rule="evenodd" opacity="0.5"
                  style="mix-blend-mode: soft-light;isolation: isolate"/>
            <path id="path-253"
                  d="M2015.113-479.319c44.637,3.017,53.013,2.718,85.25,2.323s-28.5-13.11-44.154-15.275-15.092,1.874-33.187,1.149-55.932-3.429-55.932-3.429S1985.5-481.32,2015.113-479.319Z"
                  transform="translate(-201.834 -24.808)" fill="#91ff22" fill-rule="evenodd" opacity="0.5"
                  style="mix-blend-mode: soft-light;isolation: isolate"/>
            <path id="path-254"
                  d="M1894.1-530.537c12.546,1.622-23.991,7.041-59.3,5.621s-54.732-5.646-54.732-5.646S1829.619-538.872,1894.1-530.537Z"
                  transform="translate(-84.952 0)" fill="#91ff22" fill-rule="evenodd" opacity="0.5"
                  style="mix-blend-mode: soft-light;isolation: isolate"/>
            <path id="path-255"
                  d="M2367.358-468c3.529,1.5-26.554.153-39.983-3.219s-17.662-6.3-17.662-6.3S2346.552-476.813,2367.358-468Z"
                  transform="translate(-415.954 -35.452)" fill="#5cd792" fill-rule="evenodd"
                  style="mix-blend-mode: soft-light;isolation: isolate"/>
            <path id="path-256"
                  d="M1747.307-494.195c32.4,1.231-21.3-20.121-53.866-20.081s-28.069,5.071-26.749,5.662S1696.609-496.122,1747.307-494.195Z"
                  transform="translate(-12.498 -12.377)" fill="#91ff22" fill-rule="evenodd" opacity="0.27"
                  style="mix-blend-mode: soft-light;isolation: isolate"/>
            <path id="path-257"
                  d="M2072.3-433.582c7.716-.522-4.209-5.889-24.864-5.644s-22.088,2.167-22.333,2.888S2047.009-431.868,2072.3-433.582Z"
                  transform="translate(-238.085 -59.379)" fill="#69d27b" fill-rule="evenodd"
                  style="mix-blend-mode: soft-light;isolation: isolate"/>
            <g id="group-11" transform="translate(1667.297 -523.215)">
                <path id="path-258" d="M2010.954-452.63c7.869,2.056-7.8,2.1-13.811.657S2003.719-454.52,2010.954-452.63Z"
                      transform="translate(-1886.926 472.836)" fill="#5cd792" fill-rule="evenodd"/>
                <path id="path-259"
                      d="M1967.353-453.876c1.588.554-4.282.949-4.691.728S1961.152-456.039,1967.353-453.876Z"
                      transform="translate(-1866.148 473.512)" fill="#5cd792" fill-rule="evenodd"/>
                <path id="path-260" d="M1979.7-457.179c1.47.587,1.471.887-.557.419S1978.841-457.523,1979.7-457.179Z"
                      transform="translate(-1876.072 475.145)" fill="#83d92d" fill-rule="evenodd"/>
                <path id="path-261"
                      d="M1827.976-489.613c7.051,1.952-8.977,1.975-12.869,1.679S1821.49-491.408,1827.976-489.613Z"
                      transform="translate(-1773.614 495.662)" fill="#5cd792" fill-rule="evenodd"/>
                <path id="path-262" d="M1795.444-487.05c2.15.384-1.856,1.009-2.934.659S1794.02-487.3,1795.444-487.05Z"
                      transform="translate(-1759.867 493.759)" fill="#5cd792" fill-rule="evenodd"/>
                <path id="path-263"
                      d="M2298.909-468.716c2.149.384-1.857,1.009-2.935.659S2297.486-468.97,2298.909-468.716Z"
                      transform="translate(-2074.506 482.301)" fill="#83d92d" fill-rule="evenodd"/>
                <path id="path-264"
                      d="M1839.43-504.667c4.983,1.639-1.239,2.619-3.428,1.47S1837.789-505.206,1839.43-504.667Z"
                      transform="translate(-1786.806 504.832)" fill="#5cd792" fill-rule="evenodd"/>
                <path id="path-265"
                      d="M1754.613-494.184c8.758,1.027-8.032,3.05-10.729,1.992S1749.924-494.734,1754.613-494.184Z"
                      transform="translate(-1729.322 498.251)" fill="#83d92d" fill-rule="evenodd"/>
                <path id="path-266" d="M1758.2-496.569c1.406.009-1.614.354-2.211.257S1757.221-496.576,1758.2-496.569Z"
                      transform="translate(-1737.133 499.668)" fill="#83d92d" fill-rule="evenodd"/>
                <path id="path-267" d="M2103.992-469.24c4.471.8-3.3.286-5.677.146S2098.727-470.185,2103.992-469.24Z"
                      transform="translate(-1950.603 482.847)" fill="#83d92d" fill-rule="evenodd"/>
                <path id="path-268" d="M2147.706-475.507c1.594.723.582.961-.525.559S2147.053-475.8,2147.706-475.507Z"
                      transform="translate(-1981.364 486.565)" fill="#83d92d" fill-rule="evenodd"/>
                <path id="path-269"
                      d="M2218.607-474.844c16.177,1.072,10.961,2.775,1.02,2.07S2210.806-475.361,2218.607-474.844Z"
                      transform="translate(-2022.476 486.146)" fill="#5cd792" fill-rule="evenodd"/>
                <path id="path-270"
                      d="M2197.318-464.806c3.383.267,2.426.834-.377.566S2195.713-464.933,2197.318-464.806Z"
                      transform="translate(-2011.812 479.832)" fill="#5cd792" fill-rule="evenodd"/>
                <path id="path-271" d="M2188.385-468.452c5.192.426-2.691.492-5.015.057S2185.351-468.7,2188.385-468.452Z"
                      transform="translate(-2003.88 482.239)" fill="#83d92d" fill-rule="evenodd"/>
                <path id="path-272" d="M2084.435-482.119c1.944.327.094.956-1.61.616S2081.508-482.612,2084.435-482.119Z"
                      transform="translate(-1940.825 490.738)" fill="#83d92d" fill-rule="evenodd"/>
                <path id="path-273"
                      d="M1804.875-498.528c2.835,1.061-9.294,3.407-15.821,1.166S1793.489-502.789,1804.875-498.528Z"
                      transform="translate(-1756.644 502.204)" fill="#5cd792" fill-rule="evenodd"/>
                <path id="path-274" d="M1710.186-497.158c2.6.731-3.3.264-4.09-.22S1706.959-498.065,1710.186-497.158Z"
                      transform="translate(-1705.901 500.431)" fill="#83d92d" fill-rule="evenodd"/>
            </g>
            <path id="path-275"
                  d="M2002.474-499.529s-15.151,3.55-29.813,3.331-19.947-5.546-20.982-8.171,1.919-1.22,17.88,1.564A265.645,265.645,0,0,0,2002.474-499.529Z"
                  transform="translate(-192.087 -17.802)" fill="#847843" fill-rule="evenodd" opacity="0.2"
                  style="mix-blend-mode: multiply;isolation: isolate"/>
            <path id="path-276"
                  d="M2096.862-266.648s-17.424-5.574-35.142-3.1-27.91,9.588-28.606,10.3,4.725,1.706,16.975,2.383S2083.1-260.335,2096.862-266.648Z"
                  transform="translate(-243.057 -164.902)" fill="#9298d6" fill-rule="evenodd"
                  style="mix-blend-mode: soft-light;isolation: isolate"/>
            <path id="path-277"
                  d="M2002.764-266.652a63.767,63.767,0,0,0-11.66-3.961c-5.882-1.27-8.417-1.823-8.417-1.823s11.865,7.174,14.335,8.878S2002.764-266.652,2002.764-266.652Z"
                  transform="translate(-211.581 -163.619)" fill="#9298d6" fill-rule="evenodd"
                  style="mix-blend-mode: soft-light;isolation: isolate"/>
            <path id="path-278"
                  d="M2066.542-207.15c3.093-1.488,3.69-7.559-.335-13.272s-3.8,9.017-3.069,12.314S2066.542-207.15,2066.542-207.15Z"
                  transform="translate(-261.593 -195.31)" fill="#f9ae8d" fill-rule="evenodd" opacity="0.46"
                  style="mix-blend-mode: soft-light;isolation: isolate"/>
            <path id="path-279"
                  d="M2105.083-231.853c1.2,1.235.594,4.4-.945,4.628s-7.183-1.109-7.32-3.215S2103.619-233.364,2105.083-231.853Z"
                  transform="translate(-282.905 -188.496)" fill="#f9ae8d" fill-rule="evenodd" opacity="0.46"
                  style="mix-blend-mode: soft-light;isolation: isolate"/>
            <path id="path-280"
                  d="M2104.791-207.1c2.438.066-3.168,6.236-4.856,8.8s-2.585-3.879-1.668-5.513S2104.791-207.1,2104.791-207.1Z"
                  transform="translate(-283.583 -204.453)" fill="#f9ae8d" fill-rule="evenodd" opacity="0.46"
                  style="mix-blend-mode: soft-light;isolation: isolate"/>
            <path id="path-281"
                  d="M2138.13-300.429c.765-2.319-7.736-.958-11.538,2.2s-4.625,4.893-4.625,4.893S2131.233-291.562,2138.13-300.429Z"
                  transform="translate(-298.623 -145.397)" fill-rule="evenodd" fill="url(#gradient-28)"/>
            <path id="path-282"
                  d="M2133.579-296.416a17.048,17.048,0,0,1-8.738,5.026c-5.792,1.4-5.663-.253-5.663-.253a32.082,32.082,0,0,0-3.473,2.52C2115.435-288.692,2125.728-286.889,2133.579-296.416Z"
                  transform="translate(-294.707 -148.632)" fill="#9f5544" fill-rule="evenodd"/>
            <g id="group-12" transform="translate(1770.254 -425.152)" opacity="0.8"
               style="mix-blend-mode: screen;isolation: isolate">
                <path id="path-283"
                      d="M1980.675-242.23c2.379,2.85,5.28,7.888,8.416,5.85s5.933-2.919,3.937-5.295C1993.028-241.675,1978.3-245.079,1980.675-242.23Z"
                      transform="translate(-1980.415 243.367)" fill="url(#gradient-29)"/>
            </g>
            <g id="group-13" transform="translate(1770.254 -425.152)" opacity="0.46">
                <path id="path-284"
                      d="M1980.675-242.23c2.379,2.85,5.28,7.888,8.416,5.85s5.933-2.919,3.937-5.295C1993.028-241.675,1978.3-245.079,1980.675-242.23Z"
                      transform="translate(-1980.415 243.367)" fill="url(#gradient-30)"/>
            </g>
        </g>
    </defs>

    <!-- Platform 1 -->
    <g id="group-1" transform="matrix(0.532414, -0.056184, 0.047645, 0.451494, -688.921, 588.731)">
        <use href="#platform"/>
    </g>

    <!-- Platform 2 -->
    <g id="group-2" transform="matrix(0.532414, -0.056184, 0.047645, 0.451494, -137.882, 583.602)">
        <use href="#platform"/>
    </g>

    <!-- Platform 3 -->
    <g id="group-3" transform="matrix(0.532414, -0.056184, 0.047645, 0.451494, -729.453, 760.421)">
        <use href="#platform"/>
    </g>

    <!-- Platform 4 -->
    <g id="group-4" transform="matrix(0.532414, -0.056184, 0.047645, 0.451494, -667.019, 895.36)">
        <use href="#platform"/>
    </g>

    <!-- LOGO -->
    <g id="group-0" transform="matrix(0.770375, 0, 0, 0.770375, 104.499, -117.687)">
        <rect id="Rectangle_1719" width="350" height="149" transform="translate(372 607)" fill="#2254ab"/>
        <g id="Group_3750" transform="translate(-77.568 -75.413)">
            <path id="Union_18"
                  d="M337.918,381.653q-18.908-24.607-18.91-59.353,0-5.669.5-11.068-.5-5.383-.5-11.035,0-34.859,18.91-59.466a52.317,52.317,0,0,1,4.822-5.444q19.48-19.777,60.842-19.777,46.252,0,65.163,24.607t18.911,59.466q0,5.651-.5,11.035.5,5.4.5,11.068,0,34.746-18.911,59.353a52.11,52.11,0,0,1-4.805,5.426q-19.488,19.795-60.971,19.793Q356.831,406.26,337.918,381.653Zm40.873-87.919a32.932,32.932,0,0,0-8.459,16.787,32.7,32.7,0,0,0,8.985,17.314,34.808,34.808,0,0,0,48.348.067,32.932,32.932,0,0,0,8.439-16.767,32.7,32.7,0,0,0-8.985-17.315,34.808,34.808,0,0,0-48.328-.086ZM608.253,405.349q-9.456,0-14.583-9.683l-40.4-75.407V390.61a11.324,11.324,0,0,1-3.576,8.709q-5.5,5.916-21.189,5.917-25.4,0-25.519-14.012V233.783a12.194,12.194,0,0,1,3.733-9.3q4.945-5.326,17.727-5.327,20.735,0,30.077-.229h.226q9.112,0,14.127,9.8l41.308,77.566V233.783a11.32,11.32,0,0,1,3.575-8.707q5.495-5.918,21.19-5.918,25.4,0,25.518,14.012V390.61a11.159,11.159,0,0,1-3.563,8.467q-5.727,6.158-22.568,6.159-16.4,0-25.861.114ZM227.189,391.223V283.682H195.747q-14.011,0-14.012-20.392a40.219,40.219,0,0,1,1.375-11.328,36.45,36.45,0,0,1-1.375-10.775q0-13.376,5.467-18.444a12.039,12.039,0,0,1,9.158-3.7H308.915q13.326.113,13.9,19.822l.114,1.709A36.1,36.1,0,0,1,321.5,251.5a38.234,38.234,0,0,1,1.311,9.467l.114,1.709q0,12.468-5.238,17.313-3.427,3.693-9.388,3.692H277.473V390.61a11.321,11.321,0,0,1-3.573,8.705q-5.493,5.921-21.193,5.92Q227.3,405.235,227.189,391.223ZM732.7,188.569a93.059,93.059,0,0,1-18.454-4.743,65.948,65.948,0,0,1-15.124-7.992,55.507,55.507,0,0,1-11.673-11.264,90.544,90.544,0,0,1-14.576-27.892,108.532,108.532,0,0,1-4.844-32.957c0-2.907.1-5.8.293-8.609-.195-2.8-.293-5.686-.293-8.583a108.985,108.985,0,0,1,4.843-33.041,90.5,90.5,0,0,1,14.577-27.923A55.507,55.507,0,0,1,699.12,14.3a65.9,65.9,0,0,1,15.124-7.991A92.907,92.907,0,0,1,732.7,1.568a151.9,151.9,0,0,1,43.542,0A93.1,93.1,0,0,1,794.727,6.31,65.942,65.942,0,0,1,809.872,14.3a55.388,55.388,0,0,1,11.68,11.266,90.409,90.409,0,0,1,14.577,27.922,108.985,108.985,0,0,1,4.843,33.041c0,2.9-.1,5.784-.293,8.583.194,2.806.293,5.7.293,8.609a108.5,108.5,0,0,1-4.844,32.957,90.544,90.544,0,0,1-14.576,27.892,55.41,55.41,0,0,1-11.68,11.265,65.942,65.942,0,0,1-15.145,7.991,93.176,93.176,0,0,1-18.488,4.743,142.309,142.309,0,0,1-21.8,1.567A141.681,141.681,0,0,1,732.7,188.569Zm9.455-118.4A31.8,31.8,0,0,0,731.894,77a27.693,27.693,0,0,0-5.634,7.937,36.836,36.836,0,0,0-3.017,10.077,36.812,36.812,0,0,0,3.017,10.077,27.678,27.678,0,0,0,5.635,7.937,31.784,31.784,0,0,0,10.257,6.829,32.22,32.22,0,0,0,12.176,2.269,32.618,32.618,0,0,0,12.267-2.27,31.716,31.716,0,0,0,10.282-6.828,27.7,27.7,0,0,0,5.635-7.937,36.82,36.82,0,0,0,3.016-10.077,36.844,36.844,0,0,0-3.016-10.077A27.7,27.7,0,0,0,776.878,77,31.716,31.716,0,0,0,766.6,70.169a32.618,32.618,0,0,0-12.267-2.27A32.241,32.241,0,0,0,742.152,70.168ZM240.74,187.771a93.2,93.2,0,0,1-18.488-4.743,65.966,65.966,0,0,1-15.145-7.991,55.441,55.441,0,0,1-11.68-11.264l-.02-.027-.02-.028a74.159,74.159,0,0,1-7.951-13.357q-.451-1.029-.83-2.03c.007.171.01.343.01.513a13.609,13.609,0,0,1-2.547,7.85l1.7,4.347.03.076.024.077a16.125,16.125,0,0,1,.8,4.841c0,4.214-1.967,8.082-5.845,11.5-3.561,3.135-8.888,5.985-15.833,8.472-6.013,2.136-11.235,3.219-15.524,3.219a17.259,17.259,0,0,1-9.473-2.441,13.931,13.931,0,0,1-5.591-7.37l-7.124-18.44H59.392l-7.131,18.452a14.163,14.163,0,0,1-5.68,7.365,17.414,17.414,0,0,1-9.493,2.436c-4.289,0-9.51-1.083-15.519-3.217l0,0,0,0c-6.909-2.487-12.207-5.338-15.75-8.474C1.955,174.113,0,170.246,0,166.035a16.142,16.142,0,0,1,.8-4.841l.024-.076.029-.075L2.54,156.7A13.655,13.655,0,0,1,0,148.844,16.129,16.129,0,0,1,.8,144l.024-.077.029-.076,45.227-116.2a38.2,38.2,0,0,1,6.74-11.431,36.765,36.765,0,0,1,10.264-8.2A49.6,49.6,0,0,1,76.609,3.18,81.088,81.088,0,0,1,93.25,1.595,81.078,81.078,0,0,1,109.891,3.18a49.6,49.6,0,0,1,13.528,4.839,36.766,36.766,0,0,1,10.265,8.2,38.153,38.153,0,0,1,6.741,11.438l44.4,113.784a20.472,20.472,0,0,1-.16-2.522,18.63,18.63,0,0,1,1.839-8.051,26.615,26.615,0,0,1-1.839-9.141c0-4.965,1.961-9.635,5.831-13.88a46.152,46.152,0,0,1,12.345-9.116,52.4,52.4,0,0,1-9.13-7.451,29.467,29.467,0,0,1-6.991-11.306,41.594,41.594,0,0,1-2.054-12.711,44.037,44.037,0,0,1,.885-8.871,40.279,40.279,0,0,1-.885-8.321,41.979,41.979,0,0,1,4.6-19.394A50.988,50.988,0,0,1,202.9,14.5a49.211,49.211,0,0,1,10.662-6.432,76.342,76.342,0,0,1,13.517-4.51C236.919,1.2,248.888,0,262.649,0a142.291,142.291,0,0,1,21.8,1.568A93.114,93.114,0,0,1,302.934,6.31,65.972,65.972,0,0,1,318.079,14.3a55.416,55.416,0,0,1,11.68,11.265l.021.028.02.027a74.13,74.13,0,0,1,7.95,13.357,28.967,28.967,0,0,1,2.77,11.439,18.642,18.642,0,0,1-1.838,8.05,26.626,26.626,0,0,1,1.838,9.142c0,5.325-2.254,10.3-6.7,14.792a43.158,43.158,0,0,1-7.937,6.167,71.492,71.492,0,0,1-6.53,3.559,54.723,54.723,0,0,1,10.223,8.318,25.974,25.974,0,0,1,6.784,12.109,48.208,48.208,0,0,1,1.195,10.43,39.291,39.291,0,0,1-.873,8.315,47.308,47.308,0,0,1,.873,8.877,38.379,38.379,0,0,1-2.041,12.5,39.359,39.359,0,0,1-6.1,11.209A55.035,55.035,0,0,1,317.794,175.1a65.609,65.609,0,0,1-15.089,7.955,92.851,92.851,0,0,1-18.431,4.721,152.274,152.274,0,0,1-43.534-.007Zm9.643-68.6a32.537,32.537,0,0,0,12.088,2.27q-7.765-2.606-18.529-5.851A30.364,30.364,0,0,0,250.383,119.169ZM83.95,96.946h18.6l-9.3-24.2Zm176.8-28.97c6.317,2.442,14.313,5.321,23.9,8.607a31.547,31.547,0,0,0-9.851-6.413,32.61,32.61,0,0,0-12.233-2.27Q261.64,67.924,260.751,67.975Zm358.9,120.236a45.311,45.311,0,0,1-11.06-2.794,18.029,18.029,0,0,1-7.262-5.108,12.086,12.086,0,0,1-2.675-7.639,28.487,28.487,0,0,0-2.221-11.131,23.313,23.313,0,0,0-6.288-8.39c-5.706-4.875-14.447-8.069-25.981-9.492-5.457,0-10.507-.028-15.052-.082v29.068a13.84,13.84,0,0,1-7.261,12.633,26.692,26.692,0,0,1-8.314,2.914,58.882,58.882,0,0,1-11.033.921,64.968,64.968,0,0,1-11.564-.916,29.048,29.048,0,0,1-8.7-2.89,14.987,14.987,0,0,1-5.711-5.249,14.15,14.15,0,0,1-2-7.392V20.094a14.411,14.411,0,0,1,1.942-7.368,14.783,14.783,0,0,1,5.573-5.259,27.828,27.828,0,0,1,8.5-2.9,61.609,61.609,0,0,1,11.228-.918c7.585-.3,14.923-.456,21.808-.456,23.441,0,43.241,1.192,58.849,3.545a149.415,149.415,0,0,1,20.734,4.475,65.641,65.641,0,0,1,15.053,6.409,51.329,51.329,0,0,1,10.6,8.5,46.582,46.582,0,0,1,7.611,10.774,52.726,52.726,0,0,1,4.54,12.924,71.239,71.239,0,0,1,1.5,14.954A77.92,77.92,0,0,1,662,73.386a77.227,77.227,0,0,1,.462,8.576,65.407,65.407,0,0,1-3.583,22.321,47.291,47.291,0,0,1-9.008,15.282,39.612,39.612,0,0,1,10.565,14.108,53.213,53.213,0,0,1,4.19,21.779,13.968,13.968,0,0,1-1.06,5.483,61.846,61.846,0,0,1,1.06,11.708,13.374,13.374,0,0,1-2.125,7.476,15.515,15.515,0,0,1-6.109,5.222,32.815,32.815,0,0,1-9.317,2.859,75.752,75.752,0,0,1-12.472.911A109.818,109.818,0,0,1,619.649,188.211ZM549.109,68.464v10.07a222.209,222.209,0,0,0,24.657,1.552c14.586,0,24.648-.771,29.905-2.294a7.41,7.41,0,0,0,4.16-2.94,12.3,12.3,0,0,0-5.286-3.4c-2.851-1.039-7.892-1.84-14.981-2.38-7.251-.553-16.761-.832-28.265-.832C555.844,68.242,552.427,68.316,549.109,68.464ZM404.992,188.194a29.059,29.059,0,0,1-8.7-2.89,14.989,14.989,0,0,1-5.711-5.249,14.159,14.159,0,0,1-2-7.392V67.558H359.6a16.379,16.379,0,0,1-7.2-1.521,13.676,13.676,0,0,1-5.332-4.642,20.956,20.956,0,0,1-3-7.216,42.9,42.9,0,0,1-.937-9.469,49.356,49.356,0,0,1,.712-8.8,44.96,44.96,0,0,1-.712-8.392,47.17,47.17,0,0,1,.931-9.9,22.593,22.593,0,0,1,2.969-7.532A13.985,13.985,0,0,1,352.336,5.2a15.883,15.883,0,0,1,7.24-1.663H472.169A15.833,15.833,0,0,1,479.1,5.068,13.761,13.761,0,0,1,484.3,9.59a21.2,21.2,0,0,1,3.047,6.986,42.542,42.542,0,0,1,1.155,9.116l.11,1.663.006.082v.082a44.518,44.518,0,0,1-.76,8.643,47.239,47.239,0,0,1,.645,6.72l.11,1.664.006.082v.082a42.914,42.914,0,0,1-.937,9.469,20.946,20.946,0,0,1-3,7.214,13.654,13.654,0,0,1-5.331,4.643,16.376,16.376,0,0,1-7.2,1.521H443.164V172.643a13.837,13.837,0,0,1-7.262,12.633,26.682,26.682,0,0,1-8.313,2.914,58.867,58.867,0,0,1-11.032.921A64.971,64.971,0,0,1,404.992,188.194Z"
                  transform="translate(197.568 592.995)" fill="#fb5626" stroke="#2254ab" stroke-linecap="round"
                  stroke-linejoin="round" stroke-miterlimit="10" stroke-width="55"/>
            <g id="Group_3745" transform="translate(199.326 595.45)">
                <path id="Path_3570"
                      d="M116.769-39.06,97.289-89.754,77.808-39.06ZM132.946,2.863h-71.2L54,22.913q-2.962,8.2-12.873,8.2-6.038,0-14.7-3.076Q6.494,20.862,6.494,10.382a13.631,13.631,0,0,1,.684-4.1L52.4-109.918q9.341-24.493,44.885-24.493t44.885,24.493l45.34,116.2a13.632,13.632,0,0,1,.684,4.1q0,10.481-20.05,17.658-8.658,3.076-14.7,3.076-9.911,0-12.759-8.2ZM266.574,31.229q-46.252,0-65.162-24.607Q191.159-7.5,191.159-16.731q0-17.2,36-28.594l6.493.114q2.392,14.582,8.772,20.847a33.443,33.443,0,0,0,24.265,9.8q20.62,0,20.733-12.759,0-3.645-44.087-16.689T193.1-76.426a39,39,0,0,1-1.937-11.962q0-19.708,17.316-33.663t58.213-13.955q46.252,0,65.162,24.607Q342.1-97.273,342.1-88.045q0,17.2-36,28.594l-6.493-.114q-2.392-14.582-8.772-20.847a33.443,33.443,0,0,0-24.265-9.8q-20.847.57-20.847,12.645,0,3.645,44.144,18.683T338-25.389a45.651,45.651,0,0,1,1.139,9.911,35.5,35.5,0,0,1-7.633,22.214Q312.712,31.229,266.574,31.229Zm128.5-121.781H363.634q-14.012,0-14.012-20.392,0-21.417,14.012-21.531H476.187q13.329.114,13.9,19.822l.114,1.709q0,20.392-14.012,20.392H444.745V16.989Q444.745,31,420.594,31q-25.4,0-25.518-14.012ZM550.691-57.743A229.44,229.44,0,0,0,577.8-55.92q22.328,0,30.588-2.392t8.259-15.379q0-9.455-9.228-12.816t-44.087-3.361q-6.493,0-12.645.342Zm0,43.176V16.989Q550.691,31,526.54,31q-25.4,0-25.518-14.012V-118.348q.114-14.012,24.835-14.012,11.392-.456,21.759-.456,70.289,0,93.358,14.069t23.069,45.055q0,31.1-23.012,45.112a48.884,48.884,0,0,1-4.785,2.734q29.961,10.253,29.961,42.834Q666.206,31,638.638,31q-33.379,0-33.493-14.012-.342-27-36.8-31.442Q558.438-14.453,550.691-14.567ZM758.482-136.006q46.252,0,65.162,24.607t18.911,59.466q0,34.746-18.911,59.352T758.482,32.027q-46.138,0-65.048-24.607T674.522-51.933q0-34.86,18.911-59.466T758.482-136.006Zm-.114,122.123a33.443,33.443,0,0,0,24.265-9.8q10.025-9.8,10.025-28.366T782.633-80.413a33.443,33.443,0,0,0-24.265-9.8,33.307,33.307,0,0,0-24.151,9.8q-10.025,9.8-10.025,28.366T734.217-23.68A33.307,33.307,0,0,0,758.368-13.883Z"
                      transform="translate(-6.494 153.197)" fill="#fb5626"/>
                <path id="Path_3569"
                      d="M116.769-39.06,97.289-89.754,77.808-39.06ZM132.946,2.863h-71.2L54,22.913q-2.962,8.2-12.873,8.2-6.038,0-14.7-3.076Q6.494,20.862,6.494,10.382a13.631,13.631,0,0,1,.684-4.1L52.4-109.918q9.341-24.493,44.885-24.493t44.885,24.493l45.34,116.2a13.632,13.632,0,0,1,.684,4.1q0,10.481-20.05,17.658-8.658,3.076-14.7,3.076-9.911,0-12.759-8.2ZM266.574,31.229q-46.252,0-65.162-24.607Q191.159-7.5,191.159-16.731q0-17.2,36-28.594l6.493.114q2.392,14.582,8.772,20.847a33.443,33.443,0,0,0,24.265,9.8q20.62,0,20.733-12.759,0-3.645-44.087-16.689T193.1-76.426a39,39,0,0,1-1.937-11.962q0-19.708,17.316-33.663t58.213-13.955q46.252,0,65.162,24.607Q342.1-97.273,342.1-88.045q0,17.2-36,28.594l-6.493-.114q-2.392-14.582-8.772-20.847a33.443,33.443,0,0,0-24.265-9.8q-20.847.57-20.847,12.645,0,3.645,44.144,18.683T338-25.389a45.651,45.651,0,0,1,1.139,9.911,35.5,35.5,0,0,1-7.633,22.214Q312.712,31.229,266.574,31.229Zm128.5-121.781H363.634q-14.012,0-14.012-20.392,0-21.417,14.012-21.531H476.187q13.329.114,13.9,19.822l.114,1.709q0,20.392-14.012,20.392H444.745V16.989Q444.745,31,420.594,31q-25.4,0-25.518-14.012ZM550.691-57.743A229.44,229.44,0,0,0,577.8-55.92q22.328,0,30.588-2.392t8.259-15.379q0-9.455-9.228-12.816t-44.087-3.361q-6.493,0-12.645.342Zm0,43.176V16.989Q550.691,31,526.54,31q-25.4,0-25.518-14.012V-118.348q.114-14.012,24.835-14.012,11.392-.456,21.759-.456,70.289,0,93.358,14.069t23.069,45.055q0,31.1-23.012,45.112a48.884,48.884,0,0,1-4.785,2.734q29.961,10.253,29.961,42.834Q666.206,31,638.638,31q-33.379,0-33.493-14.012-.342-27-36.8-31.442Q558.438-14.453,550.691-14.567ZM758.482-136.006q46.252,0,65.162,24.607t18.911,59.466q0,34.746-18.911,59.352T758.482,32.027q-46.138,0-65.048-24.607T674.522-51.933q0-34.86,18.911-59.466T758.482-136.006Zm-.114,122.123a33.443,33.443,0,0,0,24.265-9.8q10.025-9.8,10.025-28.366T782.633-80.413a33.443,33.443,0,0,0-24.265-9.8,33.307,33.307,0,0,0-24.151,9.8q-10.025,9.8-10.025,28.366T734.217-23.68A33.307,33.307,0,0,0,758.368-13.883Z"
                      transform="translate(-6.494 136.006)" fill="url(#linear-gradient)"/>
                <g id="Union_16" transform="translate(0)" fill="none" stroke-miterlimit="10">
                    <path d="M686.939,160.616q-18.911-24.606-18.911-59.352,0-4.385.3-8.609-.3-4.21-.3-8.582,0-34.859,18.911-59.466T751.988,0q46.25,0,65.162,24.607t18.911,59.466q0,4.371-.3,8.582.3,4.223.3,8.609,0,34.746-18.911,59.352t-65.162,24.607Q705.85,185.224,686.939,160.616Zm40.783-48.292a34.807,34.807,0,0,0,48.417,0q7.561-7.39,9.419-19.77-1.858-12.381-9.419-19.771a34.807,34.807,0,0,0-48.417,0q-7.561,7.39-9.419,19.771Q720.161,104.935,727.722,112.325Zm-532.8,47.495q-10.253-14.127-10.254-23.354a16.292,16.292,0,0,1,2.069-7.913,25.134,25.134,0,0,1-2.069-9.278q0-13.062,20.759-22.775Q190.05,87.629,186.6,76.771a38.976,38.976,0,0,1-1.937-11.961,41.226,41.226,0,0,1,.941-8.877,37.78,37.78,0,0,1-.941-8.314q0-19.709,17.316-33.664T260.194,0q46.252,0,65.163,24.607,10.253,14.125,10.253,23.353a16.3,16.3,0,0,1-2.069,7.913,25.132,25.132,0,0,1,2.069,9.278q0,14.031-23.951,24.2,17.416,10,19.85,21.268a45.609,45.609,0,0,1,1.139,9.911,36.548,36.548,0,0,1-.927,8.283,44.963,44.963,0,0,1,.927,8.908,35.5,35.5,0,0,1-7.632,22.215q-18.8,24.493-64.935,24.492Q213.83,184.426,194.918,159.82Zm41.011-48.178a33.442,33.442,0,0,0,24.265,9.8,41.323,41.323,0,0,0,10.686-1.191q-11-4.25-34.038-11.066-1.957-.579-3.838-1.17A21.164,21.164,0,0,0,235.929,111.642Zm47.447-34.518q2.77.943,5.383,1.9a23.391,23.391,0,0,0-4.414-6.241,33.445,33.445,0,0,0-24.265-9.8,44.41,44.41,0,0,0-10.941,1.465Q260.144,69.21,283.376,77.124ZM134.2,176.109l-7.746-20.05h-71.2L47.5,176.109q-2.963,8.2-12.873,8.2-6.039,0-14.7-3.076Q0,174.06,0,163.578a13.653,13.653,0,0,1,.683-4.1l2.185-5.614A11.6,11.6,0,0,1,0,146.388a13.653,13.653,0,0,1,.683-4.1L45.91,26.088Q55.251,1.6,90.794,1.595t44.884,24.493l45.341,116.2a13.645,13.645,0,0,1,.683,4.1,11.553,11.553,0,0,1-2.877,7.466l2.194,5.623a13.645,13.645,0,0,1,.683,4.1q0,10.482-20.05,17.658-8.658,3.077-14.7,3.076Q137.045,184.312,134.2,176.109Zm-30.53-79.164-12.874-33.5L77.92,96.946Zm494.983,73.24q-.342-27-36.8-31.441-9.91,0-17.657-.114v31.555q0,14.013-24.152,14.012-25.4,0-25.518-14.012V17.658q.115-14.013,24.835-14.012,11.392-.456,21.759-.456,70.287,0,93.357,14.07t23.069,45.056a74.836,74.836,0,0,1-.479,8.615,74.185,74.185,0,0,1,.479,8.576q0,24.035-13.744,37.863Q659.714,129.254,659.712,153a11.227,11.227,0,0,1-1.171,5.18,58.366,58.366,0,0,1,1.171,12.01q0,14.013-27.568,14.012Q598.764,184.2,598.651,170.186ZM544.2,78.263a229.314,229.314,0,0,0,27.113,1.822q22.329,0,30.588-2.392a9.981,9.981,0,0,0,6.4-5.445,13.8,13.8,0,0,0-7.371-5.559q-9.227-3.362-44.086-3.361-6.493,0-12.645.341ZM388.582,170.186V62.645H357.14q-14.013,0-14.012-20.391a45.731,45.731,0,0,1,.758-8.81,41.427,41.427,0,0,1-.758-8.382q0-21.418,14.012-21.53H469.693q13.33.113,13.9,19.822l.114,1.709a40.913,40.913,0,0,1-.807,8.613,43.719,43.719,0,0,1,.694,6.869l.114,1.71q0,20.392-14.012,20.391H438.251V170.186q0,14.013-24.151,14.012Q388.7,184.2,388.582,170.186Z"
                          stroke="none"/>
                    <path d="M 751.9880981445312 185.2235870361328 C 782.821533203125 185.2235870361328 804.5435180664062 177.0212554931641 817.149658203125 160.6164703369141 C 829.75732421875 144.2128143310547 836.0610961914062 124.4284744262695 836.0610961914062 101.2645874023438 C 836.0610961914062 98.34114074707031 835.961181640625 95.47058868408203 835.7615356445312 92.65525054931641 C 835.961181640625 89.84836578369141 836.0610961914062 86.98680877685547 836.0610961914062 84.07292175292969 C 836.0610961914062 60.83391952514648 829.75732421875 41.01092147827148 817.149658203125 24.60714149475098 C 804.5435180664062 8.202363967895508 782.821533203125 3.099907917203382e-05 751.9880981445312 3.099907917203382e-05 C 721.2294921875 3.099907917203382e-05 699.546630859375 8.202363967895508 686.939208984375 24.60714149475098 C 674.33154296875 41.01092147827148 668.028076171875 60.83391952514648 668.028076171875 84.07292175292969 C 668.028076171875 86.98680877685547 668.1277465820312 89.84836578369141 668.327392578125 92.65525054931641 C 668.1277465820312 95.47058868408203 668.028076171875 98.34114074707031 668.028076171875 101.2645874023438 C 668.028076171875 124.4284744262695 674.33154296875 144.2128143310547 686.939208984375 160.6164703369141 C 699.546630859375 177.0212554931641 721.2294921875 185.2235870361328 751.9880981445312 185.2235870361328 M 751.873046875 62.98669815063477 C 761.367431640625 62.98669815063477 769.454833984375 66.25236511230469 776.1389770507812 72.78380584716797 C 781.1793823242188 77.71025085449219 784.3196411132812 84.30103302001953 785.5584106445312 92.5548095703125 C 784.3196411132812 100.8082504272461 781.1793823242188 107.3983612060547 776.1389770507812 112.3249206542969 C 769.454833984375 118.8562545776367 761.367431640625 122.1220321655273 751.873046875 122.1220321655273 C 742.456298828125 122.1220321655273 734.4063110351562 118.8562545776367 727.722412109375 112.3249206542969 C 722.6818237304688 107.3983612060547 719.541748046875 100.8082504272461 718.302978515625 92.5548095703125 C 719.541748046875 84.30103302001953 722.6818237304688 77.71025085449219 727.722412109375 72.78380584716797 C 734.4063110351562 66.25236511230469 742.456298828125 62.98669815063477 751.873046875 62.98669815063477 M 260.0798645019531 184.4257049560547 C 290.8381958007812 184.4257049560547 312.483642578125 176.2620239257812 325.0148620605469 159.9334716796875 C 330.1027526855469 153.3258056640625 332.64697265625 145.9213714599609 332.64697265625 137.7189178466797 C 332.64697265625 134.8424682617188 332.338623046875 131.8723602294922 331.7201843261719 128.8105926513672 C 332.3381958007812 126.1461410522461 332.64697265625 123.3853607177734 332.64697265625 120.5272521972656 C 332.64697265625 117.3378067016602 332.26806640625 114.0344772338867 331.5078430175781 110.6162567138672 C 329.8840637207031 103.1015853881836 323.2688598632812 96.0126953125 311.6581726074219 89.34814453125 C 327.6253051757812 82.57114410400391 335.6088562011719 74.50592041015625 335.6088562011719 65.15169525146484 C 335.6088562011719 62.38847732543945 334.9194030761719 59.29580688476562 333.5400695800781 55.87336349487305 C 334.9187316894531 53.34714126586914 335.6088562011719 50.70880889892578 335.6088562011719 47.96002960205078 C 335.6088562011719 41.80880737304688 332.1916198730469 34.02414321899414 325.3561706542969 24.60714149475098 C 312.7490844726562 8.202363967895508 291.0282897949219 3.099907917203382e-05 260.1936340332031 3.099907917203382e-05 C 232.9287414550781 3.099907917203382e-05 213.5244140625 4.651586532592773 201.98095703125 13.95469760894775 C 190.4367370605469 23.25892066955566 184.6645202636719 34.47947692871094 184.6645202636719 47.61858749389648 C 184.6645202636719 50.37192153930664 184.9783020019531 53.14292144775391 185.60595703125 55.93280792236328 C 184.9783020019531 58.78780746459961 184.6645202636719 61.74680709838867 184.6645202636719 64.81025695800781 C 184.6645202636719 68.75891876220703 185.3100738525391 72.74625396728516 186.6018524169922 76.77125549316406 C 188.9014129638672 84.01025390625 195.1743011474609 90.58558654785156 205.4238433837891 96.49936676025391 C 191.583740234375 102.9744720458984 184.6645202636719 110.566032409668 184.6645202636719 119.2740325927734 C 184.6645202636719 122.0373611450195 185.3542938232422 125.1303634643555 186.7334136962891 128.5523681640625 C 185.3539581298828 131.0790252685547 184.6645202636719 133.7162475585938 184.6645202636719 136.4656982421875 C 184.6645202636719 142.6169128417969 188.0827331542969 150.4015808105469 194.9181823730469 159.819580078125 C 207.5244140625 176.2233581542969 229.2462921142578 184.4257049560547 260.0798645019531 184.4257049560547 M 233.0029602050781 108.0116958618164 C 234.2572937011719 108.4058074951172 235.5364074707031 108.7959213256836 236.8408508300781 109.1818084716797 C 252.1999664306641 113.7263641357422 263.5461730957031 117.4151458740234 270.8791809082031 120.2481384277344 C 267.9552917480469 121.0419235229492 264.39306640625 121.4390335083008 260.1936340332031 121.4390335083008 C 250.7004089355469 121.4390335083008 242.6118469238281 118.1732559204102 235.928955078125 111.6419219970703 C 234.8712921142578 110.603141784668 233.8959655761719 109.3931427001953 233.0029602050781 108.0116958618164 M 260.0798645019531 62.98669815063477 C 269.57275390625 62.98669815063477 277.66162109375 66.25236511230469 284.3451843261719 72.78380584716797 C 286.0239562988281 74.43247222900391 287.4948425292969 76.5126953125 288.759521484375 79.02481079101562 C 287.018310546875 78.38681030273438 285.2229614257812 77.75270080566406 283.3761901855469 77.12369537353516 C 267.8877258300781 71.84758758544922 256.4756164550781 67.62380981445312 249.1389617919922 64.45136260986328 C 252.1152954101562 63.59303283691406 255.7617340087891 63.10480880737305 260.0798645019531 62.98669815063477 M 146.9570770263672 184.3119201660156 C 150.9831848144531 184.3119201660156 155.8810729980469 183.2873687744141 161.6532897949219 181.2362518310547 C 175.0200805664062 176.4520263671875 181.7028503417969 170.5660247802734 181.7028503417969 163.5782470703125 C 181.7028503417969 162.2874755859375 181.4750671386719 160.9203643798828 181.0197448730469 159.4770355224609 L 178.8254089355469 153.8539123535156 C 180.7439575195312 151.5230255126953 181.7028503417969 149.0345916748047 181.7028503417969 146.3876953125 C 181.7028503417969 145.096923828125 181.4750671386719 143.7298126220703 181.0197448730469 142.2864685058594 L 135.6787414550781 26.08803176879883 C 129.4516296386719 9.759586334228516 114.4899597167969 1.594697713851929 90.79440307617188 1.594697713851929 C 67.09918212890625 1.594697713851929 52.13751602172852 9.759586334228516 45.91018295288086 26.08803176879883 L 0.6830731630325317 142.2864685058594 C 0.2280731350183487 143.7298126220703 -3.79774319299031e-05 145.096923828125 -3.79774319299031e-05 146.3876953125 C -3.79774319299031e-05 149.0375823974609 0.9565175771713257 151.5295867919922 2.868184328079224 153.8628082275391 L 0.6830731630325317 159.4770355224609 C 0.2280731350183487 160.9203643798828 -3.79774319299031e-05 162.2874755859375 -3.79774319299031e-05 163.5782470703125 C -3.79774319299031e-05 170.5660247802734 6.645295143127441 176.4520263671875 19.93585014343262 181.2362518310547 C 25.70807266235352 183.2873687744141 30.6059627532959 184.3119201660156 34.63207244873047 184.3119201660156 C 41.23851776123047 184.3119201660156 45.52985000610352 181.5778045654297 47.50485229492188 176.1094818115234 L 55.25196075439453 156.0599212646484 L 126.4521865844727 156.0599212646484 L 134.1982879638672 176.1094818115234 C 136.0967407226562 181.5778045654297 140.3491821289062 184.3119201660156 146.9570770263672 184.3119201660156 M 90.79440307617188 63.44314193725586 L 103.6687393188477 96.94558715820312 L 77.92041015625 96.94558715820312 L 90.79440307617188 63.44314193725586 M 632.1438598632812 184.1980285644531 C 650.5225219726562 184.1980285644531 659.7116088867188 179.5276947021484 659.7116088867188 170.1859130859375 C 659.7116088867188 165.8919219970703 659.321044921875 161.8880310058594 658.5407104492188 158.1758117675781 C 659.3212890625 156.6472473144531 659.7116088867188 154.9205932617188 659.7116088867188 152.995361328125 C 659.7116088867188 137.1668090820312 654.410400390625 125.2922515869141 643.80419921875 117.3686981201172 C 652.9671020507812 108.1495895385742 657.5478515625 95.52880859375 657.5478515625 79.50536346435547 C 657.5478515625 76.52980804443359 657.38818359375 73.67125701904297 657.069091796875 70.92958831787109 C 657.38818359375 68.17636108398438 657.5478515625 65.30491638183594 657.5478515625 62.3148078918457 C 657.5478515625 41.65625381469727 649.8583984375 26.63847541809082 634.4789428710938 17.25903129577637 C 619.099853515625 7.879697799682617 587.97998046875 3.189475536346436 541.121826171875 3.189475536346436 C 534.210205078125 3.189475536346436 526.9570922851562 3.341919898986816 519.3624877929688 3.645919799804688 C 502.8828430175781 3.645919799804688 494.6039733886719 8.316253662109375 494.5276184082031 17.65803146362305 L 494.5276184082031 170.1859130859375 C 494.6039733886719 179.5276947021484 503.1104125976562 184.1980285644531 520.04541015625 184.1980285644531 C 536.1465454101562 184.1980285644531 544.197509765625 179.5276947021484 544.197509765625 170.1859130859375 L 544.197509765625 138.6306915283203 C 549.3618774414062 138.705810546875 555.2474975585938 138.7444763183594 561.8544921875 138.7444763183594 C 586.1575317382812 141.7062530517578 598.4236450195312 152.1863708496094 598.6514282226562 170.1859130859375 C 598.7275390625 179.5276947021484 609.890625 184.1980285644531 632.1438598632812 184.1980285644531 M 556.842529296875 63.32925415039062 C 580.08154296875 63.32925415039062 594.7776489257812 64.44880676269531 600.928955078125 66.69003295898438 C 604.3212890625 67.92525482177734 606.7783203125 69.77814483642578 608.300048828125 72.24869537353516 C 606.9273071289062 75.04014587402344 604.793212890625 76.85547637939453 601.898193359375 77.69403076171875 C 596.3914184570312 79.2886962890625 586.1962890625 80.08547210693359 571.31005859375 80.08547210693359 C 563.335205078125 80.08547210693359 554.2986450195312 79.47880554199219 544.197509765625 78.26314544677734 L 544.197509765625 63.67080688476562 C 548.2986450195312 63.44314193725586 552.5136108398438 63.32925415039062 556.842529296875 63.32925415039062 M 414.1008605957031 184.1980285644531 C 430.2016296386719 184.1980285644531 438.2515258789062 179.5276947021484 438.2515258789062 170.1859130859375 L 438.2515258789062 62.6452522277832 L 469.6928405761719 62.6452522277832 C 479.0346374511719 62.6452522277832 483.7048645019531 55.84858703613281 483.7048645019531 42.25414276123047 L 483.59130859375 40.54447555541992 C 483.51806640625 38.01214218139648 483.286865234375 35.72291946411133 482.8977355957031 33.67580795288086 C 483.4360656738281 31.19625282287598 483.7048645019531 28.32503128051758 483.7048645019531 25.06247520446777 L 483.59130859375 23.35391998291016 C 483.2119750976562 10.21492004394531 478.5792846679688 3.607253313064575 469.6928405761719 3.532031059265137 L 357.1404113769531 3.532031059265137 C 347.7986145019531 3.607253313064575 343.128173828125 10.78403091430664 343.128173828125 25.06247520446777 C 343.128173828125 28.22380828857422 343.380859375 31.01825332641602 343.8859558105469 33.44447708129883 C 343.380859375 35.99669647216797 343.128173828125 38.93380737304688 343.128173828125 42.25414276123047 C 343.128173828125 55.84858703613281 347.7986145019531 62.6452522277832 357.1404113769531 62.6452522277832 L 388.5817260742188 62.6452522277832 L 388.5817260742188 170.1859130859375 C 388.657958984375 179.5276947021484 397.1645202636719 184.1980285644531 414.1008605957031 184.1980285644531 M 751.9880981445312 189.2235870361328 C 744.1280517578125 189.2235870361328 736.7310791015625 188.6900329589844 730.0027465820312 187.6375885009766 C 723.2064208984375 186.5745849609375 716.894287109375 184.9513702392578 711.2417602539062 182.8130340576172 C 705.520751953125 180.64892578125 700.3134155273438 177.8963623046875 695.7642822265625 174.6319274902344 C 691.1797485351562 171.3420257568359 687.1434936523438 167.4465789794922 683.7676391601562 163.0539245605469 C 680.4896240234375 158.7890319824219 677.580322265625 154.2397003173828 675.1204223632812 149.532470703125 C 672.6608276367188 144.8260345458984 670.5829467773438 139.8323669433594 668.9445190429688 134.6899261474609 C 667.310302734375 129.5609130859375 666.0680541992188 124.1422500610352 665.2523803710938 118.5846939086914 C 664.43994140625 113.0495834350586 664.028076171875 107.2222518920898 664.028076171875 101.2645874023438 C 664.028076171875 98.35645294189453 664.1255493164062 95.46147155761719 664.3176879882812 92.65531158447266 C 664.12548828125 89.85747528076172 664.028076171875 86.97176361083984 664.028076171875 84.07292175292969 C 664.028076171875 78.09703063964844 664.43994140625 72.25358581542969 665.252197265625 66.70481109619141 C 666.0677490234375 61.13336563110352 667.3098754882812 55.70302963256836 668.94384765625 50.5645866394043 C 670.582275390625 45.4125862121582 672.6600952148438 40.4113655090332 675.1195068359375 35.69992065429688 C 677.5796508789062 30.98736381530762 680.4893188476562 26.43503189086914 683.7677612304688 22.16958618164062 C 687.1434936523438 17.77703094482422 691.1797485351562 13.88158702850342 695.7642822265625 10.59169769287109 C 700.3134155273438 7.327253341674805 705.520751953125 4.574697494506836 711.2417602539062 2.410586595535278 C 716.894287109375 0.2722532153129578 723.2064208984375 -1.350968956947327 730.0027465820312 -2.413969039916992 C 736.7310791015625 -3.466413497924805 744.1280517578125 -3.999969005584717 751.9880981445312 -3.999969005584717 C 759.8662719726562 -3.999969005584717 767.2794189453125 -3.466413497924805 774.0215454101562 -2.414191246032715 C 780.8316040039062 -1.3513023853302 787.1553955078125 0.2716976702213287 792.8171997070312 2.409697771072388 C 798.5478515625 4.573697566986084 803.7625122070312 7.326142311096191 808.3162841796875 10.59047508239746 C 812.9063110351562 13.88080883026123 816.9454345703125 17.77658653259277 820.3212890625 22.16991996765137 C 823.5994873046875 26.43503189086914 826.5091552734375 30.98736381530762 828.9692993164062 35.69992065429688 C 831.4288330078125 40.4113655090332 833.5066528320312 45.4124755859375 835.1450805664062 50.5645866394043 C 836.7791748046875 55.70291900634766 838.0213012695312 61.13336563110352 838.8369750976562 66.70481109619141 C 839.649169921875 72.25358581542969 840.0610961914062 78.09703063964844 840.0610961914062 84.07292175292969 C 840.0610961914062 86.9697265625 839.9635620117188 89.85548400878906 839.771240234375 92.65522766113281 C 839.963623046875 95.46337127685547 840.0610961914062 98.35831451416016 840.0610961914062 101.2645874023438 C 840.0610961914062 107.2222518920898 839.649169921875 113.0495834350586 838.8367309570312 118.5846939086914 C 838.0209350585938 124.1422500610352 836.7787475585938 129.5609130859375 835.1444091796875 134.6900329589844 C 833.5059814453125 139.8323669433594 831.4281005859375 144.8260345458984 828.968505859375 149.532470703125 C 826.508544921875 154.2397003173828 823.5991821289062 158.7890319824219 820.321044921875 163.0540313720703 C 816.9454345703125 167.4470367431641 812.9063110351562 171.3428039550781 808.3162841796875 174.6331481933594 C 803.7625122070312 177.8974761962891 798.5478515625 180.6499176025391 792.8171997070312 182.8139190673828 C 787.1553955078125 184.9519195556641 780.8316040039062 186.5749206542969 774.0215454101562 187.6378021240234 C 767.2794189453125 188.6900329589844 759.8662719726562 189.2235870361328 751.9880981445312 189.2235870361328 Z M 722.3519287109375 92.55479431152344 C 722.9235229492188 96.03659057617188 723.8799438476562 99.20048522949219 725.1980590820312 101.9669189453125 C 726.5574951171875 104.8201446533203 728.3475341796875 107.3425903320312 730.518310546875 109.4643630981445 C 733.470947265625 112.3495864868164 736.7542114257812 114.5371398925781 740.276611328125 115.9661407470703 C 743.802978515625 117.3966979980469 747.7046508789062 118.1220321655273 751.873046875 118.1220321655273 C 756.082275390625 118.1220321655273 760.0150756835938 117.3958053588867 763.5623168945312 115.9636993408203 C 767.10107421875 114.5348052978516 770.391845703125 112.348030090332 773.3433837890625 109.4640274047852 C 775.5138549804688 107.3425903320312 777.3038330078125 104.8201446533203 778.6632690429688 101.9669189453125 C 779.9814453125 99.20037841796875 780.9379272460938 96.03653717041016 781.5094604492188 92.55483245849609 C 780.9378662109375 89.07283020019531 779.9813232421875 85.90867614746094 778.6632080078125 83.14202880859375 C 777.3037109375 80.28858947753906 775.5137329101562 77.76602935791016 773.3430786132812 75.64436340332031 C 770.3919677734375 72.76069641113281 767.10107421875 70.57380676269531 763.5623168945312 69.14503479003906 C 760.0151977539062 67.71292114257812 756.082275390625 66.9866943359375 751.873046875 66.9866943359375 C 747.7045288085938 66.9866943359375 743.802978515625 67.71202850341797 740.2764892578125 69.14258575439453 C 736.7542114257812 70.57147216796875 733.470947265625 72.75914001464844 730.51806640625 75.64469909667969 C 728.3475341796875 77.76602935791016 726.5576171875 80.28858947753906 725.1980590820312 83.14202880859375 C 723.8800659179688 85.90867614746094 722.9235229492188 89.07279205322266 722.3519287109375 92.55479431152344 Z M 260.0798645019531 188.4257049560547 C 252.2016296386719 188.4257049560547 244.7885131835938 187.8921356201172 238.0464019775391 186.8399200439453 C 231.2362976074219 185.7770385742188 224.9125213623047 184.1541442871094 219.250732421875 182.0161437988281 C 213.5200805664062 179.8522491455078 208.3055114746094 177.0999145507812 203.7516326904297 173.835693359375 C 199.16162109375 170.5455932617188 195.1225128173828 166.6499176025391 191.7465209960938 162.2569274902344 L 191.6809692382812 162.1691436767578 C 188.8825225830078 158.3134460449219 186.5999145507812 154.6592407226562 184.8694152832031 151.267822265625 C 184.4889526367188 152.3468017578125 183.9788665771484 153.3985748291016 183.3401947021484 154.4202728271484 L 184.7944030761719 158.1468048095703 L 184.8344116210938 158.2735900878906 C 185.4106292724609 160.1002502441406 185.7028503417969 161.8849182128906 185.7028503417969 163.5782470703125 C 185.7028503417969 165.9649200439453 185.1299591064453 168.2787017822266 183.9999694824219 170.4554748535156 C 182.9397430419922 172.4979248046875 181.3699645996094 174.4424743652344 179.3344116210938 176.2353668212891 C 177.4382934570312 177.9052581787109 175.0730743408203 179.4991455078125 172.3044128417969 180.9725799560547 C 169.6392974853516 182.3909149169922 166.5091857910156 183.7467041015625 163.0011901855469 185.0022583007812 L 162.9926300048828 185.00537109375 C 156.7310791015625 187.2303619384766 151.4858551025391 188.3119201660156 146.9570770263672 188.3119201660156 C 142.8890686035156 188.3119201660156 139.4207458496094 187.4082489013672 136.6485137939453 185.6259155273438 C 133.7793579101562 183.7813720703125 131.6919403076172 181.0442504882812 130.4435424804688 177.4901275634766 L 123.7094116210938 160.0599212646484 L 57.99453735351562 160.0599212646484 L 51.25139617919922 177.5111999511719 C 49.95979309082031 181.0623016357422 47.84139633178711 183.7953643798828 44.95473861694336 185.6347045898438 C 42.16674041748047 187.4111480712891 38.69363021850586 188.3119201660156 34.63207244873047 188.3119201660156 C 30.10329627990723 188.3119201660156 24.85807228088379 187.2303619384766 18.59651756286621 185.00537109375 L 18.58107376098633 184.9998016357422 C 15.09140682220459 183.7436981201172 11.97773933410645 182.3872528076172 9.326406478881836 180.9681396484375 C 6.571628570556641 179.4936981201172 4.218295574188232 177.89892578125 2.331739902496338 176.2279205322266 C 0.3069620132446289 174.4344787597656 -1.254149079322815 172.4895935058594 -2.30848240852356 170.4472503662109 C -3.43092679977417 168.272705078125 -4.000038146972656 165.9617004394531 -4.000038146972656 163.5782470703125 C -4.000038146972656 161.8862457275391 -3.707926750183105 160.101806640625 -3.131815671920776 158.2743682861328 L -3.092260122299194 158.14892578125 L -1.643469452857971 154.4263305664062 C -3.208786249160767 151.9131164550781 -4.000038146972656 149.2183227539062 -4.000038146972656 146.3876953125 C -4.000038146972656 144.6956939697266 -3.707926750183105 142.9112548828125 -3.131815671920776 141.0838012695312 L -3.092260122299194 140.958251953125 L -3.044482469558716 140.8355865478516 L 42.17585372924805 24.65455055236816 C 45.62444305419922 15.61751651763916 51.58293914794922 8.737870216369629 59.88573837280273 4.207030773162842 C 63.95051574707031 1.988808751106262 68.64340972900391 0.3082532286643982 73.83396148681641 -0.788080096244812 C 78.91474151611328 -1.861191272735596 84.62107086181641 -2.405302286148071 90.79440307617188 -2.405302286148071 C 96.96784973144531 -2.405302286148071 102.674186706543 -1.861191272735596 107.7550735473633 -0.788080096244812 C 112.9456253051758 0.3082532286643982 117.6385192871094 1.988808751106262 121.7032928466797 4.207030773162842 C 130.0056915283203 8.737593650817871 135.9640960693359 15.61727142333984 139.4126739501953 24.65349006652832 L 181.2181396484375 131.7911987304688 C 181.4994659423828 130.6230926513672 181.8876800537109 129.4734344482422 182.3814544677734 128.3468627929688 C 181.2414398193359 125.102783203125 180.6645202636719 122.0575714111328 180.6645202636719 119.2740325927734 C 180.6645202636719 113.9121398925781 182.7617340087891 108.8925857543945 186.8979644775391 104.3548049926758 C 188.8318481445312 102.2330322265625 191.2541809082031 100.1803665161133 194.0976257324219 98.25358581542969 C 195.1488800048828 97.54127502441406 196.2702941894531 96.83760070800781 197.4572448730469 96.1451416015625 C 194.6376953125 94.13410186767578 192.1884002685547 92.04309844970703 190.1375122070312 89.89347839355469 C 186.59521484375 86.1805419921875 184.1242218017578 82.17684936523438 182.7932434082031 77.99356842041016 L 182.7931823730469 77.99358367919922 C 181.3807373046875 73.59247589111328 180.6645202636719 69.15692138671875 180.6645202636719 64.81025695800781 C 180.6645202636719 61.78121185302734 180.9512786865234 58.80296325683594 181.5176239013672 55.94354629516602 C 180.9512481689453 53.16376113891602 180.6645202636719 50.36767578125 180.6645202636719 47.61858749389648 C 180.6645202636719 33.27191925048828 186.9918518066406 20.89792060852051 199.4708557128906 10.84025287628174 C 202.6079559326172 8.312030792236328 206.3079681396484 6.079030990600586 210.4681854248047 4.203142166137695 C 214.5471801757812 2.363919973373413 219.1870727539062 0.8148087859153748 224.2592926025391 -0.4010801017284393 C 229.2634124755859 -1.600635647773743 234.8359680175781 -2.511413335800171 240.8220672607422 -3.108080148696899 C 246.7597351074219 -3.699857950210571 253.2772979736328 -3.999969005584717 260.1936340332031 -3.999969005584717 C 268.0721740722656 -3.999969005584717 275.4854125976562 -3.466413497924805 282.2276306152344 -2.414191246032715 C 289.0377502441406 -1.3513023853302 295.3615112304688 0.2716976702213287 301.0232849121094 2.409697771072388 C 306.7538452148438 4.573697566986084 311.968505859375 7.326142311096191 316.5223999023438 10.59047508239746 C 321.1123962402344 13.88069725036621 325.1516418457031 17.77647590637207 328.5278625488281 22.16969680786133 L 328.5932922363281 22.25747489929199 C 332.1625061035156 27.17469787597656 334.8928527832031 31.76480865478516 336.7084045410156 35.90036392211914 C 337.8605041503906 38.52470397949219 338.6726379394531 41.03212738037109 339.1389770507812 43.3983268737793 C 339.1318054199219 43.02127838134766 339.128173828125 42.6396369934082 339.128173828125 42.25414276123047 C 339.128173828125 39.02195358276367 339.3588256835938 36.06887817382812 339.8142395019531 33.46215438842773 C 339.3588256835938 30.96955490112305 339.128173828125 28.14849090576172 339.128173828125 25.06247520446777 C 339.128173828125 21.22392082214355 339.4536437988281 17.7826976776123 340.0953979492188 14.83436393737793 C 340.7800598144531 11.6895866394043 341.8509521484375 8.982809066772461 343.2786254882812 6.789253234863281 C 344.8230590820312 4.416030883789062 346.8056335449219 2.591919898986816 349.1714172363281 1.367586612701416 C 351.478515625 0.173475444316864 354.1488647460938 -0.4439690113067627 357.1081848144531 -0.4678578972816467 L 357.1404113769531 -0.4679690003395081 L 469.7267456054688 -0.4678578972816467 C 472.5462951660156 -0.4439690113067627 475.1052856445312 0.1263643354177475 477.3326416015625 1.22747540473938 C 479.6224060058594 2.35936427116394 481.5653991699219 4.048364162445068 483.1073913574219 6.247697830200195 C 484.5397338867188 8.290586471557617 485.6429748535156 10.81136417388916 486.3862915039062 13.74025344848633 C 487.0769653320312 16.4610710144043 487.4808959960938 19.63034439086914 487.5873413085938 23.16144752502441 L 487.7048645019531 24.92969703674316 L 487.7048645019531 25.06247520446777 C 487.7048645019531 28.25797462463379 487.4577026367188 31.16708755493164 486.9695739746094 33.72474670410156 C 487.3079223632812 35.74347686767578 487.5154113769531 37.96814727783203 487.5873718261719 40.3523063659668 L 487.7048645019531 42.12147521972656 L 487.7048645019531 42.25414276123047 C 487.7048645019531 45.93692016601562 487.3762817382812 49.23903274536133 486.7281799316406 52.06847381591797 C 486.0340881347656 55.09880828857422 484.947509765625 57.70447540283203 483.4987487792969 59.81291961669922 C 481.93896484375 62.08280944824219 479.9439697265625 63.81781005859375 477.5689697265625 64.96981048583984 C 475.2770690917969 66.08158874511719 472.627197265625 66.64525604248047 469.6928405761719 66.64525604248047 L 442.2515258789062 66.64525604248047 L 442.2515258789062 170.1859130859375 C 442.2515258789062 176.2765808105469 439.4747314453125 181.1070251464844 434.2212829589844 184.155029296875 C 431.8304138183594 185.5421447753906 428.8713989257812 186.5833587646484 425.4263916015625 187.2495880126953 C 422.1719665527344 187.8789215087891 418.3615112304688 188.1980285644531 414.1008605957031 188.1980285644531 C 409.6449584960938 188.1980285644531 405.6600646972656 187.8812561035156 402.2569580078125 187.256591796875 C 398.6694030761719 186.5980377197266 395.5863952636719 185.5701446533203 393.0936279296875 184.2013702392578 C 387.5750732421875 181.1713714599609 384.6317443847656 176.3361358642578 384.5818481445312 170.2185821533203 L 384.5817260742188 170.1859130859375 L 384.5817260742188 66.64525604248047 L 357.1404113769531 66.64525604248047 C 354.2060852050781 66.64525604248047 351.5561828613281 66.08158874511719 349.2641906738281 64.96981048583984 C 346.8892822265625 63.81781005859375 344.8941955566406 62.08280944824219 343.3344116210938 59.81303024291992 C 341.8855285644531 57.70447540283203 340.7989501953125 55.09891891479492 340.1048583984375 52.06847381591797 C 339.8937072753906 51.14662551879883 339.7164306640625 50.1744270324707 339.5734252929688 49.15541076660156 C 339.4321899414062 51.53087615966797 338.868896484375 53.84914779663086 337.8919372558594 56.0784912109375 C 339.0320739746094 59.32263565063477 339.6088562011719 62.36767578125 339.6088562011719 65.15169525146484 C 339.6088562011719 70.89836120605469 337.2049560546875 76.24080657958984 332.4639587402344 81.03036499023438 C 330.2564086914062 83.26058959960938 327.4906311035156 85.41169738769531 324.2436218261719 87.42391967773438 C 322.9091186523438 88.25088500976562 321.4753723144531 89.06560516357422 319.9497375488281 89.86432647705078 C 323.2287902832031 92.16383361816406 326.0077514648438 94.52912902832031 328.2524108886719 96.93424987792969 C 332.0425720214844 100.9954071044922 334.4528198242188 105.3121490478516 335.4163208007812 109.7654647827148 C 336.2329711914062 113.4427719116211 336.64697265625 117.0633163452148 336.64697265625 120.5272521972656 C 336.64697265625 123.3738250732422 336.3636474609375 126.1730346679688 335.8042907714844 128.8616027832031 C 336.3636779785156 131.8779144287109 336.64697265625 134.8535919189453 336.64697265625 137.7189178466797 C 336.64697265625 146.7858123779297 333.7996215820312 155.0809173583984 328.1841735839844 162.3738098144531 C 324.8271179199219 166.7471618652344 320.8079528808594 170.6250152587891 316.2375183105469 173.9002532958984 C 311.7021789550781 177.1505889892578 306.5062866210938 179.8909149169922 300.794189453125 182.0454711914062 C 295.1513061523438 184.1738128662109 288.8467407226562 185.7893676757812 282.0556335449219 186.8473663330078 C 275.3327331542969 187.8946990966797 267.9390869140625 188.4257049560547 260.0798645019531 188.4257049560547 Z M 83.74260711669922 92.94558715820312 L 97.84648132324219 92.94558715820312 L 90.79445648193359 74.59432983398438 L 83.74260711669922 92.94558715820312 Z M 632.1438598632812 188.1980285644531 C 626.4219360351562 188.1980285644531 621.3199462890625 187.8904724121094 616.9796142578125 187.2838134765625 C 612.4818725585938 186.6552581787109 608.6322021484375 185.6799163818359 605.5374145507812 184.38525390625 C 596.6077880859375 180.6493988037109 594.6885986328125 174.6222991943359 594.6515502929688 170.2224273681641 C 594.5490112304688 162.365478515625 591.9423217773438 156.3611755371094 586.6827392578125 151.8671417236328 C 581.2257690429688 147.2044372558594 572.7908325195312 144.1356201171875 561.608642578125 142.7444458007812 C 556.7974853515625 142.7437438964844 552.3056030273438 142.7221832275391 548.197509765625 142.6801910400391 L 548.197509765625 170.1859130859375 C 548.197509765625 176.2765808105469 545.4205322265625 181.1070251464844 540.1666259765625 184.155029296875 C 537.7755126953125 185.5422515869141 534.81640625 186.5833587646484 531.3712768554688 187.2495880126953 C 528.1167602539062 187.8789215087891 524.3062133789062 188.1980285644531 520.04541015625 188.1980285644531 C 515.5897216796875 188.1980285644531 511.6051940917969 187.8812561035156 508.2023010253906 187.256591796875 C 504.6148376464844 186.5980377197266 501.5319519042969 185.5700378417969 499.039306640625 184.2013702392578 C 493.5209655761719 181.1712493896484 490.5777282714844 176.3361358642578 490.5277404785156 170.2185821533203 L 490.5276184082031 170.1859130859375 L 490.5277404785156 17.62536430358887 C 490.57763671875 11.52803134918213 493.4478454589844 6.700586318969727 498.8283081054688 3.665030956268311 C 501.2698364257812 2.287475347518921 504.2879638671875 1.253253221511841 507.7989501953125 0.5909199118614197 C 511.1025695800781 -0.0322149395942688 514.9656982421875 -0.350143700838089 519.2821655273438 -0.3540398478507996 C 526.87353515625 -0.6569362878799438 534.2208251953125 -0.810524582862854 541.121826171875 -0.810524582862854 C 552.8612670898438 -0.810524582862854 563.7733154296875 -0.5121912360191345 573.5546264648438 0.07614210993051529 C 583.3748779296875 0.6666976809501648 592.340087890625 1.566919922828674 600.201171875 2.751697778701782 C 608.1341552734375 3.947253227233887 615.1829833984375 5.469141960144043 621.1517333984375 7.275142192840576 C 627.2610473632812 9.123697280883789 632.4457397460938 11.33380889892578 636.561767578125 13.84403133392334 C 653.1412963867188 23.95536422729492 661.5478515625 40.26336288452148 661.5478515625 62.3148078918457 C 661.5478515625 65.27772521972656 661.3953857421875 68.17282104492188 661.0944213867188 70.92870330810547 C 661.3953857421875 73.67347717285156 661.5478515625 76.55625915527344 661.5478515625 79.50536346435547 C 661.5478515625 87.94658660888672 660.3111572265625 95.63381195068359 657.8720703125 102.3534774780273 C 655.9055786132812 107.7712554931641 653.1221923828125 112.6662902832031 649.5739135742188 116.9559326171875 C 658.9601440429688 125.5518188476562 663.7116088867188 137.6520233154297 663.7116088867188 152.995361328125 C 663.7116088867188 155.0106658935547 663.3746948242188 156.9019470214844 662.7084350585938 158.6368408203125 C 663.3743896484375 162.2448120117188 663.7116088867188 166.1231689453125 663.7116088867188 170.1859130859375 C 663.7116088867188 176.3748016357422 660.5719604492188 181.2419128417969 654.6322021484375 184.2610321044922 C 651.9850463867188 185.6063690185547 648.7015991210938 186.6174774169922 644.8729858398438 187.2661437988281 C 641.2229614257812 187.8844757080078 636.9403076171875 188.1980285644531 632.1438598632812 188.1980285644531 Z M 548.197509765625 74.69515991210938 C 556.7003784179688 75.61830139160156 564.4605712890625 76.08547210693359 571.31005859375 76.08547210693359 C 578.6152954101562 76.08547210693359 584.8394165039062 75.88847351074219 589.8096313476562 75.49991607666016 C 594.6131591796875 75.12436676025391 598.3059692382812 74.56992340087891 600.7855224609375 73.85192108154297 C 601.7689819335938 73.56704711914062 602.5870361328125 73.11947631835938 603.26904296875 72.48394775390625 C 602.301025390625 71.67229461669922 601.0718383789062 70.99894714355469 599.5604248046875 70.44858551025391 C 595.654296875 69.02547454833984 585.0730590820312 67.32925415039062 556.842529296875 67.32925415039062 C 553.922119140625 67.32925415039062 551.0279541015625 67.38294219970703 548.197509765625 67.48928833007812 L 548.197509765625 74.69515991210938 Z"
                          stroke="none" fill="#fff"/>
                </g>
            </g>
            <g id="Group_3747" transform="translate(378.606 808.505)">
                <g id="Group_3746" transform="translate(0 0.614)">
                    <path id="Path_3574"
                          d="M51.948-90.552H20.506q-14.012,0-14.012-20.392,0-21.417,14.012-21.531H133.06q13.329.114,13.9,19.822l.114,1.709q0,20.392-14.012,20.392H101.618V16.989Q101.618,31,77.466,31q-25.4,0-25.518-14.012Zm175.779-45.454q46.252,0,65.162,24.607T311.8-51.933q0,34.746-18.911,59.352T227.727,32.027q-46.138,0-65.048-24.607T143.768-51.933q0-34.86,18.911-59.466T227.727-136.006Zm-.114,122.123a33.443,33.443,0,0,0,24.265-9.8q10.025-9.8,10.025-28.366T251.878-80.413a33.443,33.443,0,0,0-24.265-9.8,33.307,33.307,0,0,0-24.151,9.8q-10.025,9.8-10.025,28.366T203.462-23.68A33.307,33.307,0,0,0,227.613-13.883Zm205.626,45h-.228q-9.455,0-14.582-9.683L377.418-55.122V16.989Q377.418,31,353.267,31q-25.4,0-25.518-14.012V-118.348q.114-14.012,20.847-14.012t30.075-.228h.228q9.114,0,14.126,9.8l41.923,78.719v-74.276q0-14.012,24.151-14.012,25.4,0,25.518,14.012V16.989Q484.5,31,459.1,31,442.695,31,433.239,31.115Z"
                          transform="translate(-6.494 158.109)" fill="#0161e9"/>
                    <path id="Path_3573"
                          d="M51.948-90.552H20.506q-14.012,0-14.012-20.392,0-21.417,14.012-21.531H133.06q13.329.114,13.9,19.822l.114,1.709q0,20.392-14.012,20.392H101.618V16.989Q101.618,31,77.466,31q-25.4,0-25.518-14.012Zm175.779-45.454q46.252,0,65.162,24.607T311.8-51.933q0,34.746-18.911,59.352T227.727,32.027q-46.138,0-65.048-24.607T143.768-51.933q0-34.86,18.911-59.466T227.727-136.006Zm-.114,122.123a33.443,33.443,0,0,0,24.265-9.8q10.025-9.8,10.025-28.366T251.878-80.413a33.443,33.443,0,0,0-24.265-9.8,33.307,33.307,0,0,0-24.151,9.8q-10.025,9.8-10.025,28.366T203.462-23.68A33.307,33.307,0,0,0,227.613-13.883Zm205.626,45h-.228q-9.455,0-14.582-9.683L377.418-55.122V16.989Q377.418,31,353.267,31q-25.4,0-25.518-14.012V-118.348q.114-14.012,20.847-14.012t30.075-.228h.228q9.114,0,14.126,9.8l41.923,78.719v-74.276q0-14.012,24.151-14.012,25.4,0,25.518,14.012V16.989Q484.5,31,459.1,31,442.695,31,433.239,31.115Z"
                          transform="translate(-6.494 136.006)" fill="url(#linear-gradient-2)"/>
                </g>
                <path id="Union_17"
                      d="M156.185,165.529q-18.911-24.607-18.911-59.353,0-5.67.5-11.068-.5-5.383-.5-11.035,0-34.859,18.911-59.466T221.233,0Q267.485,0,286.4,24.607t18.911,59.466q0,5.652-.5,11.035.5,5.4.5,11.068,0,34.746-18.911,59.353t-65.163,24.606Q175.1,190.135,156.185,165.529Zm40.783-53.2a34.807,34.807,0,0,0,48.416,0,32.7,32.7,0,0,0,8.985-17.314Q252.18,84.338,245.385,77.7a34.807,34.807,0,0,0-48.416,0q-6.8,6.642-8.985,17.315A32.7,32.7,0,0,0,196.968,112.325Zm229.549,76.9q-9.454,0-14.581-9.683l-41.011-76.555V175.1q0,14.011-24.152,14.012-25.4,0-25.518-14.012V17.658Q321.369,3.645,342.1,3.646t30.076-.229h.228q9.112,0,14.126,9.8l41.923,78.72V17.658q0-14.013,24.151-14.012,25.4,0,25.518,14.012V175.1q-.112,14.011-25.518,14.012-16.4,0-25.86.114ZM45.455,175.1V67.558H14.012Q0,67.558,0,47.165A40.185,40.185,0,0,1,1.375,35.837,36.426,36.426,0,0,1,0,25.063Q0,3.645,14.012,3.532H126.566q13.328.113,13.9,19.822l.114,1.709a36.1,36.1,0,0,1-1.424,10.927,38.306,38.306,0,0,1,1.31,9.467l.114,1.709q0,20.392-14.012,20.392H95.124V175.1q0,14.011-24.151,14.012Q45.568,189.11,45.455,175.1Z"
                      transform="translate(0.614)" fill="none" stroke="#fff" stroke-miterlimit="10"
                      stroke-width="4"/>
            </g>
        </g>
    </g>

    <!-- Platform 5 -->
    <g id="group-5" transform="matrix(0.532414, -0.056184, 0.047645, 0.451494, -179.669, 889.098)">
        <use href="#platform"/>
    </g>
</svg>
