<svg xmlns="http://www.w3.org/2000/svg" width="219.926" height="422.269" viewBox="0 0 219.926 422.269">
    <g id="Group_810" transform="translate(216.484 -1149.685)">
        <path id="Path_3342"
              d="M-16.451,1504.158l-.518-1.456a37.761,37.761,0,0,1-2.092-11.307,13.915,13.915,0,0,0,4.251-8.444,105.493,105.493,0,0,0-13.774-66.778A103.871,103.871,0,0,0-77.7,1373.557c-.656-1.591-1.31-3.177-1.947-4.742a1.831,1.831,0,0,0-1.7-1.142h-43.664a1.829,1.829,0,0,0-1.7,1.142q-1.038,2.549-2.114,5.146a103.891,103.891,0,0,0-48.14,42.212,105.487,105.487,0,0,0-13.774,66.778,13.915,13.915,0,0,0,4.251,8.444,37.792,37.792,0,0,1-2.092,11.307l-.519,1.456c-.166.471-.339.943-.512,1.415a25.09,25.09,0,0,0-1.958,8.022,6.955,6.955,0,0,0,.583,3.23,4.042,4.042,0,0,0,3.113,2.308,3.844,3.844,0,0,0,3.261-1.392,7.9,7.9,0,0,0,1.357-2.549,85.348,85.348,0,0,0,2.711-9.551,86.356,86.356,0,0,0,1.117,12.7,8.8,8.8,0,0,0,.95,3.017,4.167,4.167,0,0,0,3.144,2.132c.105.009.208.014.313.014a4.323,4.323,0,0,0,3.408-1.845,7.474,7.474,0,0,0,1.233-3.348,28.306,28.306,0,0,0-.558-9.133c-.1-.551-.19-1.1-.277-1.648l-.167-1.021c1,2.725,2.086,5.573,3.225,8.143a7.889,7.889,0,0,0,1.521,2.458,3.86,3.86,0,0,0,3.343,1.175,4.041,4.041,0,0,0,2.956-2.505,6.823,6.823,0,0,0,.373-3.262,25.126,25.126,0,0,0-2.476-7.882c-.2-.459-.406-.916-.6-1.374-.448-1.046-.9-2.237-1.278-3.264a41.8,41.8,0,0,1-2.192-9.387l.052-.057c1.6,1.442,4.218,3.382,6.674,3.382.055,0,.109,0,.165,0a4.009,4.009,0,0,0,3.066-1.558,3,3,0,0,0,.274-3.133c-.846-2.194-3.549-4.942-6.673-7.325a13.908,13.908,0,0,0-.209-3.157,79.672,79.672,0,0,1,7.682-50.533,78.611,78.611,0,0,1,11.611-16.53c-7.749,21.839-11.9,41.773-4.327,54.644a39.339,39.339,0,0,0,5.251,7.04c2.6,24.342,7.3,53.613,10.473,66.379-6.292,5.166-13.528,13.391-14.112,17.063a2.452,2.452,0,0,0,.381,1.911,2.453,2.453,0,0,0,1.893.942c.09.006.186.01.282.01,2.738,0,8.034-2.592,12.961-5.625.819,6.36,2.406,12.557,4.248,14.524a2.458,2.458,0,0,0,1.743.872,2.457,2.457,0,0,0,1.9-.918c.061-.067.122-.141.182-.217,1.7-2.194,2.919-8.106,3.538-13.942,4.775,2.892,9.8,5.306,12.437,5.306.1,0,.192,0,.283-.01a2.455,2.455,0,0,0,1.893-.942,2.456,2.456,0,0,0,.381-1.911c-.607-3.809-8.362-12.5-14.8-17.609-.942-8.983-1-32.111.919-53.475a1.792,1.792,0,0,0-.036-.513,76.576,76.576,0,0,0,10.339.618c.986,0,1.909-.011,2.755-.021,1.507-.018,2.69-.018,4.2,0a80.978,80.978,0,0,0,15.033-.891c0,.01,0,.019,0,.029,1.987,21.469,1.96,44.8,1.016,54.051-6.487,5.083-14.435,13.955-15.049,17.811a2.456,2.456,0,0,0,.381,1.911,2.455,2.455,0,0,0,1.893.942c.091.006.186.01.283.01,2.738,0,8.033-2.592,12.961-5.625.818,6.36,2.406,12.557,4.248,14.524a2.458,2.458,0,0,0,1.743.872,2.46,2.46,0,0,0,1.9-.918c.06-.067.122-.141.181-.217,1.705-2.194,2.92-8.106,3.539-13.942,4.775,2.892,9.8,5.306,12.437,5.306.1,0,.192,0,.282-.01a2.453,2.453,0,0,0,1.893-.942,2.452,2.452,0,0,0,.381-1.911c-.579-3.638-7.68-11.727-13.93-16.9,3.3-13.2,8.279-44.495,10.8-69.294a40.6,40.6,0,0,0,2.912-4.289c7.732-13.143,3.243-33.651-4.822-56.032a78.956,78.956,0,0,1,12.915,17.918,79.665,79.665,0,0,1,7.681,50.533,13.965,13.965,0,0,0-.209,3.157c-3.123,2.383-5.826,5.131-6.672,7.325a3,3,0,0,0,.274,3.133,4.009,4.009,0,0,0,3.066,1.558c.055,0,.109,0,.164,0,2.456,0,5.07-1.94,6.675-3.382l.052.057a41.74,41.74,0,0,1-2.193,9.387c-.38,1.027-.83,2.218-1.278,3.264-.194.458-.4.915-.6,1.374a25.1,25.1,0,0,0-2.477,7.882,6.837,6.837,0,0,0,.374,3.262,4.039,4.039,0,0,0,2.956,2.505,3.858,3.858,0,0,0,3.342-1.175,7.892,7.892,0,0,0,1.522-2.458c1.139-2.57,2.223-5.418,3.225-8.143l-.167,1.021c-.088.548-.183,1.1-.278,1.648a28.277,28.277,0,0,0-.557,9.133,7.46,7.46,0,0,0,1.232,3.348,4.323,4.323,0,0,0,3.409,1.845c.1,0,.208-.005.312-.014a4.168,4.168,0,0,0,3.145-2.132,8.8,8.8,0,0,0,.949-3.017,86.218,86.218,0,0,0,1.117-12.7,85.348,85.348,0,0,0,2.711,9.551,7.924,7.924,0,0,0,1.357,2.549,3.845,3.845,0,0,0,3.261,1.392,4.039,4.039,0,0,0,3.113-2.308,6.957,6.957,0,0,0,.584-3.23,25.091,25.091,0,0,0-1.959-8.022C-16.112,1505.1-16.285,1504.629-16.451,1504.158Z"
              fill="#79ba14" stroke="#272b23" stroke-miterlimit="10" stroke-width="5" style="isolation: isolate"/>
        <path id="Path_3343"
              d="M-57.876,1465.41c-11.961,20.322-33.962,18.556-43.43,18.556-.381,0-.8,0-1.229.018,10.853-.243,26.64-2.476,36.108-18.574,11.961-20.339-7.564-61.432-21.585-95.913h8.534C-65.44,1403.978-45.915,1445.071-57.876,1465.41Z"
              fill="#55890d" style="isolation: isolate"/>
        <path id="Path_3344"
              d="M-149.6,1388.5c3.444-8.551,21.273-10.813,24.6-19h43.656c3.063,7.512,6.387,15.354,9.572,23.212a95.287,95.287,0,0,1-34.741,6.7"
              opacity="0.14"/>
        <g id="Group_809">
            <path id="Path_3345"
                  d="M1.61,1252.7c0,54.349-48.412,128.042-108.131,128.042S-214.652,1307.05-214.652,1252.7c0-68.184,40.07-101.183,108.131-101.183C-46.8,1151.518,1.61,1174.5,1.61,1252.7Z"
                  fill="#79ba14" style="isolation: isolate"/>
            <path id="Path_3346"
                  d="M1.615,1252.694c0,35.935-21.152,80.317-52.743,106.247,21.534-25.774,35.018-59.84,35.018-88.522,0-78.206-48.415-101.193-108.134-101.193-30.067,0-54.682,6.439-72.77,19.525,17.95-24.995,49.021-37.233,90.5-37.233C-46.8,1151.518,1.615,1174.505,1.615,1252.694Z"
                  fill="#55890d" style="isolation: isolate"/>
            <g id="Group_796" style="isolation: isolate">
                <path id="Path_3347"
                      d="M-106.521,1382.575c-28.047,0-55.715-15.75-77.907-44.349-19.772-25.481-32.056-58.252-32.056-85.525,0-33.928,9.806-60.009,29.144-77.519,18.688-16.919,45.878-25.5,80.819-25.5,72.966,0,109.963,34.66,109.963,103.016,0,27.273-12.283,60.044-32.055,85.525C-50.806,1366.825-78.474,1382.575-106.521,1382.575Zm0-229.225c-69.541,0-106.3,34.355-106.3,99.351,0,55.633,50.048,126.21,106.3,126.21s106.3-70.577,106.3-126.21c0-35.773-10.423-62.179-30.977-78.482C-48.659,1160.371-74,1153.35-106.521,1153.35Z"
                      fill="#272b23"/>
            </g>
            <g id="Group_808">
                <g id="Group_799">
                    <g id="Group_798">
                        <path id="Path_3348"
                              d="M-81.109,1319.238c-.221-39.113,32.042-61.652,66.293-47.068C-16.363,1312.388-57.244,1326.088-81.109,1319.238Z"/>
                        <g id="Group_797">
                            <path id="Path_3349"
                                  d="M-68.353,1322.772A48.2,48.2,0,0,1-81.616,1321a1.832,1.832,0,0,1-1.325-1.75c-.111-19.777,7.915-36.5,22.024-45.883,13.291-8.839,30.355-9.892,46.819-2.881a1.832,1.832,0,0,1,1.113,1.756c-.8,20.852-11.638,32.947-20.586,39.423A60.855,60.855,0,0,1-68.353,1322.772Zm-10.917-4.938c13.821,3.44,31.132-.153,43.55-9.139,8.107-5.867,17.886-16.723,19.011-35.325-14.941-5.978-30.246-4.891-42.179,3.046C-71.621,1284.886-79,1299.927-79.27,1317.834Z"/>
                        </g>
                    </g>
                    <circle id="Ellipse_102" cx="6.022" cy="6.022" r="6.022" transform="translate(-37.411 1284.6)"
                            fill="#fff"/>
                    <path id="Path_3350"
                          d="M-36.693,1300.317a3.674,3.674,0,0,1-3.674,3.674,3.674,3.674,0,0,1-3.673-3.674,3.674,3.674,0,0,1,3.673-3.674A3.674,3.674,0,0,1-36.693,1300.317Z"
                          fill="#fff"/>
                    <path id="Path_3351"
                          d="M-52.211,1280.217a69.686,69.686,0,0,0-19.675,28.9,1.77,1.77,0,0,1-3.42-.54c-.215-10.085,4.98-19.995,12.661-26.385a27.7,27.7,0,0,1,8.678-4.964,1.768,1.768,0,0,1,2.241,1.11,1.767,1.767,0,0,1-.485,1.874Z"
                          fill="#4d4d4d"/>
                </g>
                <g id="Group_802">
                    <g id="Group_801">
                        <path id="Path_3352"
                              d="M-128.083,1319.238c.221-39.113-32.042-61.652-66.293-47.068C-192.829,1312.388-151.949,1326.088-128.083,1319.238Z"/>
                        <g id="Group_800">
                            <path id="Path_3353"
                                  d="M-140.839,1322.772a60.845,60.845,0,0,1-34.782-11.108c-8.949-6.476-19.785-18.571-20.586-39.423a1.829,1.829,0,0,1,1.113-1.756c16.458-7.01,33.529-5.961,46.82,2.882,14.109,9.384,22.135,26.106,22.023,45.882a1.835,1.835,0,0,1-1.326,1.75A48.246,48.246,0,0,1-140.839,1322.772Zm12.756-3.534h0Zm-64.4-45.868c1.126,18.6,10.9,29.458,19.012,35.325,12.417,8.987,29.73,12.582,43.549,9.139-.266-17.906-7.647-32.947-20.38-41.417C-162.232,1268.483-177.543,1267.39-192.484,1273.37Z"/>
                        </g>
                    </g>
                    <circle id="Ellipse_103" cx="6.022" cy="6.022" r="6.022" transform="translate(-153.027 1284.6)"
                            fill="#fff"/>
                    <path id="Path_3354"
                          d="M-152.309,1300.317a3.674,3.674,0,0,1-3.674,3.674,3.674,3.674,0,0,1-3.674-3.674,3.674,3.674,0,0,1,3.674-3.674A3.674,3.674,0,0,1-152.309,1300.317Z"
                          fill="#fff"/>
                    <path id="Path_3355"
                          d="M-185.945,1278.065c6.31,9.452,11.449,19.5,19.373,27.722a1.77,1.77,0,0,1-1.989,2.824c-5.753-2.566-10.155-7.4-13.59-12.509a47.491,47.491,0,0,1-6.995-16.717,1.769,1.769,0,0,1,1.417-2.062,1.769,1.769,0,0,1,1.784.742Z"
                          fill="#4d4d4d"/>
                </g>
                <g id="Group_804">
                    <path id="Path_3356"
                          d="M-49.453,1249.094A25.87,25.87,0,0,0-71.4,1248.3a25.869,25.869,0,0,0-14.411,16.568A77.11,77.11,0,0,1-49.453,1249.094Z"
                          fill="#128240"/>
                    <g id="Group_803">
                        <path id="Path_3357"
                              d="M-85.806,1266.7a1.839,1.839,0,0,1-1-.3,1.836,1.836,0,0,1-.762-2.023,27.552,27.552,0,0,1,15.445-17.76,27.566,27.566,0,0,1,23.522.849,1.831,1.831,0,0,1,.959,1.926,1.832,1.832,0,0,1-1.533,1.51,75.664,75.664,0,0,0-35.471,15.386A1.827,1.827,0,0,1-85.806,1266.7Zm24.508-18.617a23.615,23.615,0,0,0-9.369,1.9,24.17,24.17,0,0,0-10.745,9.41,80.814,80.814,0,0,1,25.067-10.807A24.655,24.655,0,0,0-61.3,1248.085Z"
                              fill="#0e6932"/>
                    </g>
                </g>
                <g id="Group_806">
                    <path id="Path_3358"
                          d="M-163.589,1249.094a25.87,25.87,0,0,1,21.943-.792,25.872,25.872,0,0,1,14.411,16.568A77.11,77.11,0,0,0-163.589,1249.094Z"
                          fill="#128240"/>
                    <g id="Group_805">
                        <path id="Path_3359"
                              d="M-127.235,1266.7a1.827,1.827,0,0,1-1.156-.41,75.681,75.681,0,0,0-35.471-15.386,1.833,1.833,0,0,1-1.534-1.51,1.833,1.833,0,0,1,.959-1.926,27.565,27.565,0,0,1,23.521-.849,27.566,27.566,0,0,1,15.447,17.76,1.832,1.832,0,0,1-.763,2.023A1.836,1.836,0,0,1-127.235,1266.7Zm-29.461-18.116a80.816,80.816,0,0,1,25.064,10.806,24.165,24.165,0,0,0-10.744-9.409A24.15,24.15,0,0,0-156.7,1248.586Z"
                              fill="#0e6932"/>
                    </g>
                </g>
                <g id="Group_807">
                    <path id="Path_3360"
                          d="M-103.336,1350.33a28.592,28.592,0,0,1-21-9.362,1.831,1.831,0,0,1,.14-2.587,1.831,1.831,0,0,1,2.587.139,24.881,24.881,0,0,0,18.27,8.146h.238a24.868,24.868,0,0,0,18.334-8.521,1.83,1.83,0,0,1,2.583-.193,1.831,1.831,0,0,1,.194,2.584,28.579,28.579,0,0,1-21.075,9.794Z"/>
                </g>
            </g>
        </g>
    </g>
</svg>
