<svg xmlns="http://www.w3.org/2000/svg" width="53.154" height="97.164" viewBox="0 0 53.154 97.164">
    <g id="Group_3851" transform="translate(-7751.653 -3726.106)">
        <g id="Group_600" transform="matrix(0.998, -0.07, 0.07, 0.998, 7766.378, 3794.442)">
            <g id="Group_596" transform="translate(0.873 0.864)">
                <path id="Path_3137"
                      d="M17.97,1.82s8.42,8.48-9.017,24.866a1.77,1.77,0,0,1-2.724-.361C3.079,21.175-4.85,6.315,4.193,0Z"
                      fill="#e71818"/>
            </g>
            <g id="Group_597" transform="translate(4.151 1.094)">
                <path id="Path_3138"
                      d="M12.706,1.287s5.975,6.019-6.443,17.646a1.178,1.178,0,0,1-1.809-.241C2.26,15.127-3.476,4.5,2.964,0Z"
                      fill="#e6a800"/>
            </g>
            <g id="Group_598" transform="translate(6.763 0.785)">
                <path id="Path_3139"
                      d="M8.573.868s4.032,4.061-4.348,11.906A.8.8,0,0,1,3,12.612C1.525,10.206-2.346,3.035,2,0Z"
                      fill="#fffc01"/>
            </g>
            <g id="Group_599" transform="translate(0 0)">
                <path id="Path_3140"
                      d="M10.021,28.488a2.633,2.633,0,0,1-3.655-.848A48.7,48.7,0,0,1,.672,14.667C-.948,7.976.364,3.093,4.57.156A.849.849,0,0,1,5.178.007l13.778,1.82a.862.862,0,0,1,.5.248,9.811,9.811,0,0,1,2.281,6.906c-.1,5.776-3.909,12.235-11.319,19.2A2.655,2.655,0,0,1,10.021,28.488ZM5.293,1.765C-2.8,7.842,5.177,22.387,7.839,26.738a.89.89,0,0,0,.649.424.912.912,0,0,0,.747-.241C17.984,18.7,19.922,12.65,20.008,9.023A8.54,8.54,0,0,0,18.4,3.5Z"
                      fill="#371a45"/>
            </g>
        </g>
        <g id="Group_868" transform="translate(7764.834 3786.493)">
            <g id="Group_601" transform="matrix(0.998, -0.07, 0.07, 0.998, 0, 1.8)">
                <path id="Path_3141"
                      d="M24.567,2.446a36.812,36.812,0,0,1,1.2,4.724,2.089,2.089,0,0,1-1.66,2.4,34.232,34.232,0,0,1-8.4.825A39.235,39.235,0,0,1,1.3,7.207,2.038,2.038,0,0,1,.191,4.466L2.3,0,15.571,1.457Z"
                      fill="#9da9b9"/>
            </g>
            <g id="Group_603" transform="matrix(0.998, -0.07, 0.07, 0.998, 0.541, 1.732)" opacity="0.6">
                <path id="Path_3143"
                      d="M22.857,2.446c.056.175.109.352.162.532L4.189.752,2.228,5.219A2.139,2.139,0,0,0,3.511,7.887c.437.2,1.079.275,1.656.507-1.455-.485-3.12-1.019-4.019-1.44A1.788,1.788,0,0,1,.191,4.466L2.15,0Z"
                      fill="#fff"/>
            </g>
        </g>
        <g id="Group_601-2" transform="matrix(0.998, -0.07, 0.07, 0.998, 7765.898, 3787.293)">
            <g id="Path_3141-2" fill="none">
                <path d="M22.843,2.446A39.118,39.118,0,0,1,23.959,7.17a2.085,2.085,0,0,1-1.543,2.4,29.679,29.679,0,0,1-7.814.825A34.374,34.374,0,0,1,1.21,7.207,2.1,2.1,0,0,1,.177,4.466L2.136,0,14.479,1.457Z"
                      stroke="none"/>
                <path d="M 2.136287689208984 2.86102294921875e-06 L 0.1772480010986328 4.465822696685791 C -0.2807636260986328 5.5078125 0.1790180206298828 6.724612236022949 1.210386276245117 7.207032203674316 C 3.713687896728516 8.377442359924316 8.596676826477051 10.23828220367432 14.60168743133545 10.38965225219727 C 17.04809379577637 10.45312213897705 19.68163681030273 10.23144245147705 22.4161376953125 9.564942359924316 C 23.48125648498535 9.303712844848633 24.15307807922363 8.248043060302734 23.9594669342041 7.169922828674316 C 23.72265815734863 5.843752384185791 23.34722709655762 4.032222270965576 22.843017578125 2.446292877197266 L 14.47869682312012 1.457032203674316 L 2.136287689208984 2.86102294921875e-06 M 0.8997879028320312 -2.159857749938965 L 24.35835647583008 0.611572265625 L 24.74900817871094 1.840322494506836 C 25.29657745361328 3.562642574310303 25.69255638122559 5.498042583465576 25.9283275604248 6.818352699279785 C 26.30862808227539 8.936042785644531 24.97529792785645 10.99656295776367 22.89253807067871 11.50737285614014 C 20.46141815185547 12.09993267059326 17.94181823730469 12.40004253387451 15.40094757080078 12.40004253387451 C 15.11898708343506 12.40004253387451 14.83261680603027 12.39632225036621 14.5497875213623 12.38898277282715 C 8.132327079772949 12.22721290588379 2.90684700012207 10.20801258087158 0.3633079528808594 9.018782615661621 C -0.6111221313476562 8.563002586364746 -1.356573104858398 7.758062362670898 -1.736013412475586 6.752102851867676 C -2.116123199462891 5.74434232711792 -2.086883544921875 4.64658260345459 -1.653682708740234 3.661032676696777 L 0.8997879028320312 -2.159857749938965 Z"
                      stroke="none" fill="#371a45"/>
            </g>
        </g>
        <g id="Group_867" transform="translate(7753.652 3728.301)">
            <g id="Group_866" transform="translate(3)">
                <path id="Union_11"
                      d="M12.858,60.446h-.006c-2.978-.182-5.359-.432-6.889-.623a4.568,4.568,0,0,1-3.013-1.65l-2.074-2.6A3.95,3.95,0,0,1,0,52.95L1.457,17.682a15.5,15.5,0,0,1,1.251-5.547C6.607,3.152,20.395,0,20.395,0l.035.034L20.467,0S33.822,3.152,37.719,12.136a15.5,15.5,0,0,1,1.251,5.547L40.424,52.95a3.95,3.95,0,0,1-.873,2.623l-2.073,2.6a4.57,4.57,0,0,1-3.014,1.65c-1.529.191-3.909.441-6.888.623,0,0,0,0-.006,0-2.137.128-4.584.218-7.246.217h-.238C17.43,60.662,14.99,60.573,12.858,60.446Z"
                      transform="translate(1.15 0.5)" fill="#fff"/>
                <g id="Group_606" transform="matrix(0.998, -0.07, 0.07, 0.998, 0, 44.002)">
                    <path id="Path_3146"
                          d="M41.5,13.314c-1.378.929-3.35,3.917-4.755,4.814a7.791,7.791,0,0,1-5.058.936A174.784,174.784,0,0,1,6.037,16.97a4.569,4.569,0,0,1-2.819-2.037L1.026,12.249A3.449,3.449,0,0,1,.209,9.642L1.359.02,42.545,2.879Z"
                          transform="translate(0.384 0.027)" fill="#e71818"/>
                </g>
                <path id="Subtraction_2"
                      d="M15.545,60.661c-1.854,0-3.738-.073-5.6-.217l0,0c-2.379-.189-4.211-.444-5.329-.624a3.435,3.435,0,0,1-2.331-1.65l-1.6-2.6A4.769,4.769,0,0,1,0,52.948L1.127,17.681a19.347,19.347,0,0,1,.968-5.548A17.574,17.574,0,0,1,9.033,3.383,26.67,26.67,0,0,1,15.4.123L15.5,0l.03.009.11.035L15.776,0l.032.04.064.081c.243.083.5.178.767.281C13.665,1.553,6.491,5,4.094,12.134a19.347,19.347,0,0,0-.967,5.548L2,52.948a4.76,4.76,0,0,0,.675,2.623l1.6,2.6a3.439,3.439,0,0,0,2.332,1.65c1.119.181,2.951.435,5.328.624l0,0c1.553.12,3.131.192,4.69.211l-.039,0c-.289,0-.579,0-.864,0h-.189Z"
                      transform="translate(1.65 0.501)" fill="#fff" opacity="0.35"/>
                <g id="Union_15" transform="translate(1.65 0)" fill="none" stroke-miterlimit="10">
                    <path d="M12.858,60.446h-.006c-2.978-.182-5.359-.432-6.889-.623a4.568,4.568,0,0,1-3.013-1.65l-2.074-2.6A3.95,3.95,0,0,1,0,52.95L1.457,17.682a15.5,15.5,0,0,1,1.251-5.547C6.607,3.152,20.395,0,20.395,0l.035.034L20.467,0S33.822,3.152,37.719,12.136a15.5,15.5,0,0,1,1.251,5.547L40.424,52.95a3.95,3.95,0,0,1-.873,2.623l-2.073,2.6a4.57,4.57,0,0,1-3.014,1.65c-1.529.191-3.909.441-6.888.623,0,0,0,0-.006,0-2.137.128-4.584.218-7.246.217h-.238C17.43,60.662,14.99,60.573,12.858,60.446Z"
                          stroke="none"/>
                    <path d="M 20.0860767364502 60.66231155395508 C 20.17169761657715 60.66231155395508 20.25716209411621 60.66206741333008 20.34318542480469 60.66207504272461 C 22.99855422973633 60.66207504272461 25.43820190429688 60.57285690307617 27.57056427001953 60.44490051269531 C 27.57172775268555 60.44670104980469 27.57405281066895 60.44490051269531 27.57638931274414 60.44670104980469 C 30.55477714538574 60.26490020751953 32.93515396118164 60.01469802856445 34.46390151977539 59.82389831542969 C 35.66688919067383 59.67449951171875 36.75586318969727 59.07959747314453 37.47835159301758 58.17419815063477 L 39.55158996582031 55.57229995727539 C 40.15541458129883 54.8135986328125 40.46140289306641 53.89019775390625 40.42416381835938 52.94969940185547 L 38.96987533569336 17.68229866027832 C 38.89192581176758 15.78149890899658 38.48472595214844 13.8986988067627 37.71918869018555 12.13559913635254 C 33.82168960571289 3.151799201965332 20.46665191650391 -7.629394644936838e-07 20.46665191650391 -7.629394644936838e-07 C 20.46665191650391 -7.629394644936838e-07 20.45382690429688 0.01221173722296953 20.42912673950195 0.03579923883080482 C 20.40632629394531 0.01338673662394285 20.3945140838623 0.001799237099476159 20.3945140838623 0.001799237099476159 C 20.3945140838623 0.001799237099476159 6.606677055358887 3.151799201965332 2.708014488220215 12.13559913635254 C 1.942477107048035 13.8986988067627 1.535277009010315 15.78149890899658 1.457327008247375 17.68229866027832 L 0.003039566101506352 52.94969940185547 C -0.03419793397188187 53.89019775390625 0.2717895805835724 54.8135986328125 0.8756145834922791 55.57229995727539 L 2.950014591217041 58.17419815063477 C 3.671339511871338 59.07959747314453 4.761476993560791 59.67449951171875 5.963302135467529 59.82389831542969 C 7.49321460723877 60.01469802856445 9.873601913452148 60.26490020751953 12.85198974609375 60.44670104980469 C 12.85392665863037 60.4452018737793 12.85470104217529 60.44619369506836 12.85663986206055 60.44619750976562 C 12.85702705383301 60.44619750976562 12.85741424560547 60.44609832763672 12.85780239105225 60.44580078125 C 14.99046421051025 60.57331085205078 17.43026542663574 60.66232299804688 20.0860767364502 60.66231155395508 M 20.08609008789062 62.66231155395508 L 20.0860767364502 62.66231155395508 C 17.90128707885742 62.66232299804688 15.68489837646484 62.60260772705078 13.48665428161621 62.48467254638672 L 13.48128986358643 62.48882293701172 L 12.78278350830078 62.44619750976562 L 12.60273933410645 62.44619750976562 L 12.54619312286377 62.4316291809082 C 9.51545524597168 62.24234771728516 7.164749622344971 61.98922729492188 5.715789794921875 61.80852508544922 C 4.003814697265625 61.59571075439453 2.425289630889893 60.72525024414062 1.385752081871033 59.42043685913086 L -0.6882104277610779 56.81907272338867 C -1.587622880935669 55.68897247314453 -2.051485538482666 54.28717422485352 -1.995397925376892 52.87057495117188 L -0.5409729480743408 17.59989929199219 C -0.4507354199886322 15.39941215515137 0.02516456693410873 13.29279899597168 0.8734895586967468 11.33904933929443 C 1.885952115058899 9.005973815917969 3.551577091217041 6.847286701202393 5.823902130126953 4.923286914825439 C 7.580114364624023 3.436311721801758 9.705026626586914 2.082899332046509 12.13962745666504 0.9006742238998413 C 15.43449020385742 -0.6992995738983154 18.38860321044922 -1.547203421592712 19.49332809448242 -1.834847450256348 L 19.87183952331543 -2.195263147354126 L 20.44232749938965 -2.060657262802124 L 21.01470184326172 -2.191425800323486 L 21.38429069519043 -1.828887820243835 C 22.46966934204102 -1.536405920982361 25.32948112487793 -0.6864220499992371 28.52501487731934 0.9096367359161377 C 30.89585113525391 2.093786716461182 32.96953964233398 3.448949337005615 34.6884765625 4.937461853027344 C 36.9077033996582 6.859224319458008 38.5446891784668 9.013212203979492 39.55396270751953 11.33961200714111 C 40.40203857421875 13.29279899597168 40.8779411315918 15.39941215515137 40.96820068359375 17.60034942626953 L 42.42246627807617 52.8672981262207 C 42.47869110107422 54.28717422485352 42.01482772827148 55.68897247314453 41.11647796630859 56.8177375793457 L 39.04251480102539 59.42054748535156 C 38.00076293945312 60.72604751586914 36.42207717895508 61.59607315063477 34.71038818359375 61.80865097045898 C 33.23510360717773 61.9927864074707 30.81980133056641 62.25244903564453 27.69824028015137 62.44298553466797 L 26.95005226135254 62.4886474609375 L 26.94376945495605 62.48381042480469 C 24.74618721008301 62.6021614074707 22.52950477600098 62.66207504272461 20.34318923950195 62.66207504272461 L 20.08609008789062 62.66231155395508 Z"
                          stroke="none" fill="#371a45"/>
                </g>
            </g>
            <g id="Rectangle_375" transform="translate(0 22.5)" fill="#0096f0" stroke="#371a45" stroke-width="2">
                <rect width="49.154" height="9" rx="2" stroke="none"/>
                <rect x="-1" y="-1" width="51.154" height="11" rx="3" fill="none"/>
            </g>
        </g>
    </g>
</svg>
