<svg xmlns="http://www.w3.org/2000/svg" width="302" height="401" viewBox="15 0 302 401">
    <g id="Group_3752" transform="translate(-7670.458 -2214.365)">
        <g id="Group_847" transform="translate(7670.458 2214.365)">
            <g id="Group_844" transform="translate(213.035 58.923)">
                <g id="Rectangle_373" fill="#fff" stroke="#341a41" stroke-width="3">
                    <rect width="60.606" height="67.34" rx="15" stroke="none"/>
                    <rect x="1.5" y="1.5" width="57.606" height="64.34" rx="13.5" fill="none"/>
                </g>
                <path id="Path_3476" d="M7554.528,3781.329s-1.353,19.743-17.731,20.886-19.934,0-19.934,0l.775-20.447Z"
                      transform="translate(-7499.639 -3741.796)" fill="#d0d8eb"/>
            </g>
            <g id="Group_845" transform="translate(56.468 58.923)">
                <g id="Rectangle_373-2" fill="#fff" stroke="#341a41" stroke-width="3">
                    <rect width="60.606" height="67.34" rx="15" stroke="none"/>
                    <rect x="1.5" y="1.5" width="57.606" height="64.34" rx="13.5" fill="none"/>
                </g>
                <path id="Path_3476-2" d="M7516.863,3781.329s1.353,19.743,17.731,20.886,19.934,0,19.934,0l-.775-20.447Z"
                      transform="translate(-7511.146 -3741.796)" fill="#d0d8eb"/>
            </g>
            <g id="Group_843" transform="translate(73.303 0)">
                <g id="Ellipse_106" fill="#fff" stroke="#341a41" stroke-width="3">
                    <circle cx="91.751" cy="91.751" r="91.751" stroke="none"/>
                    <circle cx="91.751" cy="91.751" r="90.251" fill="none"/>
                </g>
                <path id="Subtraction_1"
                      d="M83.333,111.112A82,82,0,0,1,50.9,104.488,83.009,83.009,0,0,1,24.408,86.423,84.515,84.515,0,0,1,0,26.82,85.06,85.06,0,0,1,4.307,0,83.339,83.339,0,0,0,83.333,57.472,83.342,83.342,0,0,0,162.36,0a85.057,85.057,0,0,1,4.307,26.82,84.515,84.515,0,0,1-24.408,59.6,83.01,83.01,0,0,1-26.489,18.064A82,82,0,0,1,83.333,111.112Z"
                      transform="translate(8.418 65.657)" fill="#cfdbea"/>
            </g>
            <g id="Group_205" transform="matrix(0.978, 0.208, -0.208, 0.978, 224.138, 134.608)">
                <g id="Group_199" transform="translate(1.799 1.8)">
                    <path id="Path_674"
                          d="M82.992,94.5c-5.584,7.931-13.389,3.488-17-11.269A183.858,183.858,0,0,1,0,49.588l12.341-30.3Q14.7,9.643,17.053,0L76.979,50.405a5.544,5.544,0,0,0,3.335,1.527c17.25,1.6,25.9,8.905,26.14,19.531.112,4.815-1.5,10.308-4.817,16.263A21.912,21.912,0,0,1,92.7,96.537C88.529,98.709,85.107,98.591,82.992,94.5Z"
                          fill="#fff"/>
                </g>
                <g id="Group_200" transform="translate(1.799 25.724)">
                    <path id="Path_675"
                          d="M82.992,70.579c-5.584,7.929-13.389,3.487-17-11.27A183.868,183.868,0,0,1,0,25.666L10.451,0a26.81,26.81,0,0,1,4.994,1.126c1.579.52,3.407,1.9,3.08,3.359,8.2,15.832,19.03,31.469,35.243,38.845,5.846,2.66,13.048,4.967,14.975,11.1.727,2.312.521,4.792.571,7.216s.438,5.007,2.067,6.8,4.848,2.275,6.384.4a11.122,11.122,0,0,0,1.274-2.656c1.345-2.993,5.566-4.846,8.017-2.663.64.569,1.081,1.338,1.736,1.889,2.487,2.1,6.279.111,8.58-2.186a34.576,34.576,0,0,0,9.011-15.766c.021.024.05.051.071.075.112,4.813-1.5,10.308-4.817,16.264A21.924,21.924,0,0,1,92.7,72.614C88.529,74.786,85.107,74.668,82.992,70.579Z"
                          fill="#d3e4ef"/>
                </g>
                <g id="Group_201" transform="translate(0 0)">
                    <path id="Path_676"
                          d="M.141,52.087a1.8,1.8,0,0,1-.008-1.378L12.424,20.525,17.1,1.371a1.8,1.8,0,0,1,2.9-.949l59.927,50.4c.032.026.062.055.092.083a3.752,3.752,0,0,0,2.25,1.031c12.977,1.2,21.858,5.679,25.685,12.941,3.586,6.8,2.559,15.625-2.956,25.522a23.584,23.584,0,0,1-9.678,9.531c-2.991,1.558-5.5,1.978-7.685,1.285a6.8,6.8,0,0,1-2.989-1.953c-2.162,2.162-4.657,3.076-7.2,2.594-4.75-.9-8.786-6.481-11.152-15.369C42.522,79.853,21.047,68.826.688,52.8A1.79,1.79,0,0,1,.141,52.087ZM19.911,5.043l-4.025,16.47a1.792,1.792,0,0,1-.081.252L3.978,50.809A180.847,180.847,0,0,0,68.261,83.3a1.8,1.8,0,0,1,1.275,1.31c2.289,9.344,5.938,13.212,8.589,13.716,2.218.421,4.049-1.431,5.2-3.059a1.8,1.8,0,0,1,3.068.213,4.225,4.225,0,0,0,2.34,2.312c1.206.383,2.867.03,4.939-1.048a20,20,0,0,0,8.2-8.093c4.894-8.783,5.905-16.424,2.916-22.089-3.231-6.134-11.126-9.949-22.832-11.033a7.367,7.367,0,0,1-4.371-1.981Z"
                          fill="#371a45"/>
                </g>
                <g id="Group_202" transform="translate(82.538 88.488)">
                    <path id="Path_677"
                          d="M1.25,9.39A13.913,13.913,0,0,1,.18,1.5,1.8,1.8,0,1,1,3.727,2.1,10.553,10.553,0,0,0,4.762,8.443,1.8,1.8,0,1,1,1.489,9.935Q1.364,9.661,1.25,9.39Z"
                          fill="#371a45"/>
                </g>
                <g id="Group_203" transform="translate(80.503 87.83)">
                    <path id="Path_678"
                          d="M8.576,2.763C5.457,2.454,2.845,2.028,0,3.578c.085-4.423,7.352-4.8,8.576-.815Z"
                          fill="#371a45"/>
                </g>
                <g id="Group_204" transform="translate(37.291 36.386)">
                    <path id="Path_679"
                          d="M.126,38.567a1.512,1.512,0,0,1-.117-.549C-.388,20.242,11.679,1.057,23.921,0A1.5,1.5,0,0,1,24.18,3c-4.81.412-10.21,4.7-14.446,11.464A43.718,43.718,0,0,0,3.009,37.954a1.5,1.5,0,0,1-2.883.613Z"
                          fill="#371a45"/>
                </g>
            </g>
            <g id="Group_846" transform="matrix(-0.978, 0.208, -0.208, -0.978, 128.859, 234.367)">
                <g id="Group_199-2" transform="translate(1.799 1.801)">
                    <path id="Path_674-2"
                          d="M82.992,3.883C77.407-4.048,69.6.395,65.989,15.152A183.869,183.869,0,0,0,0,48.8L12.341,79.1q2.359,9.64,4.712,19.283L76.979,47.98a5.544,5.544,0,0,1,3.335-1.527c17.25-1.6,25.9-8.906,26.14-19.531.112-4.815-1.5-10.308-4.817-16.263A21.914,21.914,0,0,0,92.7,1.848C88.529-.324,85.107-.205,82.992,3.883Z"
                          transform="translate(0 0)" fill="#fff"/>
                </g>
                <g id="Group_200-2" transform="translate(1.799 1.801)">
                    <path id="Path_675-2"
                          d="M82.991,3.882C77.407-4.047,69.6.4,65.989,15.151A183.876,183.876,0,0,0,0,48.8L10.451,74.461a26.867,26.867,0,0,0,4.994-1.126c1.579-.52,3.407-1.9,3.08-3.36,8.2-15.831,19.03-31.469,35.243-38.845,5.846-2.66,13.048-4.967,14.975-11.1.727-2.312.521-4.792.571-7.216s.438-5.007,2.067-6.8,4.848-2.275,6.384-.4a11.119,11.119,0,0,1,1.274,2.657c1.345,2.993,5.565,4.846,8.017,2.663.64-.569,1.081-1.337,1.736-1.888,2.487-2.1,6.279-.112,8.58,2.185A34.579,34.579,0,0,1,106.383,27c.021-.025.05-.051.071-.076.112-4.814-1.5-10.307-4.817-16.264A21.929,21.929,0,0,0,92.7,1.847C88.529-.325,85.107-.207,82.991,3.882Z"
                          transform="translate(0 0)" fill="#d3e4ef"/>
                </g>
                <g id="Group_201-2" transform="translate(0 0)">
                    <path id="Path_676-2"
                          d="M.141,49.9a1.8,1.8,0,0,0-.008,1.379L12.423,81.46,17.1,100.614a1.8,1.8,0,0,0,2.9.949l59.927-50.4c.032-.026.062-.054.092-.083a3.749,3.749,0,0,1,2.25-1.031c12.977-1.2,21.859-5.679,25.685-12.941,3.586-6.8,2.559-15.625-2.956-25.523a23.585,23.585,0,0,0-9.678-9.531C92.337.494,89.823.074,87.643.766a6.8,6.8,0,0,0-2.989,1.953C82.492.557,80-.357,77.457.126c-4.75.9-8.786,6.481-11.153,15.369C42.522,22.133,21.047,33.16.688,49.183A1.8,1.8,0,0,0,.141,49.9Zm19.77,47.045-4.025-16.47a1.734,1.734,0,0,0-.081-.252L3.978,51.177A180.846,180.846,0,0,1,68.261,18.689a1.8,1.8,0,0,0,1.275-1.309c2.289-9.344,5.938-13.212,8.589-13.716,2.218-.421,4.049,1.43,5.2,3.058a1.8,1.8,0,0,0,3.068-.212A4.225,4.225,0,0,1,88.728,4.2c1.206-.383,2.867-.03,4.939,1.047a20,20,0,0,1,8.2,8.093c4.894,8.783,5.905,16.424,2.916,22.089-3.231,6.133-11.126,9.949-22.832,11.033a7.364,7.364,0,0,0-4.371,1.981Z"
                          fill="#371a45"/>
                </g>
                <g id="Group_202-2" transform="translate(82.538 2.508)">
                    <path id="Path_677-2"
                          d="M1.25,1.6A13.911,13.911,0,0,0,.18,9.493a1.8,1.8,0,1,0,3.547-.607,10.551,10.551,0,0,1,1.035-6.34A1.8,1.8,0,1,0,1.489,1.055Q1.364,1.329,1.25,1.6Z"
                          transform="translate(0 0)" fill="#371a45"/>
                </g>
                <g id="Group_203-2" transform="translate(80.503 10.579)">
                    <path id="Path_678-2" d="M8.576.815C5.457,1.124,2.845,1.55,0,0,.085,4.423,7.352,4.8,8.576.815Z"
                          transform="translate(0 0)" fill="#371a45"/>
                </g>
                <g id="Group_204-2" transform="translate(37.291 26.113)">
                    <path id="Path_679-2"
                          d="M.126.919a1.512,1.512,0,0,0-.117.549C-.388,19.245,11.679,38.43,23.92,39.481a1.5,1.5,0,0,0,.26-2.991c-4.81-.413-10.21-4.7-14.446-11.464A43.721,43.721,0,0,1,3.009,1.533,1.5,1.5,0,0,0,.126.919Z"
                          transform="translate(0 0)" fill="#371a45"/>
                </g>
            </g>
            <g id="Rectangle_370" transform="translate(74.542 148.149)" fill="#fff"
               stroke="#341a41" stroke-width="3">
                <rect width="180.136" height="144.782" rx="23" stroke="none"/>
                <rect x="1.5" y="1.5" width="177.136" height="141.782" rx="21.5" fill="none"/>
            </g>
            <path id="Path_3471"
                  d="M7695.566,4110.04l28.586-.006,3.119-4.8-10.5-2.754-24.182,5.374Z"
                  transform="translate(-7595.647 -4052.853)" fill="#cad8e1"/>
            <g id="Group_842" transform="translate(92.059 292.931)">
                <path id="Path_3468"
                      d="M7426.976,3905.276l7.5,73.27,10.084,1.9s-27.4-5.9-24.925,25.876c-.381.19,1.141,2.283,12.177,2.093s45.854,0,45.854,0,9.514,1.9,11.226-20.168,5.339-68.49,5.339-68.49h6.469l5.521,75.879s-1.177,12.9,13.009,12.678,50.543,0,50.543,0,15.437-13.958-9.895-27.806l-11.7,1.373,12.211-3.637,5.406-76.55-139.292.031Z"
                      transform="translate(-7419.472 -3901.696)" fill="#fff" stroke="#341a41" stroke-linecap="round"
                      stroke-linejoin="round" stroke-width="3"/>
                <path id="Path_3469" d="M7446.166,3908.572c.979.587,28.384,11.941,51.091,0"
                      transform="translate(-7393.977 -3896.21)" fill="none" stroke="#341a41" stroke-linecap="round"
                      stroke-width="2"/>
                <path id="Path_3472"
                      d="M7734.631,4101.785s.989,4.255-3.772,8.99c-4.708,1.184-48.374-.1-48.374-.1l2.691-2.9,43.464-2.58c-.213-.048,4.481-2.225,4.481-2.225Z"
                      transform="translate(-7581.5 -4005.676)" fill="#cad8e1"/>
                <path id="Path_3474"
                      d="M7685.475,4101.95s-2.49-1.292-1.626,7.834c4.077,1.973,48.665.815,48.665.815l-2.617-2.9-42.266-2.58c.208-.048-.687-1.989-.687-1.989Z"
                      transform="translate(-7682.086 -4005.606)" fill="#cad8e1"/>
                <path id="Path_3470"
                      d="M7465.835,3916.878c.295-.2.7-14.421.7-14.421l66.737.05-.666,12.457-48.651,14.753,4.977,56.933s-1.61,8.635,9.659,10.245,43.332-.079,43.332-.079,3.375,8.039-17.427,8.421-32.537.244-32.537.244-16.054,3.561-16.054-13.124-4.062-72.123-4.062-72.123a50.909,50.909,0,0,0,21.9-7.435C7493.915,3912.86,7470.477,3919.936,7465.835,3916.878Z"
                      transform="translate(-7388.808 -3900.789)" fill="#cad8e1"/>
                <path id="Path_3473"
                      d="M7542.292,3916.833c-.295-.2.237-14.389.237-14.389l-68.177.072.666,12.458,48.651,14.752-4.977,56.934s1.609,8.635-9.659,10.245-42.32.155-42.32.155-4.387,7.8,16.415,8.187,34.522,1.236,34.522,1.236,14.428,2.525,14.428-14.159c0-.017,5.892-72.524,5.892-72.524s-12.938-.093-24.089-6.989C7513.713,3912.869,7537.651,3919.89,7542.292,3916.833Z"
                      transform="translate(-7464.765 -3900.797)" fill="#cad8e1"/>
            </g>
            <path id="Path_3475"
                  d="M7419.519,3874.8s102.324,24.678,164.621-1.5c.905.6,0,27.087,0,27.087s6.827,17.174-24.194,17.174H7435.167s-16.479,1.158-15.647-14.121A276.121,276.121,0,0,0,7419.519,3874.8Z"
                  transform="translate(-7337.768 -3631.452)" fill="#cfdbea"/>
        </g>
        <g id="Rectangle_376" transform="translate(7746.216 2429.821)" fill="none"
           stroke="#341a41" stroke-width="2">
            <rect width="65.657" height="18.519" stroke="none"/>
            <rect x="1" y="1" width="63.657" height="16.519" fill="none"/>
        </g>
        <g id="Rectangle_377" transform="translate(7859.011 2429.821)" fill="none"
           stroke="#341a41" stroke-width="2">
            <rect width="65.657" height="18.519" stroke="none"/>
            <rect x="1" y="1" width="63.657" height="16.519" fill="none"/>
        </g>
        <g id="Group_872" transform="translate(7794.979 2372.506)">
            <g id="Group_600" transform="matrix(0.998, -0.07, 0.07, 0.998, 21.424, 111.349)">
                <g id="Group_596" transform="translate(1.469 1.455)">
                    <path id="Path_3137"
                          d="M30.253,3.065s14.176,14.277-15.18,41.863a2.979,2.979,0,0,1-4.585-.608C5.184,35.648-8.165,10.632,7.058,0Z"
                          transform="translate(0 0)" fill="#e71818"/>
                </g>
                <g id="Group_597" transform="translate(6.989 1.841)">
                    <path id="Path_3138"
                          d="M21.39,2.167S31.45,12.3,10.542,31.873A1.983,1.983,0,0,1,7.5,31.468C3.8,25.466-5.852,7.573,4.99,0Z"
                          transform="translate(0 0)" fill="#e6a800"/>
                </g>
                <g id="Group_598" transform="translate(11.385 1.322)">
                    <path id="Path_3139"
                          d="M14.433,1.462S21.221,8.3,7.113,21.506a1.338,1.338,0,0,1-2.055-.273C2.567,17.182-3.949,5.109,3.367,0Z"
                          transform="translate(0 0)" fill="#fffc01"/>
                </g>
                <g id="Group_599" transform="translate(0 0)">
                    <path id="Path_3140"
                          d="M16.871,47.96a4.433,4.433,0,0,1-6.154-1.428C8.06,42.189,3.281,33.577,1.131,24.692-1.6,13.427.613,5.208,7.694.263A1.43,1.43,0,0,1,8.718.013l23.2,3.065a1.451,1.451,0,0,1,.842.417c.162.163,3.971,4.088,3.841,11.626-.169,9.724-6.58,20.6-19.056,32.322A4.469,4.469,0,0,1,16.871,47.96ZM8.911,2.972c-13.62,10.23-.2,34.717,4.287,42.042a1.5,1.5,0,0,0,1.092.714,1.535,1.535,0,0,0,1.257-.405C30.275,31.481,33.54,21.3,33.684,15.191a14.378,14.378,0,0,0-2.7-9.3Z"
                          fill="#371a45"/>
                </g>
            </g>
            <g id="Group_868" transform="translate(18.824 97.966)">
                <g id="Group_601" transform="matrix(0.998, -0.07, 0.07, 0.998, 0, 3.03)">
                    <path id="Path_3141"
                          d="M41.358,4.118a61.975,61.975,0,0,1,2.021,7.952A3.516,3.516,0,0,1,40.585,16.1a57.63,57.63,0,0,1-14.148,1.388A66.053,66.053,0,0,1,2.191,12.133,3.431,3.431,0,0,1,.321,7.518L3.868,0,26.214,2.453Z"
                          transform="translate(0 0)" fill="#9da9b9"/>
                </g>
                <g id="Group_603" transform="matrix(0.998, -0.07, 0.07, 0.998, 0.911, 2.916)"
                   opacity="0.6">
                    <path id="Path_3143"
                          d="M38.48,4.118c.094.3.184.592.273.9L7.052,1.266l-3.3,7.52c-.771,1.756.424,3.679,2.16,4.492.736.344,1.816.463,2.788.854-2.449-.817-5.253-1.716-6.765-2.424A3.01,3.01,0,0,1,.321,7.518L3.62,0Z"
                          transform="translate(0 0)" fill="#fff"/>
                </g>
            </g>
            <g id="Group_601-2" transform="matrix(0.998, -0.07, 0.07, 0.998, 20.616, 99.313)">
                <g id="Path_3141-2" transform="translate(0 0)" fill="none">
                    <path d="M38.456,4.118a65.855,65.855,0,0,1,1.88,7.952,3.51,3.51,0,0,1-2.6,4.032,49.965,49.965,0,0,1-13.156,1.388A57.87,57.87,0,0,1,2.038,12.133,3.529,3.529,0,0,1,.3,7.518L3.6,0,24.375,2.453Z"
                          stroke="none"/>
                    <path d="M 3.596427917480469 1.9073486328125e-06 L 0.2983474731445312 7.518251419067383 C -0.4727134704589844 9.2724609375 0.3013267517089844 11.32095146179199 2.03765869140625 12.13311100006104 C 6.251976013183594 14.10351085662842 14.47255706787109 17.23625183105469 24.5820369720459 17.49108123779297 C 28.70058441162109 17.59794044494629 33.13419723510742 17.22474098205566 37.73774719238281 16.10267066955566 C 39.5308952331543 15.66289138793945 40.66190719604492 13.88567161560059 40.33596801757812 12.07064056396484 C 39.93728637695312 9.838010787963867 39.30524826049805 6.788290977478027 38.45640563964844 4.118350982666016 L 24.37499618530273 2.45293140411377 L 3.596427917480469 1.9073486328125e-06 M 2.359928131103516 -2.159858703613281 L 24.60946655273438 0.4667205810546875 L 39.97174835205078 2.283631324768066 L 40.36239624023438 3.512391090393066 C 41.26175689697266 6.341220855712891 41.91509628295898 9.536601066589355 42.30482864379883 11.71906089782715 C 42.81805801391602 14.57704162597656 41.02136611938477 17.35662078857422 38.21413803100586 18.04510116577148 C 34.22910690307617 19.01642036437988 30.09627723693848 19.50857162475586 25.92767715454102 19.50857162475586 C 25.46503639221191 19.50857162475586 24.99484634399414 19.50246047973633 24.53018569946289 19.49041175842285 C 19.9093074798584 19.37393188476562 15.21095657348633 18.66500091552734 10.56707763671875 17.38336181640625 C 6.487735748291016 16.25752067565918 3.216487884521484 14.89208126068115 1.190578460693359 13.94486141204834 C -0.1249122619628906 13.32955169677734 -1.131332397460938 12.24284172058105 -1.643573760986328 10.88479137420654 C -2.156562805175781 9.524770736694336 -2.117141723632812 8.043371200561523 -1.532581329345703 6.713471412658691 L 2.359928131103516 -2.159858703613281 Z"
                          stroke="none" fill="#371a45"/>
                </g>
            </g>
            <g id="Group_867" transform="translate(0 0)">
                <g id="Group_866" transform="translate(6.014 0)">
                    <path id="Union_11"
                          d="M21.646,101.761s0,0-.006,0l0,0c-5.014-.306-9.022-.727-11.6-1.048a7.69,7.69,0,0,1-5.073-2.777l-3.492-4.38A6.65,6.65,0,0,1,.005,89.141L2.453,29.768A26.1,26.1,0,0,1,4.559,20.43C11.122,5.306,34.334,0,34.334,0l.058.057L34.456,0S56.939,5.306,63.5,20.43a26.1,26.1,0,0,1,2.106,9.338l2.448,59.373a6.65,6.65,0,0,1-1.469,4.415l-3.49,4.38a7.694,7.694,0,0,1-5.075,2.777c-2.574.321-6.581.742-11.6,1.048,0,0-.008,0-.01,0-3.6.216-7.716.366-12.2.366h-.4C29.344,102.126,25.237,101.976,21.646,101.761Z"
                          transform="translate(0.973 0.842)" fill="#fff"/>
                    <g id="Group_606" transform="matrix(0.998, -0.07, 0.07, 0.998, 0, 74.088)">
                        <path id="Path_3146"
                              d="M69.546,22.382c-2.32,1.563-5.64,6.594-8,8.105a13.117,13.117,0,0,1-8.515,1.575A294.25,294.25,0,0,1,9.849,28.536c-2.3-.4-3.462-1.854-4.746-3.429L1.414,20.588A5.807,5.807,0,0,1,.039,16.2L1.974,0,71.312,4.814Z"
                              transform="translate(0 0)" fill="#e71818"/>
                    </g>
                    <path id="Subtraction_2"
                          d="M26.171,102.123c-3.121,0-6.292-.123-9.426-.365l-.008,0c-4-.318-7.089-.747-8.971-1.05a5.783,5.783,0,0,1-3.924-2.777l-2.7-4.38A8.028,8.028,0,0,1,0,89.138L1.9,29.767a32.571,32.571,0,0,1,1.629-9.339C5.438,14.733,9.368,9.776,15.207,5.7A44.9,44.9,0,0,1,25.927.208L26.09,0l.051.015.186.059L26.558,0l.054.067L26.719.2c.408.14.843.3,1.291.473C23,2.615,10.927,8.411,6.893,20.427a32.571,32.571,0,0,0-1.629,9.339L3.372,89.138a8.014,8.014,0,0,0,1.136,4.415l2.7,4.38a5.789,5.789,0,0,0,3.926,2.777c1.883.3,4.968.733,8.97,1.05l.008,0c2.615.2,5.271.323,7.9.356l-.066,0c-.486,0-.974.006-1.454.006h-.318Z"
                          transform="translate(1.815 0.844)" fill="#fff" opacity="0.35"/>
                    <g id="Union_15" transform="translate(1.815)" fill="none"
                       stroke-miterlimit="10">
                        <path d="M21.646,101.761s0,0-.006,0l0,0c-5.014-.306-9.022-.727-11.6-1.048a7.69,7.69,0,0,1-5.073-2.777l-3.492-4.38A6.65,6.65,0,0,1,.005,89.141L2.453,29.768A26.1,26.1,0,0,1,4.559,20.43C11.122,5.306,34.334,0,34.334,0l.058.057L34.456,0S56.939,5.306,63.5,20.43a26.1,26.1,0,0,1,2.106,9.338l2.448,59.373a6.65,6.65,0,0,1-1.469,4.415l-3.49,4.38a7.694,7.694,0,0,1-5.075,2.777c-2.574.321-6.581.742-11.6,1.048,0,0-.008,0-.01,0-3.6.216-7.716.366-12.2.366h-.4C29.344,102.126,25.237,101.976,21.646,101.761Z"
                              stroke="none"/>
                        <path d="M 33.81511688232422 102.125617980957 C 33.95951843261719 102.125617980957 34.1034049987793 102.1252288818359 34.24847793579102 102.1252059936523 C 38.71852111816406 102.1251907348633 42.82570266723633 101.9750213623047 46.41533660888672 101.7596054077148 C 46.41729736328125 101.7626419067383 46.42120742797852 101.7596054077148 46.42511749267578 101.7626419067383 C 51.43926239013672 101.4565811157227 55.44666290283203 101.0353622436523 58.02033615112305 100.7141494750977 C 60.04557037353516 100.4626388549805 61.87887954711914 99.46111297607422 63.09518814086914 97.93685913085938 L 66.58551788330078 93.55652618408203 C 67.60204315185547 92.27925872802734 68.1171875 90.72470855712891 68.05449676513672 89.14136505126953 L 65.60617065429688 29.76832962036133 C 65.47495269775391 26.56831169128418 64.78944396972656 23.39860153198242 63.50064468383789 20.43040084838867 C 56.93915176391602 5.306092739105225 34.45580673217773 1.756702772581775e-06 34.45580673217773 1.756702772581775e-06 C 34.45580673217773 1.756702772581775e-06 34.43422698974609 0.02054721117019653 34.39266204833984 0.06025630235671997 C 34.35426330566406 0.02254721149802208 34.33437347412109 0.003038120223209262 34.33437347412109 0.003038120223209262 C 34.33437347412109 0.003038120223209262 11.12240791320801 5.306092739105225 4.558971881866455 20.43040084838867 C 3.270189762115479 23.39860153198242 2.584662675857544 26.56831169128418 2.453426122665405 29.76832962036133 L 0.005117135122418404 89.14136505126953 C -0.05755559355020523 90.72470855712891 0.457553505897522 92.27925872802734 1.474098920822144 93.55652618408203 L 4.966371536254883 97.93685913085938 C 6.180735111236572 99.46111297607422 8.015990257263184 100.4626388549805 10.03928089141846 100.7141494750977 C 12.61489868164062 101.0353622436523 16.62229919433594 101.4565811157227 21.63644409179688 101.7626419067383 C 21.63973045349121 101.7601165771484 21.64102363586426 101.7618103027344 21.6442813873291 101.7618026733398 C 21.64493560791016 101.7618026733398 21.64558982849121 101.7616348266602 21.64624404907227 101.7611312866211 C 25.23660850524902 101.9757995605469 29.34402656555176 102.1256561279297 33.81511688232422 102.125617980957 M 33.81513595581055 104.125617980957 C 33.81511688232422 104.125617980957 33.81511688232422 104.125617980957 33.81511688232422 104.125617980957 C 29.99201202392578 104.1256561279297 26.1107177734375 104.0163040161133 22.26696014404297 103.8004684448242 L 22.26169967651367 103.8045120239258 L 21.56167602539062 103.7618026733398 L 21.39144515991211 103.7618026733398 L 21.33785247802734 103.7480697631836 C 16.20749282836914 103.4307403564453 12.23259830474854 103.0031814575195 9.79177188873291 102.6987686157227 C 7.260680675506592 102.384147644043 4.931444644927979 101.1026916503906 3.402117252349854 99.18309020996094 L -0.08971922844648361 94.80331420898438 C -1.399082899093628 93.15811157226562 -2.074755668640137 91.11971282958984 -1.993319272994995 89.062255859375 L 0.4551171362400055 29.68592834472656 C 0.600135326385498 26.15005683898926 1.363644361495972 22.76789283752441 2.724444389343262 19.63385581970215 C 4.344735145568848 15.90014743804932 7.024098873138428 12.43389225006104 10.68795394897461 9.331692695617676 C 13.55737209320068 6.90214729309082 17.03838920593262 4.686401844024658 21.03431701660156 2.746001720428467 C 26.88483238220215 -0.09498476982116699 32.06389236450195 -1.493895888328552 33.50188827514648 -1.853205442428589 L 33.86117172241211 -2.195216417312622 L 34.40989685058594 -2.065747261047363 L 34.9544792175293 -2.190161943435669 L 35.30118179321289 -1.850115895271301 C 36.71136474609375 -1.485766291618347 41.72897338867188 -0.08378521353006363 47.41133499145508 2.754347324371338 C 51.30049896240234 4.696856498718262 54.69599151611328 6.914492607116699 57.50349807739258 9.345674514770508 C 61.08346176147461 12.44576549530029 63.71849822998047 15.90738391876221 65.33542633056641 19.63440132141113 C 66.69596862792969 22.76787376403809 67.45948028564453 26.15003776550293 67.60449981689453 29.6863842010498 L 70.05281066894531 89.05896759033203 C 70.13439178466797 91.11963653564453 69.45873260498047 93.15805816650391 68.15040588378906 94.80196380615234 L 64.65935516357422 99.18320465087891 C 63.12691879272461 101.1036376953125 60.79724502563477 102.3846588134766 58.26680755615234 102.6988906860352 C 55.8018798828125 103.0065460205078 51.76649856567383 103.4403305053711 46.54697036743164 103.7589263916016 L 45.79400634765625 103.8048782348633 L 45.7870979309082 103.7995071411133 C 41.94854354858398 104.0156860351562 38.07066345214844 104.1251983642578 34.24848175048828 104.1251983642578 L 34.21609878540039 104.1251983642578 C 34.08465194702148 104.1254730224609 33.94998168945312 104.125617980957 33.81513595581055 104.125617980957 L 33.81513595581055 104.125617980957 Z"
                              stroke="none" fill="#371a45"/>
                    </g>
                </g>
                <g id="Rectangle_375" transform="translate(0 37.879)" fill="#0096f0"
                   stroke="#371a45" stroke-width="2">
                    <rect width="82.751" height="15.152" rx="2" stroke="none"/>
                    <rect x="-1" y="-1" width="84.751" height="17.152" rx="3" fill="none"/>
                </g>
            </g>
        </g>
    </g>
</svg>
